<?xml version="1.0" encoding="UTF-8" standalone="no"?>
<!-- Created with Inkscape (http://www.inkscape.org/) -->

<svg
   width="128"
   height="128"
   viewBox="0 0 1 1"
   version="1.1"
   id="svg5"
   inkscape:version="1.2.1 (9c6d41e410, 2022-07-14)"
   sodipodi:docname="Icon-Farril.svg"
   inkscape:export-filename="..\DPXP_ExoAdaptation\Textures\UI\Factions\ClimateWarlord.png"
   inkscape:export-xdpi="96"
   inkscape:export-ydpi="96"
   xml:space="preserve"
   xmlns:inkscape="http://www.inkscape.org/namespaces/inkscape"
   xmlns:sodipodi="http://sodipodi.sourceforge.net/DTD/sodipodi-0.dtd"
   xmlns="http://www.w3.org/2000/svg"
   xmlns:svg="http://www.w3.org/2000/svg"><sodipodi:namedview
     id="namedview7"
     pagecolor="#ffffff"
     bordercolor="#666666"
     borderopacity="1.0"
     inkscape:showpageshadow="2"
     inkscape:pageopacity="0.0"
     inkscape:pagecheckerboard="0"
     inkscape:deskcolor="#d1d1d1"
     inkscape:document-units="px"
     showgrid="false"
     inkscape:zoom="3.3638608"
     inkscape:cx="24.674029"
     inkscape:cy="66.292874"
     inkscape:window-width="1680"
     inkscape:window-height="987"
     inkscape:window-x="-8"
     inkscape:window-y="-8"
     inkscape:window-maximized="1"
     inkscape:current-layer="g14902"><inkscape:grid
       type="xygrid"
       id="grid132"
       empspacing="8" /></sodipodi:namedview><defs
     id="defs2" /><g
     inkscape:label="BG"
     inkscape:groupmode="layer"
     id="layer1" /><g
     inkscape:groupmode="layer"
     id="layer2"
     inkscape:label="Main"><g
       aria-label="?"
       transform="matrix(0.01076073,0,0,0.01076073,-0.13589189,-0.22446739)"
       id="text298"
       style="font-size:96px;line-height:1;font-family:'Comic Sans MS';-inkscape-font-specification:'Comic Sans MS';letter-spacing:0px;word-spacing:0px;baseline-shift:baseline;opacity:1;stroke-width:2.17805855;stop-color:#000000;stop-opacity:1;fill:#00ff00;fill-opacity:1;stroke:#004000;stroke-opacity:1;stroke-dasharray:none"><g
         id="g14902"><g
           id="g14997"
           transform="matrix(1,0,0,-1,0.97123158,132.13083)"><path
             style="fill:#ffffff;fill-opacity:1;stroke:none;stroke-width:2.17806;stroke-linecap:round;stroke-linejoin:round;stroke-dasharray:none;stroke-opacity:1"
             d="m 55.794349,98.234649 c 0,0 1.294975,2.266201 4.910116,1.133105 3.615139,-1.133105 2.967651,-2.589951 2.913694,-3.237444 -0.05396,-0.647486 -1.942463,-1.34893 -1.942463,-1.34893 l 1.133103,-10.899376 6.097176,0.161872 0.701445,-6.960493 -6.798621,1.025189 2.859738,-30.593795 -8.039639,-9.118785 -6.097176,11.115206 4.20867,30.270051 -5.989262,1.241018 0.485616,3.615139 5.719475,-0.161871 1.780592,11.22312 c 0,0 -1.996421,0.107916 -1.942464,2.535994 z"
             id="path14993" /><path
             style="fill:#000000;stroke-width:0.0244494"
             d="m 55.721627,99.848736 c 0.113696,0.09204 0.249849,0.187414 0.363764,0.254794 1.024214,0.60593 2.657965,0.612 4.509763,0.0168 0.28032,-0.0901 0.767996,-0.260501 1.064678,-0.372005 0.958082,-0.360082 1.58583,-0.674016 2.105963,-1.053166 0.127369,-0.09286 0.463853,-0.414639 0.557167,-0.532843 0.339301,-0.429669 0.498384,-0.920144 0.489567,-1.509059 -0.0061,-0.409336 -0.09838,-0.877176 -0.239858,-1.216442 -0.308923,-0.740806 -0.908257,-1.132524 -1.864011,-1.218296 -0.0758,-0.0068 -0.222644,-0.01364 -0.32634,-0.01521 l -0.188539,-0.0028 0.472904,-4.551977 c 0.260095,-2.503589 0.477628,-4.556716 0.483412,-4.562499 0.0058,-0.0058 1.468881,-0.06513 3.251329,-0.131885 1.782449,-0.06675 3.276392,-0.122965 3.319882,-0.124905 l 0.07906,-0.0035 0.353554,-4.390017 c 0.194452,-2.414512 0.349926,-4.393488 0.345496,-4.397726 -0.0043,-0.0041 -1.478436,0.276805 -3.275563,0.624544 -1.797127,0.347738 -3.269202,0.630377 -3.271277,0.628087 -0.0021,-0.0023 0.698195,-6.756895 1.556158,-15.010234 0.857998,-8.253303 1.559006,-15.010346 1.557834,-15.015616 -0.0012,-0.0053 -2.184018,-2.573023 -4.850768,-5.706119 -2.666749,-3.133096 -4.865208,-5.717467 -4.885473,-5.743047 -0.028,-0.0354 -0.03932,-0.044 -0.04731,-0.036 -0.02707,0.0271 -7.447675,13.038171 -7.445351,13.054402 0.0013,0.01004 1.028832,6.833588 2.283039,15.163097 l 2.280379,15.14456 -0.242069,0.0462 c -1.070554,0.204311 -5.719505,1.105966 -5.719061,1.109201 0.0096,0.06969 0.846188,5.286432 0.848476,5.290858 0.0018,0.0035 1.356272,-0.04434 3.009842,-0.106464 1.653567,-0.06212 3.014293,-0.111529 3.023832,-0.10979 0.01225,0.0022 0.23791,1.467857 0.766383,4.97728 l 0.749045,4.974122 -0.167065,0.08292 c -0.291312,0.144545 -0.558727,0.310264 -0.793729,0.491893 -0.137284,0.106171 -0.41188,0.376384 -0.501717,0.494646 -0.421707,0.550966 -0.571104,1.165102 -0.463362,1.905337 0.06599,0.45338 0.217174,0.842482 0.452078,1.163534 0.06598,0.09018 0.289574,0.332213 0.358291,0.387834 z M 56.8486,98.380443 c -0.08615,-0.143748 -0.149843,-0.384688 -0.155578,-0.588525 -0.0057,-0.203095 0.05572,-0.437045 0.162296,-0.618068 0.07906,-0.134214 0.242165,-0.310755 0.396371,-0.428756 0.437187,-0.334799 1.162875,-0.627511 2.087063,-0.841878 0.227907,-0.05286 0.890007,-0.184837 1.166785,-0.232569 1.930572,-0.332963 2.535767,-0.149593 2.624636,0.795258 0.02121,0.225487 -0.0141,0.410152 -0.114851,0.600747 -0.04606,0.08707 -0.05612,0.09925 -0.211345,0.253912 -0.180377,0.179811 -0.262676,0.242453 -0.52634,0.400616 -0.454028,0.272429 -0.939897,0.488325 -1.71031,0.759987 -0.608483,0.214568 -1.142951,0.353749 -1.619735,0.421797 -1.075286,0.153473 -1.802331,-0.02752 -2.098999,-0.522528 z m 1.332256,-4.348505 c -0.0406,-0.33921 -0.07109,-0.619473 -0.06775,-0.622812 0.0088,-0.0088 2.706657,-0.755564 2.710959,-0.750392 0.0019,0.0023 -0.02738,0.383426 -0.06525,0.84677 l -0.06886,0.842432 -0.310553,0.05129 c -0.846253,0.139726 -1.477306,0.262935 -1.905954,0.372126 l -0.198738,0.05063 -0.01005,-0.08668 c -0.0055,-0.04766 -0.04324,-0.364181 -0.08384,-0.703392 z M 57.9116,91.788221 c -0.04755,-0.395965 -0.08225,-0.722022 -0.07712,-0.724564 0.0257,-0.01297 3.184657,-0.924249 3.189225,-0.920233 0.01152,0.01012 -0.07786,1.020349 -0.0915,1.033984 -0.02691,0.02691 -2.927676,1.356513 -2.930958,1.343447 -0.0016,-0.0069 -0.04209,-0.336662 -0.08965,-0.732634 z m -7.504808,-9.35722 c -0.08297,-0.532628 -0.145573,-0.971996 -0.139119,-0.97637 0.0065,-0.0044 1.19544,-0.219137 2.64219,-0.477252 2.89371,-0.516264 10.060168,-1.795045 13.316764,-2.376238 1.143023,-0.203992 2.077901,-0.365681 2.077508,-0.359307 -5.65e-4,0.0062 -0.170726,1.122902 -0.378521,2.481174 l -0.377793,2.469599 -0.270848,0.0012 c -0.148967,6.58e-4 -1.486701,0.01765 -2.972738,0.03775 -1.486036,0.02011 -4.84854,0.06511 -7.472228,0.100023 -2.623687,0.03491 -5.107018,0.06797 -5.518511,0.07347 -0.411494,0.0055 -0.749898,0.0065 -0.752011,0.0022 -0.0021,-0.0042 -0.07172,-0.443601 -0.154693,-0.97623 z m 7.225947,7.0381 c -0.04838,-0.401719 -0.08821,-0.732898 -0.0885,-0.735947 0,-0.0028 0.8295,-0.254878 1.843991,-0.559603 1.467263,-0.440728 1.84435,-0.549977 1.84368,-0.534132 -7.78e-4,0.01068 -0.01905,0.242271 -0.04131,0.514029 l -0.04047,0.494108 -1.621574,0.748976 c -1.983151,0.915971 -1.800672,0.833378 -1.804598,0.816756 -0.0021,-0.0078 -0.04284,-0.342467 -0.09122,-0.744187 z M 57.289657,86.60066 c -0.0852,-0.707164 -0.15159,-1.289068 -0.147537,-1.293121 0.004,-0.004 0.962479,-0.04345 2.129836,-0.08755 1.167357,-0.0441 2.131177,-0.08058 2.14182,-0.08107 0.01516,-7.36e-4 0.01127,0.100734 -0.01839,0.47244 -0.02076,0.260337 -0.03962,0.480913 -0.04193,0.490166 -0.0023,0.01075 -0.739752,0.357264 -1.944114,0.914679 -1.066956,0.493818 -1.944535,0.898942 -1.950172,0.900277 -0.0056,0.0013 -0.01124,-0.0049 -0.01243,-0.01382 -0.0012,-0.009 -0.07189,-0.59484 -0.157083,-1.302006 z M 54.558633,63.850843 52.77092,48.95139 54.639051,45.671025 c 1.027472,-1.804201 1.884283,-3.308863 1.90403,-3.343686 0.01972,-0.03485 0.03717,-0.06206 0.03872,-0.0605 0.005,0.005 1.357875,36.154249 1.353976,36.173352 -0.0026,0.01297 -0.22432,0.06084 -0.789632,0.170507 -0.432275,0.08386 -0.789066,0.149584 -0.792868,0.146047 -0.0038,-0.0035 -0.811386,-6.711188 -1.79463,-14.905888 z m 4.564286,-4.927971 C 59.028979,48.716113 58.95322,40.364021 58.954571,40.362671 c 0.0013,-0.0013 0.0091,0.007 0.01729,0.01848 0.0081,0.01153 1.245289,1.644359 2.749206,3.628572 l 2.734403,3.607671 -5.87e-4,0.04256 c -5.3e-4,0.03804 -2.412767,29.936162 -2.419312,29.985811 -0.0021,0.01628 -0.277256,0.07338 -1.370455,0.284408 l -1.367769,0.264036 -0.0018,-0.356783 c -9.9e-4,-0.19623 -0.07866,-8.707768 -0.172602,-18.914528 z"
             id="path14928" /></g><g
           id="g15003"
           transform="translate(0,16.079278)"><circle
             style="font-size:96px;line-height:1;font-family:'Comic Sans MS';-inkscape-font-specification:'Comic Sans MS';letter-spacing:0px;word-spacing:0px;baseline-shift:baseline;opacity:1;fill:#ffffff;fill-opacity:1;stroke:none;stroke-width:2.17806;stroke-linecap:round;stroke-linejoin:round;stroke-dasharray:none;stroke-opacity:1;stop-color:#000000;stop-opacity:1"
             id="path14914"
             cx="59.09375"
             cy="67.325119"
             r="19.259018" /><path
             style="fill:#a3a3a3;fill-opacity:1;stroke:none;stroke-width:0.167641"
             d="m 57.819552,86.092774 c 0.05291,-0.02135 0.139505,-0.02135 0.19242,0 0.05292,0.02135 0.0096,0.03882 -0.09621,0.03882 -0.105831,0 -0.149126,-0.01747 -0.09621,-0.03882 z m 3.287329,-1.195085 c -0.0023,-1.521593 -0.180096,-2.089684 -0.996284,-3.183325 -0.890829,-1.193658 -2.388804,-2.596919 -3.814809,-3.573609 -0.788748,-0.540224 -1.151114,-0.923483 -1.150289,-1.216613 3.08e-4,-0.114941 0.0697,-0.434115 0.154168,-0.709276 0.213748,-0.696291 0.262783,-1.208926 0.154608,-1.61633 -0.05058,-0.190496 -0.314239,-0.819248 -0.585907,-1.397226 -0.375706,-0.799322 -0.506086,-1.167061 -0.544677,-1.536271 -0.03712,-0.355162 -0.09719,-0.531856 -0.223873,-0.65854 -0.300151,-0.300151 -0.493979,-0.294733 -1.510725,0.04223 -1.171492,0.388248 -2.14904,0.623771 -2.591928,0.624479 -0.367798,6.16e-4 -0.465563,-0.08003 -1.371465,-1.130923 -0.502722,-0.583184 -0.920684,-0.792761 -1.580839,-0.792678 -0.639846,7.7e-5 -1.10563,0.225318 -2.483059,1.200731 -1.34781,0.954437 -1.400493,0.987654 -1.746014,1.100896 -0.413067,0.135378 -0.80034,0.0031 -1.33955,-0.457544 -0.250232,-0.213772 -0.527876,-0.449295 -0.616986,-0.523385 -0.120886,-0.10051 -0.184617,-0.290151 -0.251028,-0.746977 -0.16281,-1.1199 -0.250645,-2.679717 -0.201347,-3.575537 0.25921,-4.710146 2.061676,-8.879045 5.270352,-12.189724 2.799459,-2.888453 6.281701,-4.731088 10.202016,-5.398416 0.594379,-0.101176 1.148549,-0.206237 1.231489,-0.233467 0.0885,-0.02905 0.115784,-0.02266 0.06604,0.01548 -0.04662,0.03574 -0.107463,0.290118 -0.135216,0.565279 -0.02775,0.275161 -0.08457,0.623249 -0.126273,0.773529 -0.06774,0.244126 -0.103519,0.273237 -0.335852,0.273237 -0.470175,0 -0.627395,0.179623 -0.886113,1.01238 -0.286334,0.92165 -0.616199,1.447075 -1.508574,2.402925 -0.746841,0.799965 -1.027177,1.299663 -1.094372,1.950714 -0.06622,0.641571 0.08742,1.154753 0.72566,2.42391 0.711499,1.414828 0.729261,1.571127 0.307792,2.708517 -0.502108,1.355004 -0.580047,1.786215 -0.449999,2.489706 0.1467,0.793574 0.506213,1.395876 1.316445,2.205471 0.402543,0.402226 0.945275,0.921761 1.206072,1.154521 0.431162,0.384812 0.482345,0.46368 0.56424,0.86945 0.0556,0.275464 0.06947,0.665991 0.03626,1.020409 -0.08597,0.917425 0.163471,1.265708 0.9065,1.265708 0.942501,0 1.966255,0.473225 4.022332,1.8593 1.775501,1.19693 2.264888,1.477123 3.265378,1.869559 1.740842,0.682835 2.108072,1.039172 2.105011,2.042571 -0.0022,0.71734 -0.10337,1.022477 -0.868138,2.618091 -0.37536,0.78315 -0.740004,1.631723 -0.810322,1.885718 -0.09605,0.346952 -0.136116,0.902091 -0.161088,2.232074 -0.01828,0.973647 -0.05858,1.942994 -0.08955,2.154107 l -0.05631,0.38384 -0.721954,0.212095 c -0.764336,0.224547 -2.250243,0.550049 -2.894625,0.634096 l -0.385535,0.05029 -0.0017,-1.101466 z m 5.598246,-1.024499 c 0.0016,-0.126998 0.01882,-0.169633 0.03833,-0.09475 0.01951,0.07489 0.01823,0.178795 -0.0029,0.230905 -0.02108,0.05211 -0.03705,-0.0092 -0.03548,-0.136159 z m 0.007,-1.924202 c 6.16e-4,-0.211663 0.01553,-0.289116 0.03322,-0.17212 0.01769,0.116996 0.01722,0.290174 -10e-4,0.38484 -0.01827,0.09467 -0.03274,-0.0011 -0.03217,-0.21272 z M 46.154655,81.333243 c 0.0016,-0.126997 0.01882,-0.169633 0.03833,-0.09474 0.01951,0.07489 0.01823,0.178794 -0.0029,0.230904 -0.02108,0.05211 -0.03705,-0.0092 -0.03548,-0.136159 z m -1.831067,-0.05773 -0.146624,-0.173178 0.173179,0.146623 c 0.162744,0.13779 0.208217,0.199733 0.146623,0.199733 -0.01461,0 -0.09254,-0.07793 -0.173178,-0.173178 z m 1.502364,-0.577261 -0.186594,-0.211662 0.211662,0.186595 c 0.19783,0.174401 0.246959,0.23673 0.186594,0.23673 -0.01379,0 -0.109034,-0.09525 -0.211662,-0.211663 z m 28.04564,-2.915838 c -0.397066,-0.879823 -0.505384,-1.30199 -0.47132,-1.836953 0.02886,-0.453255 0.0607,-0.525082 0.469184,-1.058391 0.241022,-0.314676 0.490689,-0.697711 0.554817,-0.85119 0.192989,-0.461896 0.149503,-1.184821 -0.114312,-1.900327 -0.258862,-0.702072 -0.279893,-0.913496 -0.121362,-1.220061 0.115646,-0.223635 0.764088,-0.858077 0.877011,-0.858077 0.03651,0 0.327357,0.06675 0.646333,0.148328 0.318977,0.08158 0.828466,0.172816 1.132197,0.202745 l 0.55224,0.05442 -0.04817,0.239822 c -0.331816,1.652049 -0.869023,3.358693 -1.452853,4.615549 -0.384498,0.827736 -1.324755,2.457248 -1.607646,2.786128 L 74.110094,78.3109 73.871589,77.782418 Z M 71.867946,76.06093 c 0,-0.190496 0.01501,-0.268427 0.03336,-0.173179 0.01835,0.09525 0.01835,0.251109 0,0.346357 -0.01835,0.09525 -0.03336,0.01732 -0.03336,-0.173178 z M 49.742715,73.160533 c 0.05556,-0.02223 0.121947,-0.0195 0.147522,0.0061 0.02558,0.02558 -0.01988,0.04377 -0.10102,0.04042 -0.08966,-0.0037 -0.107902,-0.02193 -0.0465,-0.0465 z m 0.456998,0.0016 c 0.05291,-0.02135 0.139504,-0.02135 0.19242,0 0.05292,0.02135 0.0096,0.03882 -0.09621,0.03882 -0.105831,0 -0.149126,-0.01747 -0.09621,-0.03882 z m 22.357839,-1.873226 c 0,-0.148163 0.01584,-0.208775 0.0352,-0.134694 0.01936,0.07408 0.01936,0.195307 0,0.269389 -0.01936,0.07408 -0.0352,0.01347 -0.0352,-0.134695 z m 4.508828,-2.36162 c 0.05556,-0.02223 0.121947,-0.0195 0.147523,0.0061 0.02558,0.02558 -0.01988,0.04377 -0.101021,0.04042 -0.08966,-0.0037 -0.107902,-0.02193 -0.0465,-0.0465 z M 74.983432,68.54405 c 0.05292,-0.02135 0.139504,-0.02135 0.19242,0 0.05291,0.02135 0.0096,0.03882 -0.09621,0.03882 -0.105831,0 -0.149126,-0.01747 -0.09621,-0.03882 z m 2.664948,-1.065063 c 1.54e-4,-0.465656 0.01285,-0.646229 0.02817,-0.401272 0.01532,0.244957 0.01518,0.625949 -3.08e-4,0.846649 -0.0155,0.2207 -0.02803,0.02028 -0.02786,-0.445377 z M 77.5487,65.702308 c 0.0037,-0.08966 0.02193,-0.107902 0.0465,-0.0465 0.02223,0.05556 0.0195,0.121947 -0.0061,0.147522 -0.02558,0.02558 -0.04377,-0.01988 -0.04042,-0.10102 z m -2.599771,-1.49061 c -0.177724,-0.08069 -0.639421,-0.37381 -1.02599,-0.651387 -1.252885,-0.899635 -2.081012,-0.967788 -2.816971,-0.23183 -0.187323,0.187323 -0.385341,0.340587 -0.440043,0.340587 -0.0547,0 -0.28267,-0.05441 -0.506597,-0.120908 -0.329864,-0.09796 -0.533389,-0.242174 -1.072282,-0.759804 -0.997404,-0.95805 -1.477701,-1.146087 -2.361356,-0.924475 -0.463093,0.11614 -0.517694,0.116278 -0.692474,0.0018 -0.224841,-0.147321 -0.235024,-0.303093 -0.0667,-1.020373 0.147967,-0.630534 0.111829,-1.412914 -0.08291,-1.794897 -0.07536,-0.147826 -0.63299,-0.969121 -1.239173,-1.8251 -0.606182,-0.855979 -1.143452,-1.6335 -1.193932,-1.727823 -0.126606,-0.236565 -0.0433,-1.898676 0.159434,-3.18117 0.08699,-0.550322 0.207451,-1.37664 0.26768,-1.836263 0.06023,-0.459622 0.12805,-0.854219 0.150712,-0.876882 0.07761,-0.07761 1.930021,0.612004 2.931181,1.091213 1.894496,0.906807 3.452692,1.996126 4.953645,3.463047 2.438674,2.383378 4.07021,5.078526 4.981281,8.228616 0.302467,1.045802 0.303337,1.052156 0.144069,1.052156 -0.195301,0 -0.547198,0.212163 -0.960025,0.578812 -0.438758,0.389679 -0.628195,0.422337 -1.129554,0.194723 z M 55.07402,63.008426 c 0.0037,-0.08966 0.02193,-0.107901 0.0465,-0.0465 0.02223,0.05556 0.0195,0.121947 -0.0061,0.147523 -0.02558,0.02557 -0.04377,-0.01988 -0.04043,-0.101021 z m 6.782119,-8.460075 c 0.0016,-0.126997 0.01882,-0.169633 0.03833,-0.09474 0.01951,0.07489 0.01823,0.178794 -0.0029,0.230904 -0.02108,0.05211 -0.03705,-0.0092 -0.03548,-0.136159 z M 73.191031,53.259136 72.809084,52.855053 73.213166,53.237 c 0.37548,0.354912 0.43938,0.426218 0.381947,0.426218 -0.01217,0 -0.194012,-0.181837 -0.404082,-0.404082 z M 62.462955,49.462044 c 0.0037,-0.08966 0.02193,-0.107902 0.0465,-0.0465 0.02223,0.05556 0.0195,0.121946 -0.0061,0.147522 -0.02558,0.02558 -0.04377,-0.01988 -0.04042,-0.10102 z m -4.297047,-0.623903 c 0.07408,-0.01936 0.195307,-0.01936 0.269388,0 0.07408,0.01936 0.01347,0.0352 -0.134694,0.0352 -0.148163,0 -0.208776,-0.01584 -0.134694,-0.0352 z m 1.462394,0 c 0.07408,-0.01936 0.195306,-0.01936 0.269388,0 0.07408,0.01936 0.01347,0.0352 -0.134694,0.0352 -0.148164,0 -0.208776,-0.01584 -0.134694,-0.0352 z"
             id="path14910" /><path
             style="fill:#606060;fill-opacity:1;stroke:none;stroke-width:0.167641"
             d="m 57.723342,87.551683 c -1.836593,-0.100824 -4.247367,-0.637925 -6.041994,-1.346106 -0.752535,-0.29696 -0.923617,-0.458109 -0.923617,-0.869994 0,-0.23308 0.04685,-0.362405 0.173179,-0.478029 0.310596,-0.284283 0.452816,-0.275296 1.436677,0.09078 2.009935,0.747859 3.81674,1.108954 5.875289,1.174192 l 1.366184,0.0433 0.01553,-0.646023 C 59.65005,84.460423 59.60077,83.895352 59.447415,83.488354 59.064993,82.473406 57.227507,80.578633 55.451248,79.367601 53.740826,78.201456 53.4133,77.458997 53.87348,75.791 c 0.105028,-0.380694 0.16975,-0.761443 0.143825,-0.846108 -0.02592,-0.08467 -0.22892,-0.539116 -0.451101,-1.009891 -0.222182,-0.470775 -0.44545,-0.981651 -0.496152,-1.135279 -0.0507,-0.153628 -0.106293,-0.279324 -0.123537,-0.279324 -0.01724,0 -0.334937,0.08844 -0.705985,0.196532 -1.578093,0.459727 -2.416041,0.530739 -3.115483,0.264025 -0.496326,-0.189262 -0.754737,-0.409838 -1.329583,-1.134918 -0.261058,-0.329285 -0.521639,-0.57862 -0.634258,-0.606885 -0.273108,-0.06855 -0.539229,0.07908 -2.029774,1.126007 -1.053346,0.739844 -1.426089,0.958536 -1.856652,1.089316 -0.594207,0.180484 -1.215486,0.164615 -1.714264,-0.04379 -0.151169,-0.06316 -0.269857,-0.07954 -0.269857,-0.03723 0,0.164747 0.50665,1.393785 0.965085,2.341116 0.805955,1.665459 1.832436,3.147652 3.184722,4.598594 0.600653,0.644473 0.699181,0.787581 0.699181,1.015534 0,0.354251 -0.264149,0.650881 -0.631714,0.709393 -0.268981,0.04282 -0.314792,0.01727 -0.798238,-0.445165 -1.335057,-1.277032 -2.770784,-3.302013 -3.731237,-5.262611 -2.600542,-5.308564 -2.74357,-11.380402 -0.396444,-16.82982 2.457348,-5.705324 7.528879,-10.000032 13.562312,-11.484932 1.599159,-0.393572 2.525764,-0.515937 4.271728,-0.564116 2.146333,-0.05923 3.626582,0.09789 5.58858,0.593186 5.635202,1.422571 10.430663,5.322965 12.998866,10.57264 0.74466,1.522166 1.080433,2.42517 1.461603,3.93074 0.472797,1.867475 0.574207,2.728368 0.576326,4.892488 0.0019,1.982935 -0.06061,2.661453 -0.391773,4.249852 C 77.424158,77.56833 73.492022,82.673731 68.09,85.400791 c -3.27854,1.655078 -6.651263,2.354856 -10.366658,2.150892 z m 4.541116,-1.680177 c 1.415403,-0.24849 2.845983,-0.670515 2.925376,-0.862995 0.03057,-0.07411 0.08044,-1.069898 0.110822,-2.212874 0.05469,-2.057421 0.05764,-2.085174 0.295486,-2.783889 0.132132,-0.388162 0.480816,-1.184782 0.774854,-1.770266 0.62773,-1.249927 0.780935,-1.720981 0.780935,-2.401126 0,-1.013042 -0.354174,-1.376199 -1.993405,-2.043971 -1.246887,-0.507943 -1.666624,-0.746064 -3.565009,-2.022466 -2.051709,-1.379491 -2.973706,-1.787794 -4.046852,-1.792132 -0.24757,-10e-4 -0.378234,-0.04896 -0.520201,-0.190924 -0.181468,-0.181468 -0.189183,-0.228766 -0.180147,-1.104344 0.01239,-1.20024 -0.08411,-1.43136 -0.863796,-2.068966 -0.823172,-0.673166 -1.609887,-1.533803 -1.886586,-2.063855 -0.513762,-0.984176 -0.531695,-1.806584 -0.06712,-3.07822 0.593741,-1.6252 0.589853,-1.679538 -0.236772,-3.309156 l -0.609812,-1.202192 0.0012,-0.746081 c 0.0016,-0.970426 0.132719,-1.239319 1.122626,-2.301391 0.798478,-0.85669 1.281524,-1.641004 1.460048,-2.370662 0.133039,-0.543749 0.279985,-0.80284 0.503551,-0.88784 0.305154,-0.116019 0.462147,-0.0885 0.716594,0.125601 0.195966,0.164894 0.23681,0.255628 0.23681,0.526065 0,0.887041 -0.674221,2.216608 -1.670068,3.293383 -1.222348,1.32168 -1.250783,1.473637 -0.534645,2.857125 1.029208,1.988298 1.069153,2.369969 0.439566,4.200022 -0.338089,0.982743 -0.399851,1.242551 -0.361646,1.521288 0.09479,0.691586 0.570611,1.338986 1.633073,2.221966 1.130611,0.939615 1.443727,1.474002 1.540065,2.628387 l 0.0502,0.601517 0.513588,0.125934 c 0.993872,0.243701 1.69743,0.609133 3.506883,1.821493 1.935446,1.296777 2.209725,1.451194 3.496013,1.968228 1.032726,0.415113 1.485922,0.69308 1.964948,1.205197 0.53322,0.570056 0.678227,0.959223 0.718579,1.928506 0.04485,1.077378 -0.111725,1.641571 -0.903729,3.256427 -0.901326,1.837755 -0.872743,1.718184 -0.909035,3.802679 l -0.03123,1.793572 0.295885,-0.123436 c 0.84763,-0.35361 2.749778,-1.540574 3.682479,-2.297912 0.745703,-0.605499 1.657969,-1.453604 2.077177,-1.931088 l 0.423912,-0.482843 -0.411944,-0.87681 c -0.665252,-1.415969 -0.780686,-1.824441 -0.780686,-2.762527 0,-0.945663 0.09761,-1.220403 0.723881,-2.037501 0.472154,-0.61602 0.485281,-0.757377 0.154304,-1.661478 -0.434333,-1.186426 -0.242304,-1.985642 0.706368,-2.939878 0.830338,-0.835207 1.282034,-0.962268 2.379303,-0.669294 0.317493,0.08477 0.823112,0.175184 1.123596,0.200916 l 0.546337,0.04678 0.05017,-0.250831 c 0.129793,-0.648967 -0.0156,-3.705947 -0.184601,-3.881214 -0.0406,-0.04211 -0.221217,0.07263 -0.447479,0.284274 -1.031726,0.96506 -2.262845,0.86788 -3.790026,-0.299171 -0.237296,-0.181338 -0.557201,-0.389674 -0.710899,-0.462967 l -0.279451,-0.133261 -0.350193,0.355211 c -0.279455,0.28346 -0.435801,0.374369 -0.774,0.450055 -0.907493,0.203088 -2.02166,-0.213116 -2.860584,-1.06859 -0.784977,-0.800461 -0.817074,-0.815463 -1.412383,-0.660072 -0.88653,0.231404 -1.684206,-0.06223 -2.145642,-0.789841 -0.314656,-0.496161 -0.358748,-0.90516 -0.194237,-1.801772 0.07536,-0.410738 0.115345,-0.833169 0.08885,-0.938737 -0.0265,-0.105568 -0.584507,-0.950186 -1.240025,-1.876928 -0.709356,-1.002857 -1.243905,-1.838491 -1.320433,-2.064173 -0.180771,-0.533091 -0.103872,-2.187405 0.191676,-4.123446 0.126014,-0.825483 0.252963,-1.748165 0.282109,-2.050406 l 0.05299,-0.549528 -0.528643,-0.08661 c -3.749844,-0.614352 -7.721712,-0.01593 -11.166631,1.682416 -2.062504,1.016816 -3.38566,1.967923 -5.028757,3.614754 -1.236663,1.239473 -2.042667,2.268006 -2.866524,3.657937 -1.733637,2.924827 -2.594466,6.07912 -2.594466,9.506773 0,1.245073 0.154984,3.024722 0.295446,3.392531 0.05427,0.142114 0.669245,0.667614 1.190175,1.017011 0.370096,0.248231 0.848274,0.28154 1.231325,0.08577 0.135479,-0.06924 0.806208,-0.520148 1.49051,-1.002019 1.726178,-1.215534 2.167989,-1.384653 2.99173,-1.145185 0.449828,0.130768 0.723359,0.362529 1.613658,1.367234 0.23467,0.264826 0.474942,0.456396 0.615744,0.490934 0.30136,0.07392 1.23675,-0.120397 2.483943,-0.51602 1.248218,-0.39595 1.285265,-0.404418 1.516001,-0.346507 0.277813,0.06973 0.451466,0.385592 0.507682,0.923445 0.03716,0.355529 0.175888,0.737509 0.571642,1.573974 0.647183,1.367883 0.702008,1.757283 0.390944,2.776696 -0.108844,0.356702 -0.197899,0.72783 -0.197899,0.824728 0,0.270815 0.399315,0.666809 1.369896,1.358504 1.100371,0.78419 1.968546,1.538291 2.734476,2.375181 1.572399,1.718073 1.895179,2.46614 1.897802,4.398291 l 0.0013,0.984832 0.250146,-0.04032 c 0.137581,-0.02217 0.561867,-0.09504 0.942859,-0.161931 z M 74.654271,77.65765 c 0.626084,-0.96901 1.343732,-2.373898 1.771549,-3.468041 0.343722,-0.879068 0.922436,-2.965321 0.97544,-3.516445 l 0.02591,-0.269388 -0.577261,-0.05734 c -0.317493,-0.03154 -0.849348,-0.126042 -1.181901,-0.210015 -0.696913,-0.175977 -0.718614,-0.169409 -1.223439,0.37029 -0.494491,0.52865 -0.514419,0.665157 -0.22588,1.547313 0.13236,0.404667 0.262304,0.862722 0.288765,1.017899 0.07576,0.444289 -0.148459,1.068886 -0.595657,1.659298 -0.217267,0.286847 -0.44573,0.642652 -0.507693,0.790678 -0.132057,0.315471 -0.09481,0.935752 0.08804,1.466305 0.182002,0.528083 0.580877,1.381813 0.645409,1.381398 0.03133,-2.31e-4 0.263852,-0.320582 0.516721,-0.711955 z m 1.577896,-13.694749 c 0.23173,-0.205785 0.552415,-0.409452 0.712631,-0.452595 0.338343,-0.09111 0.343581,0.0085 -0.07254,-1.379999 -0.635988,-2.122194 -1.831352,-4.407719 -3.238296,-6.19159 -0.584518,-0.741113 -1.91707,-2.101379 -2.710595,-2.766968 -1.792729,-1.503695 -3.912276,-2.680076 -6.181549,-3.430854 -0.415415,-0.137438 -0.766714,-0.237642 -0.780665,-0.222678 -0.01395,0.01496 -0.0795,0.442836 -0.14566,0.950826 -0.06616,0.507989 -0.195662,1.408516 -0.287779,2.00117 -0.09753,0.627508 -0.17129,1.479819 -0.176594,2.040708 l -0.0091,0.963155 1.116037,1.575475 c 1.40273,1.98019 1.539361,2.240352 1.539361,2.93112 0,0.287734 -0.05338,0.753307 -0.118613,1.034604 -0.133754,0.576736 -0.103055,0.758632 0.15677,0.928875 0.162388,0.106401 0.220887,0.106196 0.585393,-0.002 0.893301,-0.265282 1.38214,-0.101995 2.300675,0.768498 0.702425,0.665688 1.075285,0.902217 1.561306,0.990438 0.269714,0.04896 0.310703,0.03058 0.566014,-0.253825 0.507785,-0.565639 1.269936,-0.702881 2.004367,-0.360929 0.218996,0.101964 0.663319,0.384953 0.987384,0.628865 0.631188,0.47507 1.265692,0.743894 1.577713,0.668441 0.105831,-0.02559 0.382018,-0.214901 0.613749,-0.420687 z M 47.588084,84.02816 c -0.223689,-0.125583 -0.319825,-0.337029 -0.31002,-0.681871 0.01783,-0.627109 0.99581,-0.842579 1.285109,-0.283137 0.163308,0.315803 0.14503,0.576106 -0.05676,0.808344 -0.21429,0.246626 -0.631356,0.317775 -0.918331,0.156664 z"
             id="path14904" /></g></g><path
         style="fill:#000000;stroke-width:0.167641"
         id="path14898"
         d="" /></g></g><g
     inkscape:groupmode="layer"
     id="layer3"
     inkscape:label="FG" /></svg>
