<?xml version="1.0" encoding="UTF-8" standalone="no"?>
<!-- Created with Inkscape (http://www.inkscape.org/) -->

<svg
   width="128"
   height="128"
   viewBox="0 0 1 1"
   version="1.1"
   id="svg5"
   inkscape:version="1.2.1 (9c6d41e410, 2022-07-14)"
   sodipodi:docname="Icon-GeneCity.svg"
   inkscape:export-filename="..\DPXP_GeneCity\Textures\UI\Factions\GeneCity.png"
   inkscape:export-xdpi="96"
   inkscape:export-ydpi="96"
   xml:space="preserve"
   xmlns:inkscape="http://www.inkscape.org/namespaces/inkscape"
   xmlns:sodipodi="http://sodipodi.sourceforge.net/DTD/sodipodi-0.dtd"
   xmlns="http://www.w3.org/2000/svg"
   xmlns:svg="http://www.w3.org/2000/svg"><sodipodi:namedview
     id="namedview7"
     pagecolor="#ffffff"
     bordercolor="#666666"
     borderopacity="1.0"
     inkscape:showpageshadow="2"
     inkscape:pageopacity="0.0"
     inkscape:pagecheckerboard="0"
     inkscape:deskcolor="#d1d1d1"
     inkscape:document-units="px"
     showgrid="true"
     inkscape:zoom="2.3786088"
     inkscape:cx="-42.882209"
     inkscape:cy="38.678071"
     inkscape:window-width="1680"
     inkscape:window-height="987"
     inkscape:window-x="-8"
     inkscape:window-y="-8"
     inkscape:window-maximized="1"
     inkscape:current-layer="g2010"><inkscape:grid
       type="xygrid"
       id="grid132"
       empspacing="8" /></sodipodi:namedview><defs
     id="defs2" /><g
     inkscape:label="BG"
     inkscape:groupmode="layer"
     id="layer1" /><g
     inkscape:groupmode="layer"
     id="layer2"
     inkscape:label="Main"><g
       aria-label="?"
       transform="matrix(0.01076073,0,0,0.01076073,-0.13589189,-0.22446739)"
       id="text298"
       style="font-size:96px;line-height:1;font-family:'Comic Sans MS';-inkscape-font-specification:'Comic Sans MS';letter-spacing:0px;word-spacing:0px;baseline-shift:baseline;opacity:1;stroke-width:2.17805855;stop-color:#000000;stop-opacity:1;fill:#00ff00;fill-opacity:1;stroke:#004000;stroke-opacity:1;stroke-dasharray:none"><g
         id="g2010"><path
           style="fill:#808080;fill-opacity:1;stroke:none;stroke-width:2.17806;stroke-linecap:round;stroke-linejoin:round;stroke-dasharray:none;stroke-opacity:1"
           d="m 29.999085,83.637867 c -0.712347,0 -1.372539,0.599497 -1.440695,1.30882 -0.03795,0.39491 -0.02691,0.417097 0.453762,0.975589 1.381125,1.6047 7.675578,7.963462 8.627154,8.71507 0.540169,0.426657 0.833843,0.444226 0.928795,0.0553 0.03336,-0.136627 0.103103,-0.845307 0.154562,-1.573988 l 0.09359,-1.324418 -3.710924,-3.688236 c -2.040513,-2.028169 -3.946434,-3.863388 -4.235587,-4.078188 -0.429306,-0.318914 -0.588928,-0.389951 -0.870656,-0.389951 z"
           id="path1995" /><path
           style="fill:#ffffff;fill-opacity:1;stroke:none;stroke-width:2.17806;stroke-linecap:round;stroke-linejoin:round;stroke-dasharray:none;stroke-opacity:1"
           d="m 26.11091,82.755866 c -0.04876,-0.05985 -0.320357,0.05649 -1.081939,0.42682 -1.064216,0.517486 -1.831234,1.033872 -2.630403,1.769673 -0.942234,0.867522 -1.206752,1.407777 -0.964244,1.972447 0.430464,1.002319 1.153791,1.253846 2.138354,0.743036 0.230103,-0.119381 0.785254,-0.49858 1.233666,-0.842296 l 0.815354,-0.623923 0.03687,-1.137242 c 0.03552,-1.101592 0.08078,-1.328914 0.436746,-2.192238 0.02314,-0.05614 0.03185,-0.09633 0.0156,-0.116277 z"
           id="path1993" /><path
           style="fill:#ffffff;fill-opacity:1;stroke:none;stroke-width:2.17806;stroke-linecap:round;stroke-linejoin:round;stroke-dasharray:none;stroke-opacity:1"
           d="m 47.666033,81.645573 v 1.525775 1.525776 l 0.974171,0.05388 c 0.535125,0.0294 1.065925,0.0669 1.179781,0.08224 0.205545,0.02769 1.026851,0.01024 3.808767,-0.08083 2.686168,-0.08793 5.464998,-0.359926 5.464998,-0.534589 0,-0.03357 -0.139759,-0.155961 -0.310543,-0.270839 -0.170785,-0.114878 -0.813109,-0.678957 -1.427933,-1.253518 l -1.118808,-1.043653 -1.863261,0.06239 c -2.20442,0.07402 -5.38918,0.06902 -6.159822,-0.0099 z"
           id="path1991" /><path
           style="fill:#ffffff;fill-opacity:1;stroke:none;stroke-width:2.17806;stroke-linecap:round;stroke-linejoin:round;stroke-dasharray:none;stroke-opacity:1"
           d="m 37.406753,81.628553 c -1.136187,-0.04409 -3.45033,0.04708 -3.977509,0.155981 l -0.286438,0.05814 1.444949,1.396737 1.444949,1.396736 1.283297,-0.05247 c 0.705909,-0.02911 1.292169,-0.06094 1.303148,-0.0709 0.01098,-0.01 -0.0033,-0.653325 -0.03261,-1.429351 l -0.05388,-1.410917 z"
           id="path1989" /><path
           style="fill:#808080;fill-opacity:1;stroke:none;stroke-width:2.17806;stroke-linecap:round;stroke-linejoin:round;stroke-dasharray:none;stroke-opacity:1"
           d="m 48.550869,65.683066 c -0.03531,0.01223 -0.06042,0.04277 -0.07799,0.08933 -0.02148,0.05693 -0.16373,0.785248 -0.316216,1.617946 l -0.276511,1.513013 4.964442,4.974368 c 5.160896,5.169631 7.248525,7.182372 7.888372,7.606189 0.446028,0.295437 0.744334,0.313322 1.242174,0.07232 0.47379,-0.229357 0.845132,-0.789895 0.845132,-1.274788 0,-0.500131 -0.278101,-0.865389 -2.146862,-2.827505 C 58.560773,75.235764 49.939822,66.660618 49.257036,66.09854 48.859693,65.771439 48.656796,65.646363 48.550869,65.683064 Z"
           id="path1985" /><path
           style="fill:#808080;fill-opacity:1;stroke:none;stroke-width:2.17806;stroke-linecap:round;stroke-linejoin:round;stroke-dasharray:none;stroke-opacity:1"
           d="m 56.990846,53.164901 c -0.713892,0 -1.457711,0.775679 -1.457711,1.520103 0,0.203891 0.100202,0.419416 0.357338,0.76856 0.543728,0.73828 4.43275,4.732048 8.261308,8.483935 3.951536,3.872403 5.203792,5.057786 5.290583,5.004146 0.03397,-0.02099 0.12122,-0.254466 0.194267,-0.517572 0.07305,-0.263105 0.226959,-0.989603 0.34174,-1.61511 l 0.208447,-1.137242 -5.484851,-5.453654 C 57.770332,53.32648 57.594115,53.164901 56.990846,53.164901 Z"
           id="path1979" /><path
           style="fill:#bfbfbf;fill-opacity:1;stroke:none;stroke-width:2.17806;stroke-linecap:round;stroke-linejoin:round;stroke-dasharray:none;stroke-opacity:1"
           d="m 53.342314,51.857499 c -0.09264,-0.09264 -2.716142,1.369562 -4.100876,2.285827 -3.361388,2.2242 -5.878494,6.611107 -6.993609,12.187769 -0.261751,1.309007 -0.504913,3.213021 -0.63385,4.968696 -0.137806,1.876443 -0.13694,7.415605 0.0014,12.89819 0.201374,7.97714 0.01673,11.743509 -0.697659,14.219773 -0.391529,1.357146 -0.877411,2.325966 -1.866097,3.726516 -0.902568,1.27857 -0.83871,2.17366 0.190013,2.68287 0.444433,0.21999 0.853724,0.22095 1.210978,0.003 1.063561,-0.64841 2.385799,-2.78474 3.098345,-5.004145 0.967464,-3.013408 1.193608,-5.821821 1.083357,-13.496589 -0.105692,-7.357438 -0.0897,-14.165038 0.03687,-15.60942 0.638213,-7.282807 2.709892,-11.722534 6.721353,-14.404114 0.569281,-0.380553 1.044641,-0.699294 1.056415,-0.707585 0.01177,-0.0083 0.05827,-0.390853 0.102096,-0.850804 0.09891,-1.038036 0.201278,-1.464944 0.545933,-2.253213 0.149081,-0.340968 0.260145,-0.631781 0.245315,-0.646611 z"
           id="path1977" /><path
           style="fill:#bfbfbf;fill-opacity:1;stroke:none;stroke-width:2.17806;stroke-linecap:round;stroke-linejoin:round;stroke-dasharray:none;stroke-opacity:1"
           d="m 79.381174,49.936099 v 1.531448 1.532865 h 2.875718 2.877136 l -1.530029,-1.532865 -1.53003,-1.531448 h -1.347106 z"
           id="path1975" /><path
           style="fill:#bfbfbf;fill-opacity:1;stroke:none;stroke-width:2.17806;stroke-linecap:round;stroke-linejoin:round;stroke-dasharray:none;stroke-opacity:1"
           d="m 66.297225,49.899229 c -2.873227,0.005 -4.751706,0.113605 -6.822031,0.392788 l -0.737364,0.09926 0.612579,0.472197 c 0.33709,0.259313 0.98527,0.85011 1.440695,1.313074 l 0.828116,0.840878 2.229107,-0.04963 c 1.225661,-0.02775 3.190755,-0.05105 4.367461,-0.05105 h 2.139773 V 51.474633 50.03252 l -0.558695,-0.06948 c -0.307412,-0.03778 -1.882881,-0.06665 -3.499641,-0.06381 z"
           id="path1973" /><path
           style="fill:#bfbfbf;fill-opacity:1;stroke:none;stroke-width:2.17806;stroke-linecap:round;stroke-linejoin:round;stroke-dasharray:none;stroke-opacity:1"
           d="m 95.060076,46.805138 c -0.382558,0.02436 -0.586188,0.08295 -0.752961,0.216955 -0.125733,0.101026 -0.507898,0.378418 -0.849386,0.616833 -0.985092,0.687756 -1.218474,0.949092 -1.277625,1.430769 -0.112125,0.913051 -0.311099,1.683624 -0.585636,2.261721 -0.159197,0.335222 -0.289274,0.624313 -0.289274,0.642357 0,0.06347 0.140957,0.03043 0.709004,-0.163071 1.340628,-0.456684 3.053536,-1.507275 3.909445,-2.399267 0.833426,-0.868563 0.933546,-1.337482 0.432492,-2.029168 -0.348083,-0.480513 -0.656305,-0.617866 -1.296059,-0.577129 z"
           id="path1971" /><path
           style="fill:#808080;fill-opacity:1;stroke:none;stroke-width:2.17806;stroke-linecap:round;stroke-linejoin:round;stroke-dasharray:none;stroke-opacity:1"
           d="m 79.62649,39.234399 c -0.01535,0.0099 -0.02329,0.02943 -0.02978,0.0553 -0.104484,0.416296 -0.211989,1.830275 -0.214119,2.821833 l -0.0014,0.994023 2.71123,2.697049 c 3.132023,3.114005 4.089001,4.019309 4.781519,4.529114 0.466188,0.343191 0.524524,0.365104 0.925958,0.331814 0.304832,-0.02528 0.517821,-0.102715 0.734528,-0.268004 0.353453,-0.269592 0.612813,-0.784287 0.615415,-1.218067 0.0014,-0.228915 -0.07649,-0.403182 -0.32047,-0.71184 -0.545891,-0.69058 -2.994292,-3.228149 -6.158421,-6.383864 -2.48999,-2.483367 -2.937028,-2.916604 -3.04446,-2.847358 z"
           id="path1969" /><path
           style="fill:#ffffff;fill-opacity:1;stroke:none;stroke-width:2.17806;stroke-linecap:round;stroke-linejoin:round;stroke-dasharray:none;stroke-opacity:1"
           d="m 78.181541,29.732335 c -0.443954,0 -0.859608,0.25348 -1.460547,0.890509 -0.930941,0.986846 -1.621126,2.266881 -2.260303,4.1973 -1.014845,3.065001 -1.329535,7.096414 -1.13157,14.494866 0.322117,12.038395 0.164799,15.826415 -0.823862,19.874785 -1.025629,4.199741 -3.099489,7.42364 -5.941449,9.236896 l -0.833788,0.533171 0.04679,0.951482 c 0.04466,0.919208 -0.05181,1.562549 -0.351666,2.339712 -0.09531,0.247015 0.276298,0.173599 0.996859,-0.195685 0.857861,-0.43965 2.409879,-1.45882 3.146557,-2.066036 3.199562,-2.637279 5.438589,-7.071847 6.372523,-12.623097 0.308159,-1.831689 0.448339,-3.357013 0.558694,-6.073324 0.09855,-2.425751 0.06728,-4.748544 -0.18434,-13.634136 -0.08566,-3.024882 0.0026,-6.52222 0.208447,-8.268398 0.343453,-2.913233 0.964095,-4.713812 2.281573,-6.617838 0.674161,-0.974302 0.880079,-1.531769 0.747289,-2.024914 -0.143547,-0.533095 -0.794693,-1.015293 -1.371212,-1.015293 z"
           id="path1967" /><path
           style="fill:#000000;stroke-width:0.180353"
           d="m 38.558193,107.76866 c -1.520872,-0.40021 -2.672596,-1.55364 -3.019077,-3.02354 -0.06878,-0.29179 -0.125603,-0.84874 -0.126277,-1.23767 -0.0022,-1.26897 0.343169,-2.13953 1.277992,-3.22144 0.292928,-0.339016 0.554538,-0.703813 0.581353,-0.810657 0.07775,-0.309764 -0.212821,-0.834283 -0.883752,-1.595315 -0.70678,-0.801692 -7.775975,-7.823391 -8.612536,-8.554669 -0.542318,-0.474065 -0.553962,-0.479364 -0.783932,-0.35675 -0.12839,0.06845 -0.587427,0.407078 -1.020082,0.752497 -1.179366,0.941572 -1.855959,1.204864 -3.088549,1.201892 -2.59196,-0.0062 -4.25938,-1.547422 -4.415984,-4.081628 -0.119698,-1.936988 0.457239,-3.030737 2.461348,-4.666192 3.040474,-2.481182 5.948926,-3.235747 13.033837,-3.381485 1.229649,-0.02529 2.724548,-0.06717 3.321998,-0.09307 l 1.086273,-0.04708 0.0556,-2.496942 c 0.08485,-3.810545 0.274975,-6.498295 0.627648,-8.872901 1.154433,-7.772993 4.379296,-13.203643 9.822177,-16.540487 3.022203,-1.85281 7.07121,-3.106274 11.551769,-3.576116 1.468896,-0.154033 5.156864,-0.292242 7.836371,-0.293675 1.550561,-8.28e-4 2.008045,-0.02465 2.008152,-0.104579 0.001,-0.764543 0.186982,-5.553734 0.253205,-6.520868 0.393182,-5.742137 1.59061,-9.196384 4.103252,-11.836741 1.159723,-1.218671 2.048254,-1.655517 3.37369,-1.658674 1.667452,-0.004 3.074812,0.700744 3.908876,1.957315 0.461627,0.695471 0.615931,1.284216 0.615931,2.350083 0,1.592703 -0.161711,2.018847 -1.336357,3.521598 l -0.763399,0.976635 5.149308,5.118848 c 2.832119,2.815367 5.198558,5.118849 5.258752,5.118849 0.06019,0 0.538657,-0.327724 1.063251,-0.728275 0.524595,-0.400551 1.17374,-0.82664 1.442546,-0.946863 1.648532,-0.737308 3.769057,-0.377558 4.993825,0.84721 1.230516,1.230516 1.619073,3.677082 0.830377,5.228498 -0.798714,1.57112 -3.376351,3.478588 -5.903294,4.368475 -2.632108,0.926922 -5.524963,1.283798 -11.860493,1.463166 l -1.912128,0.05414 -0.05228,3.654823 c -0.06656,4.65253 -0.168548,6.121732 -0.600598,8.651668 -1.342529,7.861413 -5.12913,13.381901 -11.283328,16.449972 -4.032119,2.010145 -8.913158,2.938475 -15.455483,2.939495 -1.184884,1.65e-4 -2.623622,0.02427 -3.197196,0.05353 l -1.042862,0.05319 -0.05277,1.913084 c -0.125536,4.551216 -0.560518,8.07065 -1.308793,10.589439 -1.124242,3.78434 -3.263269,6.8032 -5.235401,7.38887 -0.534684,0.15878 -2.087173,0.15438 -2.702958,-0.008 z m 1.894086,-2.93837 c 1.063562,-0.64841 2.386767,-2.78493 3.099314,-5.004342 0.967465,-3.013411 1.19275,-5.822385 1.082499,-13.497161 -0.105692,-7.357445 -0.08954,-14.164297 0.03703,-15.608681 0.638213,-7.282814 2.710327,-11.723414 6.721792,-14.404997 0.569282,-0.380554 1.044692,-0.6987 1.056466,-0.706991 0.01177,-0.0083 0.05726,-0.391401 0.101088,-0.851353 0.09891,-1.038037 0.202437,-1.46432 0.547092,-2.25259 0.149081,-0.340968 0.258922,-0.632074 0.244092,-0.646904 -0.09264,-0.09264 -2.715279,1.369455 -4.100014,2.285721 -3.361392,2.224203 -5.879204,6.6118 -6.994321,12.188467 -0.261751,1.309009 -0.504424,3.212603 -0.633361,4.96828 -0.137807,1.876445 -0.137359,7.415593 10e-4,12.898184 0.201374,7.977148 0.01651,11.744079 -0.697879,14.220346 -0.391529,1.357147 -0.876258,2.325651 -1.864945,3.726211 -0.902569,1.27857 -0.839433,2.17329 0.189291,2.6825 0.444433,0.21999 0.853557,0.22111 1.210811,0.003 z m -1.88441,-10.138232 c 0.03336,-0.136627 0.102751,-0.844607 0.154211,-1.573288 l 0.09356,-1.324875 -3.710027,-3.687584 c -2.040515,-2.028171 -3.946609,-3.86333 -4.235762,-4.07813 -0.429307,-0.318915 -0.589013,-0.390546 -0.870741,-0.390546 -0.712348,0 -1.371863,0.599367 -1.440019,1.308691 -0.03795,0.394911 -0.02735,0.417722 0.453328,0.976214 1.381126,1.604702 7.675469,7.962747 8.627046,8.714356 0.540169,0.426658 0.833448,0.444084 0.9284,0.05516 z M 23.573005,87.668107 c 0.230103,-0.119381 0.785252,-0.49828 1.233664,-0.841996 l 0.815295,-0.624939 0.03665,-1.13686 c 0.03552,-1.101594 0.08088,-1.329295 0.436846,-2.19262 0.09258,-0.224545 -0.05042,-0.182827 -1.065864,0.310945 -1.064217,0.517486 -1.832358,1.034127 -2.631527,1.769929 -0.942235,0.867523 -1.20629,1.407988 -0.963782,1.972659 0.430465,1.00232 1.154152,1.253692 2.138716,0.742882 z m 30.055639,-2.916354 c 2.686171,-0.08793 5.465109,-0.359592 5.465109,-0.534255 0,-0.03357 -0.139733,-0.155019 -0.310518,-0.269897 -0.170785,-0.114878 -0.813556,-0.678965 -1.428381,-1.253527 l -1.117863,-1.044657 -1.863105,0.06256 c -2.204422,0.07402 -5.389573,0.06873 -6.160215,-0.01022 l -0.546964,-0.05604 v 1.526024 1.526023 l 0.972955,0.05345 c 0.535126,0.0294 1.066111,0.066 1.179967,0.08134 0.205545,0.02769 1.027097,0.01027 3.809015,-0.0808 z M 38.619557,84.512866 c 0.01098,-0.01 -0.004,-0.653035 -0.03331,-1.429062 l -0.05327,-1.410957 -1.125957,-0.04369 c -1.136188,-0.04409 -3.451049,0.04612 -3.978229,0.15502 l -0.285328,0.05894 1.444594,1.396851 1.444594,1.396851 1.283472,-0.05293 c 0.70591,-0.02911 1.292455,-0.06107 1.303434,-0.07103 z m 27.802409,-2.457148 c 0.857862,-0.43965 2.409899,-1.458612 3.146578,-2.065829 3.199565,-2.637281 5.438229,-7.072116 6.372164,-12.623372 0.30816,-1.831691 0.448512,-3.356893 0.558868,-6.073206 0.09855,-2.425754 0.06712,-4.748704 -0.184503,-13.634305 -0.08566,-3.024885 0.0025,-6.522806 0.208338,-8.268986 0.343454,-2.913236 0.963993,-4.713008 2.281472,-6.617036 0.674162,-0.974303 0.880217,-1.532838 0.747427,-2.025983 -0.143547,-0.533096 -0.794746,-1.015206 -1.371266,-1.015206 -0.443954,0 -0.859597,0.253399 -1.460537,0.890428 -0.930941,0.986847 -1.620285,2.267642 -2.259463,4.198063 -1.014846,3.065004 -1.329574,7.096353 -1.131609,14.494813 0.322117,12.038407 0.165166,15.826337 -0.823496,19.874711 -1.02563,4.199746 -3.099634,7.424232 -5.941597,9.23749 l -0.833615,0.531871 0.04627,0.952254 c 0.04466,0.919208 -0.05204,1.562068 -0.351898,2.339232 -0.09531,0.247015 0.276306,0.174346 0.996867,-0.194939 z m -4.446802,-0.500133 c 0.47379,-0.229358 0.844799,-0.788662 0.844799,-1.273555 0,-0.500132 -0.278135,-0.866599 -2.146898,-2.828717 -2.112639,-2.218177 -10.733881,-10.792636 -11.416667,-11.354715 -0.529792,-0.436134 -0.712706,-0.512307 -0.782984,-0.326071 -0.02148,0.05693 -0.163821,0.784805 -0.316307,1.617504 l -0.277246,1.513998 4.96521,4.973612 c 5.160901,5.169636 7.248367,7.182503 7.888215,7.606321 0.446028,0.295437 0.744037,0.312624 1.241878,0.07162 z m -8.677739,-2.877126 c 0,-0.127715 -5.564127,-5.565397 -5.661841,-5.533175 -0.05563,0.01834 -0.114158,0.361222 -0.145461,0.852174 -0.07203,1.129721 -0.08442,4.631704 -0.01663,4.699498 0.08451,0.08451 5.823928,0.06628 5.823928,-0.0185 z m 11.276424,-2.513945 c 1.001568,-0.590604 2.807759,-2.425806 3.407166,-3.461892 l 0.218347,-0.377417 -7.074468,-7.064396 -7.074468,-7.064395 -0.480006,0.270309 c -1.350152,0.76032 -3.118149,2.596986 -3.585129,3.724375 l -0.109084,0.263353 7.030627,7.030991 c 3.866845,3.867046 7.039534,7.030991 7.050421,7.030991 0.01089,0 0.288355,-0.158364 0.616594,-0.351919 z m 5.063021,-7.739991 c 0.07305,-0.263105 0.226725,-0.990152 0.341506,-1.61566 l 0.208695,-1.137286 -5.484555,-5.45287 c -6.931642,-6.891594 -7.108323,-7.053191 -7.711593,-7.053191 -0.713893,0 -1.457771,0.775693 -1.457771,1.520118 0,0.203891 0.10023,0.419459 0.357366,0.768603 0.543729,0.738281 4.432241,4.731632 8.260802,8.483523 3.95154,3.872407 5.204186,5.056947 5.290977,5.003307 0.03397,-0.02099 0.121526,-0.253438 0.194573,-0.516544 z m 0.855874,-7.457668 c 0.0543,-0.216373 -0.01059,-2.71569 -0.1085,-4.178634 l -0.05403,-0.807346 -2.864974,0.0023 -2.864973,0.0023 2.413061,2.395162 c 2.873868,2.852551 3.327875,3.190008 3.479419,2.586208 z M 68.21572,52.917102 h 2.139469 v -1.442491 -1.44249 l -0.558932,-0.06869 c -0.307412,-0.03778 -1.881736,-0.06638 -3.498498,-0.06354 -2.87323,0.005 -4.752914,0.113099 -6.823241,0.392282 l -0.7371,0.0994 0.612893,0.471481 c 0.33709,0.259314 0.985512,0.85027 1.440938,1.313235 l 0.828046,0.841755 2.228479,-0.05047 c 1.225662,-0.02775 3.191238,-0.05046 4.367946,-0.05046 z m 15.388217,-1.449081 -1.530208,-1.531887 h -1.346415 -1.346416 v 1.531887 1.531886 h 2.876623 2.876624 z m 8.410872,0.342891 c 1.34063,-0.456685 3.052593,-1.507831 3.908502,-2.399824 0.833427,-0.868564 0.933315,-1.337465 0.43226,-2.029152 -0.348083,-0.480513 -0.655488,-0.617369 -1.295242,-0.576632 -0.382559,0.02436 -0.586223,0.08307 -0.752996,0.217075 -0.125733,0.101026 -0.508005,0.378752 -0.849494,0.617167 -0.985093,0.687757 -1.218132,0.948734 -1.277283,1.430412 -0.112126,0.913052 -0.311799,1.683086 -0.586337,2.261184 -0.159197,0.335222 -0.289448,0.624257 -0.289448,0.642301 0,0.06347 0.141991,0.03097 0.710038,-0.162531 z m -3.480954,-1.416056 c 0.353454,-0.269593 0.613574,-0.783448 0.616176,-1.217229 0.0014,-0.228915 -0.07723,-0.403085 -0.32121,-0.711743 -0.545875,-0.690584 -2.994156,-3.228809 -6.158288,-6.384527 -2.845706,-2.838137 -3.021891,-2.998118 -3.073843,-2.791123 -0.104485,0.416297 -0.211525,1.82977 -0.213655,2.821329 l -0.0021,0.994127 2.711853,2.696251 c 3.132027,3.114008 4.08837,4.020158 4.780888,4.529964 0.466189,0.343191 0.525226,0.364278 0.926661,0.330988 0.304832,-0.02528 0.516848,-0.102748 0.733555,-0.268037 z"
           id="path1895" /></g></g></g><g
     inkscape:groupmode="layer"
     id="layer3"
     inkscape:label="FG" /></svg>
