<?xml version="1.0" encoding="UTF-8" standalone="no"?>
<!-- Created with Inkscape (http://www.inkscape.org/) -->

<svg
   width="128"
   height="128"
   viewBox="0 0 1 1"
   version="1.1"
   id="svg5"
   inkscape:version="1.2.1 (9c6d41e410, 2022-07-14)"
   sodipodi:docname="Icon-Farril.svg"
   inkscape:export-filename="..\DPXP_ExoAdaptation\Textures\UI\Xenotypes\Farril.png"
   inkscape:export-xdpi="96"
   inkscape:export-ydpi="96"
   xmlns:inkscape="http://www.inkscape.org/namespaces/inkscape"
   xmlns:sodipodi="http://sodipodi.sourceforge.net/DTD/sodipodi-0.dtd"
   xmlns="http://www.w3.org/2000/svg"
   xmlns:svg="http://www.w3.org/2000/svg">
  <sodipodi:namedview
     id="namedview7"
     pagecolor="#ffffff"
     bordercolor="#666666"
     borderopacity="1.0"
     inkscape:showpageshadow="2"
     inkscape:pageopacity="0.0"
     inkscape:pagecheckerboard="0"
     inkscape:deskcolor="#d1d1d1"
     inkscape:document-units="px"
     showgrid="true"
     inkscape:zoom="3.3638608"
     inkscape:cx="160.97575"
     inkscape:cy="98.993395"
     inkscape:window-width="1680"
     inkscape:window-height="987"
     inkscape:window-x="-8"
     inkscape:window-y="-8"
     inkscape:window-maximized="1"
     inkscape:current-layer="text298">
    <inkscape:grid
       type="xygrid"
       id="grid132"
       empspacing="8" />
  </sodipodi:namedview>
  <defs
     id="defs2" />
  <g
     inkscape:label="BG"
     inkscape:groupmode="layer"
     id="layer1" />
  <g
     inkscape:groupmode="layer"
     id="layer2"
     inkscape:label="Main">
    <g
       aria-label="?"
       transform="matrix(0.01076073,0,0,0.01076073,-0.13589189,-0.22446739)"
       id="text298"
       style="font-size:96px;line-height:1;font-family:'Comic Sans MS';-inkscape-font-specification:'Comic Sans MS';letter-spacing:0px;word-spacing:0px;baseline-shift:baseline;opacity:1;stroke-width:2.17805855;stop-color:#000000;stop-opacity:1;fill:#00ff00;fill-opacity:1;stroke:#004000;stroke-opacity:1;stroke-dasharray:none">
      <path
         style="fill:#ffffff;fill-opacity:1;stroke:#404040;stroke-width:2.17806;stroke-dasharray:none;stroke-opacity:1"
         d="m 64.698141,67.298704 c -0.427468,-1.5348 -1.006469,-3.090184 -1.869743,-5.022705 -0.437607,-0.979633 -1.095382,-2.46554 -1.461739,-3.302038 l -0.666075,-1.52088 0.571536,-1.232075 c 1.399889,-3.017718 2.817453,-5.366738 4.522859,-7.494683 0.865148,-1.079516 1.81078,-2.076819 1.904735,-2.008822 0.05056,0.03664 0.06335,0.02272 0.03297,-0.0356 -0.05101,-0.09781 0.837545,-1.008833 0.974216,-0.998847 0.03985,0.0029 0.0712,-0.02453 0.0696,-0.06108 -0.0073,-0.17195 2.405433,-2.101056 2.522097,-2.016612 0.05008,0.03624 0.06601,0.02537 0.03904,-0.0266 -0.0806,-0.154606 2.367111,-1.778224 2.517128,-1.669657 0.04849,0.03509 0.06625,0.02552 0.0413,-0.02219 -0.05668,-0.108691 0.833365,-0.611453 0.94258,-0.532413 0.048,0.03478 0.06405,0.02355 0.038,-0.02644 -0.04048,-0.07753 0.815111,-0.558673 1.910348,-1.0744 0.5063,-0.238401 2.726393,-1.152472 3.095806,-1.274617 0.28672,-0.09485 0.259649,-0.0578 -0.498541,0.681296 -4.605893,4.489974 -7.969951,10.273899 -9.420649,16.19724 -0.481966,1.967868 -0.702582,3.366448 -0.861022,5.458339 l -0.146955,1.941282 -0.449697,0.367076 c -0.856662,0.699278 -2.303288,2.569949 -3.094689,4.001797 -0.198901,0.359875 -0.379269,0.653975 -0.400808,0.653538 -0.02158,-2.73e-4 -0.162003,-0.441768 -0.312131,-0.980779 z"
         id="path14872" />
      <path
         style="fill:#ffffff;fill-opacity:1;stroke:#404040;stroke-width:2.17806;stroke-dasharray:none;stroke-opacity:1"
         d="m 68.881332,86.516583 c -0.103899,-1.93256 0.06367,-5.592135 0.364507,-7.961954 0.204474,-1.610643 0.715038,-4.191652 0.928756,-4.695011 0.550227,-1.295879 1.54047,-3.311401 2.121324,-4.317691 2.925367,-5.068025 6.517901,-8.408543 10.281872,-9.560595 1.255199,-0.384203 2.060792,-0.506981 3.325631,-0.506917 1.151538,7.8e-5 2.056306,0.100668 2.79478,0.310922 l 0.40815,0.116132 -0.682027,0.546578 c -3.896134,3.122368 -6.986483,7.075167 -9.152404,11.706641 -1.10637,2.365784 -2.091458,5.474849 -2.497018,7.880836 l -0.144113,0.854936 -3.814436,3.351012 c -2.097927,1.843051 -3.828552,3.351013 -3.845811,3.351013 -0.01722,0 -0.05749,-0.484179 -0.0892,-1.07595 z"
         id="path14870" />
      <path
         style="fill:#ffffff;fill-opacity:1;stroke-width:2.17805855;stroke:#404040;stroke-opacity:1;stroke-dasharray:none"
         d="m 42.639683,63.803493 c 0,-0.06266 -0.0299,-0.09539 -0.06651,-0.07283 -0.03661,0.02255 -0.04627,0.07386 -0.02139,0.113948 0.06329,0.102354 0.08792,0.09087 0.08792,-0.04112 z"
         id="path14868" />
      <path
         style="fill:#ffffff;fill-opacity:1;stroke-width:2.17805855;stroke:#404040;stroke-opacity:1;stroke-dasharray:none"
         d="M 57.924562,93.864146 C 57.37368,93.349433 42.976075,80.722089 42.729386,80.537285 c -0.520632,-0.38999 -1.379422,-1.229407 -1.346242,-1.315861 0.01985,-0.05182 -0.05492,-0.567331 -0.166058,-1.145632 -0.977287,-5.082539 -3.271467,-10.021017 -6.577311,-14.158363 -1.002592,-1.254787 -3.55438,-3.822428 -4.78265,-4.812387 -0.693927,-0.559289 -0.844973,-0.714989 -0.733782,-0.756417 0.07695,-0.02874 0.523402,-0.11615 0.992008,-0.194292 1.108277,-0.184883 2.996289,-0.186792 3.982009,-0.0039 0.795214,0.147433 2.083643,0.52308 2.039495,0.594606 -0.01598,0.0259 0.05078,0.05195 0.148321,0.05776 0.581253,0.0348 3.81985,1.994781 3.67726,2.225488 -0.02397,0.03879 0.0091,0.05026 0.07334,0.02566 0.16224,-0.06227 2.595963,2.337541 2.510618,2.475632 -0.03764,0.06085 -0.02978,0.07967 0.02024,0.04886 0.09449,-0.0584 1.082355,1.167727 1.066862,1.324096 -0.0064,0.05749 0.0259,0.09706 0.07025,0.08805 0.09912,-0.02036 1.142062,1.480968 1.836787,2.644003 0.565269,0.946326 1.47246,2.708312 1.772697,3.443009 0.221232,0.54137 0.219195,0.544283 0.434408,-0.625996 0.424651,-2.309246 0.507586,-3.301101 0.510372,-6.103522 0.0027,-2.782199 -0.03558,-3.313232 -0.395405,-5.475597 -1.037408,-6.234075 -3.992024,-12.243501 -8.47195,-17.23122 -0.393586,-0.438328 -0.715619,-0.817168 -0.715619,-0.841967 0,-0.02475 0.06161,-0.01154 0.136941,0.02926 0.07528,0.04087 0.577102,0.280271 1.115069,0.531962 1.62182,0.758762 2.586475,1.281146 2.531138,1.37068 -0.02952,0.04769 -0.01438,0.06021 0.03571,0.02926 0.118848,-0.07347 0.967878,0.414016 0.903209,0.518645 -0.0308,0.04989 -0.01385,0.05967 0.04305,0.02463 0.198572,-0.122719 4.230593,2.788849 4.17309,3.013459 -0.01154,0.04627 0.0078,0.0656 0.04472,0.04305 0.09229,-0.0571 1.122857,0.886516 1.067003,0.976888 -0.025,0.04048 -3.85e-4,0.06381 0.05465,0.05195 0.05504,-0.01154 0.101698,0.03132 0.103633,0.09577 0.0027,0.06445 0.06097,0.117304 0.131259,0.117304 0.181106,1.55e-4 0.564291,0.401951 0.493138,0.517087 -0.03571,0.05774 -0.02514,0.07359 0.02745,0.04112 0.105053,-0.06496 0.496385,0.340389 0.430915,0.446319 -0.02578,0.0419 -0.01154,0.05452 0.03068,0.02811 0.103509,-0.06406 0.665361,0.517189 0.635289,0.65724 -0.01296,0.06045 0.01669,0.102355 0.06599,0.09307 0.133159,-0.025 1.065393,1.133492 0.998815,1.241226 -0.03313,0.05362 -0.02217,0.06986 0.02681,0.0397 0.111498,-0.06896 0.908984,1.0128 0.834943,1.1326 -0.03325,0.05374 -0.0236,0.07167 0.02308,0.04279 0.144344,-0.0892 1.17903,1.539657 2.180771,3.43307 0.472796,0.893645 0.51603,1.012181 0.423465,1.160855 -0.09268,0.148925 -0.09035,0.155085 0.02308,0.06136 0.109954,-0.09087 0.140633,-0.07077 0.238517,0.156505 0.06175,0.143439 0.2949,0.683331 0.518028,1.199785 1.607124,3.7199 2.835434,8.651702 3.361827,13.498158 0.309723,2.851443 0.358241,3.883217 0.35694,7.59028 -0.0013,4.117676 -0.129448,6.305796 -0.590496,10.09427 -0.197514,1.622979 -0.685405,4.846767 -0.760348,5.024019 -0.04808,0.1137 -0.108409,0.08481 -0.408513,-0.19562 z"
         id="path7046" />
    </g>
  </g>
  <g
     inkscape:groupmode="layer"
     id="layer3"
     inkscape:label="FG" />
</svg>
