<?xml version="1.0" encoding="UTF-8" standalone="no"?>
<!-- Created with Inkscape (http://www.inkscape.org/) -->

<svg
   width="128"
   height="128"
   viewBox="0 0 1 1"
   version="1.1"
   id="svg5"
   inkscape:version="1.2.1 (9c6d41e410, 2022-07-14)"
   sodipodi:docname="Icon-GeneCity.svg"
   inkscape:export-filename="..\DPXP_GeneCity\Textures\UI\Factions\GeneCity.png"
   inkscape:export-xdpi="96"
   inkscape:export-ydpi="96"
   xml:space="preserve"
   xmlns:inkscape="http://www.inkscape.org/namespaces/inkscape"
   xmlns:sodipodi="http://sodipodi.sourceforge.net/DTD/sodipodi-0.dtd"
   xmlns="http://www.w3.org/2000/svg"
   xmlns:svg="http://www.w3.org/2000/svg"><sodipodi:namedview
     id="namedview7"
     pagecolor="#ffffff"
     bordercolor="#666666"
     borderopacity="1.0"
     inkscape:showpageshadow="2"
     inkscape:pageopacity="0.0"
     inkscape:pagecheckerboard="0"
     inkscape:deskcolor="#d1d1d1"
     inkscape:document-units="px"
     showgrid="true"
     inkscape:zoom="2.3786088"
     inkscape:cx="57.596693"
     inkscape:cy="71.049935"
     inkscape:window-width="1680"
     inkscape:window-height="987"
     inkscape:window-x="-8"
     inkscape:window-y="-8"
     inkscape:window-maximized="1"
     inkscape:current-layer="g2010"><inkscape:grid
       type="xygrid"
       id="grid132"
       empspacing="8" /></sodipodi:namedview><defs
     id="defs2" /><g
     inkscape:label="BG"
     inkscape:groupmode="layer"
     id="layer1" /><g
     inkscape:groupmode="layer"
     id="layer2"
     inkscape:label="Main"><g
       aria-label="?"
       transform="matrix(0.01076073,0,0,0.01076073,-0.13589189,-0.22446739)"
       id="text298"
       style="font-size:96px;line-height:1;font-family:'Comic Sans MS';-inkscape-font-specification:'Comic Sans MS';letter-spacing:0px;word-spacing:0px;baseline-shift:baseline;opacity:1;stroke-width:2.17805855;stop-color:#000000;stop-opacity:1;fill:#00ff00;fill-opacity:1;stroke:#004000;stroke-opacity:1;stroke-dasharray:none"><g
         id="g2010"><path
           style="fill:#808080;fill-opacity:1;stroke:none;stroke-width:2.17806;stroke-linecap:round;stroke-linejoin:round;stroke-dasharray:none;stroke-opacity:1"
           d="m 68.030178,99.376039 c 0.503705,0.503706 0.546623,1.394441 0.09325,1.944201 -0.252409,0.30608 -0.275904,0.31396 -1.010704,0.36899 -2.111297,0.15809 -11.058471,0.20356 -12.262804,0.0622 -0.68365,-0.0803 -0.903732,-0.2755 -0.695861,-0.61765 0.07302,-0.1202 0.524818,-0.67063 1.003686,-1.22227 l 0.870327,-1.002723 5.231996,0.01604 c 2.876993,0.0087 5.522378,0.05872 5.878727,0.111297 0.529071,0.07806 0.692172,0.140698 0.891384,0.33991 z"
           id="path1995" /><path
           style="fill:#ffffff;fill-opacity:1;stroke:none;stroke-width:2.17806;stroke-linecap:round;stroke-linejoin:round;stroke-dasharray:none;stroke-opacity:1"
           d="m 71.403202,101.50173 c 0.0768,-0.008 0.186582,0.26647 0.463239,1.06685 0.386596,1.11843 0.56382,2.02593 0.608628,3.11132 0.05283,1.27969 -0.142146,1.84875 -0.712907,2.07656 -1.013131,0.40436 -1.702457,0.0707 -2.037451,-0.98664 -0.07829,-0.24712 -0.202709,-0.90781 -0.27674,-1.46793 l -0.135362,-1.01772 0.77808,-0.83022 c 0.753827,-0.80406 0.882564,-0.99681 1.24132,-1.85898 0.02334,-0.0561 0.04559,-0.0906 0.07119,-0.0932 z"
           id="path1993" /><path
           style="fill:#ffffff;fill-opacity:1;stroke:none;stroke-width:2.17806;stroke-linecap:round;stroke-linejoin:round;stroke-dasharray:none;stroke-opacity:1"
           d="m 56.946524,85.474856 -1.078886,1.078886 -1.078887,1.078886 -0.726941,-0.650744 c -0.39918,-0.357601 -0.801029,-0.706417 -0.892384,-0.776078 -0.164922,-0.125763 -0.733334,-0.718853 -2.63605,-2.750361 -1.837231,-1.961583 -3.609831,-4.118843 -3.486325,-4.242348 0.02374,-0.02374 0.209105,-0.01146 0.411099,0.02808 0.201994,0.03953 1.05505,0.09486 1.896072,0.12333 l 1.529091,0.05314 1.273408,1.361641 c 1.50642,1.611101 3.761921,3.85953 4.362652,4.348652 z"
           id="path1991" /><path
           style="fill:#ffffff;fill-opacity:1;stroke:none;stroke-width:2.17806;stroke-linecap:round;stroke-linejoin:round;stroke-dasharray:none;stroke-opacity:1"
           d="m 64.212965,92.717228 c 0.834582,0.772229 2.406461,2.473042 2.702229,2.922818 l 0.161431,0.243654 -2.009376,-0.03409 -2.009375,-0.03409 -0.870326,-0.94453 c -0.478569,-0.519737 -0.87061,-0.956792 -0.871331,-0.971599 -6.93e-4,-0.01484 0.464304,-0.459637 1.033763,-0.987645 l 1.035768,-0.95957 z"
           id="path1989" /><path
           style="fill:#808080;fill-opacity:1;stroke:none;stroke-width:2.17806;stroke-linecap:round;stroke-linejoin:round;stroke-dasharray:none;stroke-opacity:1"
           d="m 67.608047,73.561986 c 0.01632,0.03361 0.01248,0.07297 -0.008,0.118313 -0.02507,0.05544 -0.43948,0.671028 -0.920463,1.367659 l -0.874338,1.265384 -7.0278,0.007 c -7.304786,0.0062 -10.204186,-0.04678 -10.95631,-0.199534 -0.524294,-0.106483 -0.747875,-0.304771 -0.929487,-0.827211 -0.17284,-0.4972 -0.03906,-1.156139 0.303812,-1.49901 0.353647,-0.353646 0.80857,-0.415275 3.517409,-0.481287 3.062347,-0.07463 15.221823,-0.04224 16.102075,0.04312 0.512259,0.04967 0.744171,0.104696 0.793122,0.205549 z"
           id="path1985" /><path
           style="fill:#808080;fill-opacity:1;stroke:none;stroke-width:2.17806;stroke-linecap:round;stroke-linejoin:round;stroke-dasharray:none;stroke-opacity:1"
           d="m 70.491762,58.742341 c 0.504797,0.504798 0.482269,1.579245 -0.04412,2.105633 -0.144173,0.144172 -0.367426,0.225718 -0.79613,0.290778 -0.906517,0.137569 -6.480491,0.211635 -11.840675,0.157421 -5.532361,-0.05596 -7.256032,-0.103242 -7.279473,-0.202542 -0.0092,-0.03886 0.09422,-0.26565 0.228611,-0.503346 0.134389,-0.237698 0.539271,-0.860239 0.900409,-1.383702 l 0.656757,-0.951546 7.734691,0.02206 c 9.774494,0.02832 10.013352,0.03867 10.439928,0.465244 z"
           id="path1979" /><path
           style="fill:#ffffff;fill-opacity:1;stroke:none;stroke-width:2.17806;stroke-linecap:round;stroke-linejoin:round;stroke-dasharray:none;stroke-opacity:1"
           d="m 73.996136,60.39777 c 0.131013,0 0.952176,2.889029 1.283434,4.516081 0.804113,3.949607 -0.518036,8.831482 -3.672826,13.563283 -0.740522,1.110693 -1.914922,2.628976 -3.065199,3.961598 -1.229402,1.424289 -5.146794,5.340456 -9.121388,9.119407 -5.783082,5.498297 -8.315745,8.292085 -9.561578,10.548221 -0.682795,1.2365 -1.024283,2.26513 -1.315515,3.95457 -0.265874,1.5423 -0.943952,2.13007 -2.031435,1.76272 -0.469818,-0.15871 -0.759909,-0.44744 -0.858412,-0.85417 -0.293556,-1.21055 0.282094,-3.65613 1.347604,-5.72933 1.446701,-2.814899 3.272641,-4.960655 8.77748,-10.309576 5.27723,-5.127759 10.079622,-9.952767 11.011456,-11.063598 4.698438,-5.601007 6.3729,-10.205266 5.432532,-14.937961 -0.13345,-0.671634 -0.244197,-1.233148 -0.24666,-1.247336 -0.0025,-0.01419 0.235172,-0.317578 0.529417,-0.673802 0.664062,-0.803943 0.893547,-1.178197 1.207229,-1.979296 0.135685,-0.346516 0.262787,-0.630686 0.283759,-0.630686 z"
           id="path1977" /><path
           style="fill:#ffffff;fill-opacity:1;stroke:none;stroke-width:2.17806;stroke-linecap:round;stroke-linejoin:round;stroke-dasharray:none;stroke-opacity:1"
           d="m 56.942517,40.626881 -1.082898,1.082897 -1.083899,1.083899 -2.03344,-2.03344 -2.034442,-2.034442 2.165793,-0.002 2.164792,-0.001 0.952548,0.952548 z"
           id="path1975" /><path
           style="fill:#ffffff;fill-opacity:1;stroke:none;stroke-width:2.17806;stroke-linecap:round;stroke-linejoin:round;stroke-dasharray:none;stroke-opacity:1"
           d="m 66.220337,49.852559 c 2.028142,2.035214 3.279632,3.440294 4.546161,5.101647 l 0.451208,0.591583 -0.767053,-0.09927 c -0.42172,-0.055 -1.297809,-0.09557 -1.947209,-0.09024 l -1.180156,0.009 -1.541123,-1.61131 C 64.935114,52.867673 63.562058,51.461666 62.730001,50.62961 l -1.513048,-1.513048 1.019728,-1.019728 1.019728,-1.019728 0.444187,0.345927 c 0.244087,0.190659 1.378526,1.284269 2.51974,2.429499 z"
           id="path1973" /><path
           style="fill:#ffffff;fill-opacity:1;stroke:none;stroke-width:2.17806;stroke-linecap:round;stroke-linejoin:round;stroke-dasharray:none;stroke-opacity:1"
           d="m 48.069782,27.326299 c 0.253285,0.287734 0.355843,0.473152 0.379014,0.685834 0.01747,0.160343 0.09156,0.62672 0.16444,1.036774 0.210248,1.182882 0.190482,1.5327 -0.108289,1.915123 -0.566341,0.724909 -0.970522,1.410482 -1.185172,2.013386 -0.124468,0.349607 -0.236908,0.646003 -0.249667,0.658762 -0.04488,0.04488 -0.121189,-0.07815 -0.386033,-0.61665 -0.625043,-1.270891 -1.093371,-3.22498 -1.067857,-4.460933 0.02485,-1.203488 0.285626,-1.605859 1.12902,-1.740656 0.585906,-0.09364 0.900975,0.02718 1.324544,0.50836 z"
           id="path1971" /><path
           style="fill:#808080;fill-opacity:1;stroke:none;stroke-width:2.17806;stroke-linecap:round;stroke-linejoin:round;stroke-dasharray:none;stroke-opacity:1"
           d="m 64.336297,32.886171 c 0.0039,0.01786 -0.0043,0.03728 -0.01805,0.06016 -0.220484,0.368247 -1.144301,1.444099 -1.843932,2.146742 l -0.70189,0.703871 -3.824231,-0.01003 c -4.416609,-0.01274 -5.733441,-0.04928 -6.583612,-0.178477 -0.572317,-0.08697 -0.629062,-0.112727 -0.889379,-0.420123 -0.197673,-0.233425 -0.293524,-0.438786 -0.329882,-0.708898 -0.0593,-0.440559 0.12125,-0.987898 0.426139,-1.296467 0.160877,-0.162857 0.339179,-0.231006 0.729953,-0.27674 0.874317,-0.102311 4.399931,-0.165362 8.868735,-0.159413 3.516695,0.0047 4.139143,0.01444 4.166145,0.139372 z"
           id="path1969" /><path
           style="fill:#ffffff;fill-opacity:1;stroke:none;stroke-width:2.17806;stroke-linecap:round;stroke-linejoin:round;stroke-dasharray:none;stroke-opacity:1"
           d="m 72.077004,27.188931 c 0.313923,0.313923 0.428597,0.787072 0.403077,1.662447 -0.03953,1.356081 -0.456617,2.749237 -1.369663,4.566215 -1.449679,2.884887 -4.077799,5.958046 -9.449277,11.049559 -8.740202,8.28466 -11.307496,11.074435 -13.471037,14.636154 -2.244436,3.694894 -3.057637,7.440976 -2.330233,10.73271 l 0.212568,0.966586 -0.705885,0.639714 c -0.681557,0.618399 -1.068254,1.141524 -1.405761,1.903092 -0.107271,0.24206 -0.318125,-0.07262 -0.566515,-0.843256 -0.29572,-0.917479 -0.6725,-2.735583 -0.764044,-3.68586 -0.397594,-4.12727 1.154888,-8.846214 4.419823,-13.431932 1.077299,-1.513101 2.056743,-2.69079 3.899433,-4.689545 1.645579,-1.78495 3.310153,-3.405301 9.771138,-9.510441 2.199485,-2.078344 4.610067,-4.613745 5.699246,-5.994035 1.817109,-2.302825 2.65145,-4.014887 3.066202,-6.292834 0.212232,-1.165639 0.460815,-1.705434 0.903417,-1.960243 0.478459,-0.275452 1.279854,-0.155988 1.687514,0.251672 z"
           id="path1967" /><path
           style="fill:#000000;stroke-width:0.180353"
           d="m 44.914927,110.38688 c 1.35841,0.79243 2.9884,0.79122 4.272776,-0.003 0.254961,-0.15769 0.688964,-0.51134 0.964456,-0.78588 0.898853,-0.89574 1.270219,-1.75553 1.374225,-3.18157 0.03259,-0.44686 0.105553,-0.88979 0.162143,-0.9843 0.164058,-0.27402 0.740414,-0.43944 1.752965,-0.50316 1.06665,-0.0671 11.030417,-0.0335 12.139047,0.0409 0.718691,0.0483 0.730672,0.0528 0.806584,0.30207 0.04238,0.13918 0.127526,0.70322 0.189211,1.2534 0.168146,1.49973 0.460394,2.16433 1.334068,3.0338 1.837176,1.82841 4.106029,1.91764 6.008719,0.23642 1.454296,-1.28501 1.819738,-2.46637 1.55906,-5.03993 -0.395479,-3.9044 -1.918507,-6.494543 -6.825244,-11.607384 -0.85161,-0.887375 -1.87905,-1.974042 -2.283196,-2.414817 l -0.734821,-0.801402 1.72629,-1.80492 c 2.634464,-2.75446 4.400551,-4.789425 5.830274,-6.717902 4.680029,-6.312644 6.239756,-12.433016 4.750563,-18.641219 -0.826886,-3.447154 -2.803634,-7.196568 -5.639639,-10.69703 -0.929748,-1.147584 -3.439807,-3.8531 -5.333491,-5.74881 -1.095827,-1.096998 -1.402472,-1.437333 -1.34603,-1.493927 0.539907,-0.541321 3.794867,-4.059299 4.431907,-4.789993 3.782283,-4.338326 5.378095,-7.627556 5.468403,-11.271277 0.04168,-1.681779 -0.277707,-2.618962 -1.2127,-3.558419 -1.176238,-1.181895 -2.669721,-1.678719 -4.148023,-1.379962 -0.818192,0.165353 -1.343607,0.472549 -2.097289,1.226231 -1.126211,1.126211 -1.313193,1.541887 -1.545198,3.435093 l -0.150781,1.23039 -7.260683,-0.02154 c -3.993375,-0.01185 -7.295508,-0.05636 -7.338072,-0.09893 -0.04256,-0.04256 -0.149152,-0.612624 -0.236864,-1.2668 -0.08771,-0.654177 -0.245436,-1.414483 -0.3505,-1.689568 -0.644333,-1.687043 -2.398152,-2.932099 -4.130236,-2.932099 -1.740212,0 -3.744947,1.455232 -4.284271,3.109941 -0.546174,1.675726 -0.07229,4.847174 1.08528,7.263237 1.205749,2.516615 2.998957,4.814522 7.352021,9.42125 l 1.313796,1.390362 -2.547383,2.621317 c -3.24277,3.336901 -4.209537,4.4479 -5.692966,6.54234 -4.609547,6.50817 -5.83559,13.089276 -3.653369,19.610405 1.429752,4.272526 4.224739,8.38037 8.85014,13.007213 0.837723,0.837957 1.838019,1.872343 2.222908,2.298611 l 0.699803,0.775026 -1.31544,1.390068 c -3.129429,3.306963 -5.310466,6.103158 -6.562408,8.413321 -1.880973,3.470894 -2.503109,7.118074 -1.522733,8.926714 0.265805,0.49035 1.366691,1.58502 1.916937,1.90562 z m 0.738421,-3.41706 c -0.293557,-1.21055 0.281543,-3.65694 1.347058,-5.73015 1.446702,-2.814904 3.273646,-4.960449 8.778491,-10.309376 5.277235,-5.127763 10.078985,-9.952356 11.01082,-11.063188 4.698443,-5.601012 6.373215,-10.206196 5.432847,-14.938896 -0.133451,-0.671635 -0.244653,-1.232764 -0.247116,-1.246952 -0.0025,-0.01419 0.236273,-0.317251 0.530517,-0.673478 0.664063,-0.803943 0.892286,-1.178575 1.205969,-1.979674 0.135685,-0.346517 0.263859,-0.630029 0.284831,-0.630029 0.131013,0 0.951642,2.888343 1.282899,4.515397 0.804114,3.949612 -0.518023,8.832473 -3.672816,13.564279 -0.740523,1.110695 -1.914971,2.628335 -3.06525,3.960958 -1.229403,1.424292 -5.146489,5.340744 -9.121101,9.119687 -5.783088,5.498302 -8.315992,8.292643 -9.561828,10.548782 -0.682795,1.2365 -1.024875,2.26409 -1.316114,3.95354 -0.265872,1.5423 -0.943179,2.13032 -2.030662,1.76296 -0.469818,-0.1587 -0.759905,-0.4472 -0.858294,-0.85405 z m 8.501291,-5.83633 c 0.07302,-0.1202 0.524572,-0.66989 1.003439,-1.221529 l 0.870671,-1.002985 5.230901,0.01587 c 2.876996,0.0087 5.522461,0.05889 5.87881,0.111462 0.529073,0.07806 0.692653,0.140338 0.891864,0.33955 0.503706,0.503706 0.546237,1.393872 0.09286,1.943632 -0.252409,0.30608 -0.276034,0.31471 -1.010839,0.36974 -2.111299,0.15809 -11.057888,0.20313 -12.262223,0.0617 -0.68365,-0.0803 -0.903351,-0.27532 -0.695482,-0.61747 z m 15.569654,5.63628 c -0.07829,-0.24712 -0.20292,-0.90759 -0.276951,-1.46771 l -0.134602,-1.0184 0.777965,-0.8298 c 0.753829,-0.80406 0.882763,-0.99714 1.24152,-1.85931 0.09331,-0.22424 0.164931,-0.0936 0.533809,0.97355 0.386597,1.11844 0.564434,2.02691 0.609241,3.1123 0.05283,1.27969 -0.142622,1.84858 -0.713383,2.07638 -1.013132,0.40436 -1.702603,0.0704 -2.037598,-0.987 z M 50.53392,83.455054 c -1.837234,-1.961585 -3.610146,-4.118685 -3.48664,-4.242191 0.02374,-0.02374 0.208421,-0.01081 0.410415,0.02872 0.201994,0.03953 1.055372,0.09517 1.896396,0.12364 l 1.529132,0.05176 1.273178,1.36165 c 1.506421,1.611102 3.762404,3.859603 4.363156,4.348704 l 0.426388,0.347135 -1.079062,1.079062 -1.079061,1.079061 -0.725778,-0.650188 c -0.39918,-0.357602 -0.800523,-0.707185 -0.891878,-0.776846 -0.164922,-0.125763 -0.73353,-0.719006 -2.636246,-2.750516 z m 10.781946,10.444109 c -6.93e-4,-0.01484 0.464594,-0.458937 1.034053,-0.986946 l 1.035365,-0.96003 0.827065,0.765279 c 0.834583,0.77223 2.407649,2.472872 2.703417,2.922648 l 0.160081,0.243434 -2.009205,-0.03376 -2.009205,-0.03376 -0.870125,-0.944979 c -0.47857,-0.519738 -0.870721,-0.957087 -0.871441,-0.971893 z M 43.39406,72.502425 c -0.29572,-0.91748 -0.672661,-2.73545 -0.764205,-3.685728 -0.397595,-4.127274 1.155333,-8.84615 4.420272,-13.431873 1.077299,-1.513103 2.056536,-2.690827 3.899225,-4.689584 1.645582,-1.784953 3.31038,-3.405302 9.771373,-9.510446 2.199488,-2.078346 4.610553,-4.614089 5.699739,-5.994374 1.81711,-2.302827 2.650954,-4.014246 3.065707,-6.292195 0.212232,-1.165641 0.461473,-1.706288 0.904075,-1.961097 0.478459,-0.275453 1.27983,-0.155889 1.687491,0.251772 0.313923,0.313923 0.428647,0.787007 0.403128,1.662384 -0.03953,1.356081 -0.457751,2.749179 -1.370797,4.56616 -1.449681,2.88489 -4.077729,5.95803 -9.449212,11.049549 -8.740211,8.284668 -11.307701,11.07412 -13.471244,14.635843 -2.244439,3.694898 -3.057952,7.441497 -2.330548,10.733235 l 0.213365,0.965544 -0.706063,0.640628 c -0.681557,0.618399 -1.067751,1.141346 -1.405257,1.902916 -0.107272,0.24206 -0.318659,-0.0721 -0.567049,-0.842734 z m 3.498011,2.790716 c -0.172839,-0.4972 -0.0397,-1.155031 0.303177,-1.497902 0.353646,-0.353647 0.809449,-0.416107 3.518291,-0.482119 3.062349,-0.07463 15.221546,-0.04155 16.101798,0.04381 0.683013,0.06623 0.866215,0.141703 0.784221,0.323086 -0.02507,0.05544 -0.439102,0.67078 -0.920086,1.367411 l -0.874515,1.266601 -7.027809,0.0059 c -7.304792,0.0062 -10.204166,-0.04657 -10.956291,-0.199329 -0.524295,-0.106484 -0.747172,-0.305055 -0.928784,-0.827498 z m 8.170524,4.101653 c 0.09031,-0.09031 7.869762,-8.98e-4 7.916071,0.09098 0.02637,0.0523 -0.1747,0.336144 -0.499721,0.705434 -0.747901,0.849766 -3.215415,3.334803 -3.311288,3.334806 -0.119515,0 -4.165006,-4.071272 -4.105057,-4.13122 z m -6.196009,-9.751263 c -0.290595,-1.125836 -0.270081,-3.70069 0.0387,-4.857158 l 0.112479,-0.421269 9.997687,0.0071 9.997686,0.0071 0.148278,0.530553 c 0.417074,1.492329 0.368518,4.041211 -0.09846,5.1686 l -0.109085,0.263352 -9.943065,2.58e-4 c -5.468687,1.42e-4 -9.949364,-0.006 -9.957062,-0.01374 -0.0077,-0.0077 -0.09192,-0.315878 -0.187154,-0.684842 z m 1.892904,-9.053097 c 0.134389,-0.237697 0.539824,-0.860462 0.900963,-1.383925 l 0.656613,-0.951753 7.733927,0.0224 c 9.774504,0.02832 10.013703,0.03898 10.440279,0.465561 0.504799,0.504798 0.482302,1.579297 -0.04409,2.105685 -0.144172,0.144173 -0.367475,0.225729 -0.79618,0.290789 -0.906518,0.137569 -6.479837,0.211701 -11.840026,0.157487 -5.532366,-0.05596 -7.255717,-0.104114 -7.279158,-0.203413 -0.0092,-0.03886 0.09328,-0.26514 0.227668,-0.502836 z m 4.668173,-5.878562 c 0.114603,-0.191395 1.927771,-1.912794 3.031462,-2.878019 l 0.609085,-0.532675 2.024216,2.027469 2.024215,2.027468 -3.399927,-0.01266 c -4.049189,-0.01507 -4.608839,-0.09749 -4.289046,-0.631596 z m 7.302134,-4.081936 -1.512833,-1.512833 1.019996,-1.019995 1.019994,-1.019994 0.443796,0.346653 c 0.244087,0.190659 1.377526,1.283651 2.518741,2.428882 2.028145,2.035216 3.280845,3.440791 4.547375,5.102145 l 0.450922,0.591495 -0.766769,-0.09999 c -0.421721,-0.055 -1.298093,-0.09563 -1.947494,-0.0903 l -1.180728,0.0097 -1.540084,-1.61146 c -0.847052,-0.886296 -2.220866,-2.292227 -3.052924,-3.124285 z m -9.856457,-11.905767 2.165228,-0.0012 0.952059,0.95206 0.95206,0.95206 -1.083208,1.083207 -1.083207,1.083207 -2.034079,-2.034079 -2.034081,-2.034081 z m -6.189845,-5.704924 c -0.625044,-1.270894 -1.092312,-3.224707 -1.066797,-4.46066 0.02485,-1.20349 0.285777,-1.605684 1.129173,-1.740482 0.585906,-0.09364 0.900046,0.02696 1.323615,0.508134 0.253285,0.287736 0.355783,0.473262 0.378954,0.685944 0.01747,0.160343 0.09139,0.627032 0.16428,1.037086 0.210248,1.182884 0.190493,1.532206 -0.108279,1.91463 -0.56634,0.72491 -0.969646,1.410596 -1.184296,2.013501 -0.124468,0.349607 -0.236745,0.646087 -0.249504,0.658846 -0.04488,0.04488 -0.122302,-0.0785 -0.387146,-0.616999 z m 3.462709,1.460103 c -0.0593,-0.440561 0.120119,-0.987844 0.425008,-1.296413 0.160878,-0.162857 0.339634,-0.230414 0.730408,-0.276149 0.874309,-0.102324 4.400301,-0.165924 8.86911,-0.159975 4.019084,0.0054 4.256789,0.01681 4.147157,0.199913 -0.220484,0.368249 -1.144272,1.443414 -1.843904,2.146058 l -0.701469,0.704439 -3.824107,-0.01103 c -4.416614,-0.01274 -5.733595,-0.04823 -6.583766,-0.17743 -0.572319,-0.08697 -0.628975,-0.113808 -0.889293,-0.421205 -0.197673,-0.233424 -0.292813,-0.43812 -0.329171,-0.708232 z"
           id="path1895" /></g></g></g><g
     inkscape:groupmode="layer"
     id="layer3"
     inkscape:label="FG" /></svg>
