<?xml version="1.0" encoding="UTF-8" standalone="no"?>
<!-- Created with Inkscape (http://www.inkscape.org/) -->

<svg
   width="128"
   height="128"
   viewBox="0 0 1 1"
   version="1.1"
   id="svg5"
   inkscape:version="1.2.1 (9c6d41e410, 2022-07-14)"
   sodipodi:docname="Sprite-Template.svg"
   inkscape:export-filename="..\DPXP_ExoAdaptation\Textures\UI\Xenotypes\Snowy.png"
   inkscape:export-xdpi="96"
   inkscape:export-ydpi="96"
   xmlns:inkscape="http://www.inkscape.org/namespaces/inkscape"
   xmlns:sodipodi="http://sodipodi.sourceforge.net/DTD/sodipodi-0.dtd"
   xmlns="http://www.w3.org/2000/svg"
   xmlns:svg="http://www.w3.org/2000/svg">
  <sodipodi:namedview
     id="namedview7"
     pagecolor="#ffffff"
     bordercolor="#666666"
     borderopacity="1.0"
     inkscape:showpageshadow="2"
     inkscape:pageopacity="0.0"
     inkscape:pagecheckerboard="0"
     inkscape:deskcolor="#d1d1d1"
     inkscape:document-units="px"
     showgrid="true"
     inkscape:zoom="4.7572176"
     inkscape:cx="110.77904"
     inkscape:cy="80.92966"
     inkscape:window-width="1680"
     inkscape:window-height="987"
     inkscape:window-x="-8"
     inkscape:window-y="-8"
     inkscape:window-maximized="1"
     inkscape:current-layer="text298">
    <inkscape:grid
       type="xygrid"
       id="grid132"
       empspacing="8" />
  </sodipodi:namedview>
  <defs
     id="defs2" />
  <g
     inkscape:label="BG"
     inkscape:groupmode="layer"
     id="layer1" />
  <g
     inkscape:groupmode="layer"
     id="layer2"
     inkscape:label="Main">
    <g
       aria-label="?"
       transform="matrix(0.01076073,0,0,0.01076073,-0.13589189,-0.22446739)"
       id="text298"
       style="font-size:96px;line-height:1;font-family:'Comic Sans MS';-inkscape-font-specification:'Comic Sans MS';letter-spacing:0px;word-spacing:0px;baseline-shift:baseline;opacity:1;stroke-width:2.17805855;stop-color:#000000;stop-opacity:1;fill:#00ff00;fill-opacity:1;stroke:#004000;stroke-opacity:1;stroke-dasharray:none">
      <g
         id="path13194">
        <path
           style="color:#000000;-inkscape-font-specification:'Comic Sans MS';fill:#ffffff;stroke:none;stroke-width:4.35612;-inkscape-stroke:none"
           d="m 58.53423,96.547716 c -0.750392,-0.210633 -1.340767,-0.773514 -1.70649,-1.627024 -0.115225,-0.268865 -0.125057,-0.513716 -0.154945,-3.841643 l -0.03194,-3.554468 -1.914459,1.275253 c -1.052945,0.701395 -2.03938,1.33138 -2.192079,1.399956 -1.585216,0.711986 -3.503308,-0.2909 -3.63242,-1.899225 -0.0578,-0.720558 0.305759,-1.628202 0.854196,-2.132309 0.101261,-0.0931 1.50513,-1.066263 3.119662,-2.162581 1.614533,-1.09633 3.100627,-2.108384 3.30244,-2.249004 l 0.366939,-0.255688 v -2.766715 c 0,-1.521695 -0.01389,-2.766715 -0.03103,-2.766715 -0.0171,0 -0.807215,0.460539 -1.755942,1.023433 -0.948727,0.562895 -1.767165,1.039638 -1.818777,1.059437 -0.0812,0.03117 -0.09608,-0.244682 -0.110701,-2.044229 l -0.01674,-2.080245 -2.297356,1.311644 c -1.263538,0.721412 -2.329013,1.3459 -2.367719,1.387747 -0.04462,0.04824 -0.144882,1.48885 -0.273959,3.936912 -0.111983,2.12345 -0.232126,3.986843 -0.266977,4.14086 -0.178101,0.787131 -0.752552,1.52864 -1.45039,1.872185 -0.379534,0.186852 -0.481903,0.208849 -0.968188,0.208085 -0.470291,-7.75e-4 -0.595509,-0.02613 -0.926653,-0.187523 -0.44038,-0.214707 -0.977333,-0.721412 -1.174956,-1.108783 -0.07474,-0.146574 -0.18142,-0.444001 -0.237002,-0.660957 -0.09401,-0.367172 -0.09104,-0.556997 0.0441,-2.743788 0.0798,-1.292129 0.129189,-2.365222 0.109792,-2.384659 -0.0194,-0.0194 -1.292855,0.70168 -2.829823,1.602468 -1.536954,0.900788 -2.954588,1.696611 -3.150285,1.768473 -0.26417,0.09699 -0.520168,0.132129 -0.993962,0.136332 -0.571817,0.0052 -0.677962,-0.013 -1.021042,-0.173007 -1.63874,-0.764605 -1.827117,-2.895349 -0.370664,-4.19269 0.179546,-0.159933 1.555992,-1.007929 3.106538,-1.913865 1.531277,-0.894671 2.784146,-1.6439 2.784146,-1.664927 0,-0.02107 -0.883046,-0.464108 -1.96232,-0.984612 -1.079272,-0.520505 -2.073688,-1.015973 -2.209794,-1.101039 -0.394341,-0.24644 -0.784183,-0.690064 -1.010618,-1.150023 -0.196733,-0.399618 -0.209664,-0.467277 -0.209664,-1.097287 0,-0.609086 0.01621,-0.702273 0.175376,-1.004075 0.243169,-0.461277 0.493553,-0.72846 0.879567,-0.938562 0.656831,-0.357487 1.457554,-0.450931 2.202178,-0.256994 0.209185,0.05443 1.95473,0.871577 3.878966,1.815751 l 3.498615,1.716682 2.420248,-1.40906 c 1.331144,-0.774975 2.420065,-1.426932 2.419859,-1.448799 -1.94e-4,-0.02186 -0.803762,-0.513586 -1.785648,-1.09271 -0.981869,-0.579123 -1.785141,-1.067311 -1.785038,-1.08486 1.3e-4,-0.01763 0.77486,-0.477014 1.72166,-1.021041 0.946814,-0.544027 1.721156,-1.003493 1.720768,-1.021042 -0.0012,-0.05082 -4.616929,-2.680358 -4.70484,-2.680304 -0.04359,3.7e-5 -1.665885,0.77663 -3.605096,1.725783 -1.939198,0.949155 -3.681354,1.770943 -3.871451,1.826214 -0.54907,0.159612 -1.295958,0.09544 -1.80463,-0.15491 -0.473988,-0.233354 -1.014731,-0.749061 -1.218148,-1.161765 -0.119998,-0.243428 -0.142388,-0.394561 -0.142388,-0.960301 0,-0.629002 0.01318,-0.698096 0.208137,-1.094184 0.141534,-0.287486 0.336227,-0.542321 0.608401,-0.796352 0.357771,-0.333898 0.610096,-0.474389 2.376384,-1.323179 1.086864,-0.522289 2.042275,-0.983384 2.123138,-1.024636 0.135388,-0.06906 -0.08703,-0.211319 -2.804863,-1.794441 -3.17796,-1.851094 -3.452967,-2.048458 -3.774412,-2.708562 -0.316931,-0.65083 -0.325725,-1.536683 -0.02186,-2.200484 0.526621,-1.150294 1.977334,-1.669829 3.235168,-1.15861 0.284617,0.115617 4.739498,2.678792 5.691743,3.274741 l 0.239301,0.14978 2.09e-4,-0.27202 c 1.15e-4,-0.149602 -0.06013,-1.218368 -0.133839,-2.375012 -0.146912,-2.304534 -0.135192,-2.518633 0.17249,-3.149044 0.227252,-0.465635 0.727091,-0.946372 1.233447,-1.186322 0.372072,-0.176319 0.48277,-0.198426 0.993082,-0.198426 0.501766,0 0.620972,0.02289 0.943375,0.181213 0.717881,0.352508 1.270987,1.111991 1.398687,1.920538 0.03363,0.212883 0.182636,2.145291 0.331132,4.294269 0.148516,2.148963 0.282637,3.918031 0.298064,3.931274 0.06815,0.05846 4.776896,2.786747 4.8096,2.786747 0.02004,0 0.03646,-0.962022 0.03646,-2.137819 0,-1.175795 0.01389,-2.137802 0.03078,-2.137802 0.01692,0 0.80741,0.431947 1.756614,0.959874 0.949206,0.527939 1.768149,0.976128 1.819864,0.995966 0.08186,0.03142 0.09401,-0.312756 0.09401,-2.672042 v -2.708134 l -1.643241,-1.116504 c -0.90379,-0.614078 -2.360606,-1.602506 -3.237382,-2.196514 -0.876774,-0.594009 -1.75448,-1.23796 -1.950448,-1.431006 -0.802404,-0.790377 -1.024093,-1.904849 -0.566839,-2.849426 0.186361,-0.384953 0.807073,-0.937761 1.253478,-1.11635 0.308849,-0.12349 0.483817,-0.147411 1.071113,-0.146057 0.61576,0.0013 0.745297,0.02159 1.054741,0.164403 0.194029,0.08949 1.199113,0.727233 2.233538,1.417118 l 1.880759,1.254343 0.03336,-3.494051 c 0.03065,-3.219016 0.0428,-3.519163 0.15361,-3.813128 0.268452,-0.712232 0.701614,-1.215884 1.331016,-1.547584 0.298957,-0.157564 0.397343,-0.175252 0.970829,-0.174646 0.53906,5.95e-4 0.684879,0.0238 0.939131,0.149549 0.610975,0.302202 1.111913,0.878028 1.368144,1.572672 0.107459,0.29134 0.120533,0.623234 0.149602,3.816943 l 0.03194,3.497865 1.946362,-1.294497 c 2.154692,-1.433034 2.456067,-1.580689 3.231896,-1.583496 2.316986,-0.0078 3.375453,2.408196 1.802315,4.114854 -0.133713,0.14506 -1.737501,1.280905 -3.563986,2.524114 l -3.320868,2.260372 v 2.703647 c 0,2.377935 0.01158,2.699212 0.09583,2.666883 0.05263,-0.02018 0.869584,-0.497124 1.815336,-1.059786 0.945753,-0.562661 1.735432,-1.02302 1.754843,-1.02302 0.0194,0 0.0353,0.9333 0.0353,2.074 0,1.140698 0.01478,2.073998 0.03311,2.073998 0.05458,0 4.267823,-2.433606 4.355694,-2.515916 0.05548,-0.05199 0.121175,-0.640692 0.207363,-1.859189 0.445692,-6.301268 0.441309,-6.250538 0.572709,-6.632478 0.186501,-0.542048 0.396268,-0.866791 0.795808,-1.231945 0.661539,-0.604612 1.548258,-0.780524 2.349497,-0.466114 0.761216,0.298712 1.440613,1.156515 1.571445,1.984098 0.03712,0.234829 0.0078,1.105577 -0.09104,2.678999 -0.08031,1.282095 -0.140875,2.336617 -0.134623,2.34338 0.0064,0.0064 1.188018,-0.678401 2.626135,-1.522601 1.438116,-0.844198 2.810075,-1.629934 3.048796,-1.74606 1.39627,-0.679269 2.83925,-0.293695 3.446953,0.921026 0.389259,0.778093 0.368866,1.484943 -0.06699,2.320246 -0.378551,0.725537 -0.661421,0.931695 -3.782764,2.75699 l -2.833638,1.657053 0.79493,0.379496 c 3.867675,1.846413 4.00192,1.931944 4.447782,2.834077 0.226797,0.45891 0.239883,0.518719 0.239883,1.096291 0,0.561046 -0.0171,0.64549 -0.208705,1.03484 -0.246764,0.501263 -0.527578,0.765703 -1.096486,1.032565 -0.354305,0.16622 -0.51105,0.199808 -1.031271,0.221029 -0.948816,0.03867 -0.625083,0.172455 -6.194075,-2.559225 -1.858297,-0.911535 -2.164754,-1.043349 -2.265441,-0.97437 -0.06402,0.04384 -1.150231,0.662881 -2.413782,1.375592 -1.263538,0.712709 -2.331535,1.32715 -2.373318,1.365427 -0.05637,0.05173 0.379821,0.328389 1.697464,1.076571 0.975393,0.553855 1.821351,1.042043 1.87992,1.084859 0.09143,0.06685 -0.133411,0.221573 -1.584868,1.091068 l -1.691347,1.013192 2.280468,1.277504 c 1.254265,0.702636 2.309201,1.277479 2.344298,1.277453 0.03505,-2.5e-5 1.656121,-0.780419 3.602264,-1.734203 1.946143,-0.953797 3.695436,-1.779802 3.887306,-1.835589 0.239831,-0.0697 0.50452,-0.09234 0.846902,-0.07255 0.911833,0.05276 1.81681,0.654994 2.185185,1.454102 0.104111,0.225968 0.132699,0.417061 0.133928,0.896727 0.0013,0.577313 -0.01158,0.635184 -0.237919,1.094093 -0.41939,0.848584 -0.643627,1.007036 -3.097833,2.18908 -1.594746,0.768095 -2.098039,1.037179 -2.031544,1.086153 0.04863,0.03582 1.387605,0.825525 2.975538,1.754919 2.01265,1.177983 2.972538,1.775869 3.169061,1.973934 0.826237,0.832702 0.957145,2.181771 0.307829,3.172281 -0.253851,0.387241 -0.502012,0.589185 -1.022452,0.831979 -0.332527,0.155142 -0.456207,0.177264 -0.986449,0.176498 -0.409109,-5.82e-4 -0.709993,-0.03698 -0.925321,-0.111859 -0.175483,-0.06104 -1.611324,-0.86904 -3.190761,-1.795563 -1.579423,-0.926524 -2.87626,-1.679967 -2.881846,-1.67433 -0.0052,0.0052 0.05458,1.048884 0.133625,2.318294 0.09027,1.449897 0.125306,2.443873 0.09414,2.673412 -0.109009,0.802908 -0.736258,1.631357 -1.509747,1.993834 -0.3182,0.149121 -0.447892,0.172009 -0.97335,0.171742 -0.5406,-1.94e-4 -0.643148,-0.01966 -0.947033,-0.17948 -0.669555,-0.352043 -1.172911,-0.988518 -1.346638,-1.702766 -0.0384,-0.157938 -0.197493,-2.108203 -0.353516,-4.333918 -0.156014,-2.225715 -0.308422,-4.07152 -0.338682,-4.101766 -0.08523,-0.08523 -4.74621,-2.795799 -4.807506,-2.795799 -0.02975,0 -0.06181,0.958891 -0.071,2.130872 l -0.01674,2.130886 -1.723017,-0.844704 -1.723005,-0.844716 -0.01674,2.654403 c -0.0091,1.459919 -0.0052,2.68527 0.0091,2.722992 0.01443,0.03776 1.48899,1.063975 3.276705,2.280572 1.787716,1.216582 3.385759,2.348759 3.551196,2.515942 0.727038,0.734692 0.965319,1.93436 0.55326,2.785544 -0.414283,0.855811 -1.593932,1.471921 -2.5806,1.347813 -0.65872,-0.0829 -0.947628,-0.23665 -2.953929,-1.572284 l -1.999162,-1.330886 -0.0012,3.270084 c -0.0012,3.488063 -0.0221,3.775097 -0.321716,4.412479 -0.489791,1.042003 -1.695188,1.636478 -2.729512,1.346146 z m 3.038877,-25.701341 c 0.155747,-0.188261 1.991727,-3.271533 1.991727,-3.344831 0,-0.04448 -0.447595,-0.885878 -0.994673,-1.869844 L 61.575487,63.842653 H 59.384998 57.19451 l -1.121146,1.78315 c -0.616626,0.980745 -1.128878,1.80944 -1.138319,1.841549 -0.01443,0.04875 1.552317,2.406036 2.136989,3.215319 l 0.175892,0.243467 h 2.129606 c 1.625938,0 2.145201,-0.01888 2.195582,-0.0798 z"
           id="path13198" />
        <path
           style="color:#000000;-inkscape-font-specification:'Comic Sans MS';fill:#404040;stroke:none;-inkscape-stroke:none"
           d="m 59.386719,36.107422 c -0.309267,-3.27e-4 -0.574193,-0.0099 -0.976563,0.0625 -0.402369,0.07238 -0.804796,0.254223 -1.011719,0.363281 -1.069253,0.563506 -1.931865,1.588347 -2.353515,2.707031 -0.132436,0.351336 -0.222563,0.906337 -0.246094,1.490235 -0.01964,0.487324 -0.02741,1.410656 -0.03906,2.5625 -0.0027,-0.0017 -0.007,-0.0041 -0.0098,-0.0059 -0.422378,-0.267993 -0.471933,-0.352146 -1.054688,-0.621093 h -0.002 c -0.448504,-0.206538 -1.298614,-0.363836 -1.960937,-0.365235 -0.647435,-0.0015 -1.402643,0.109963 -1.884766,0.302735 -0.619545,0.247855 -0.989653,0.540506 -1.365234,0.875 -0.375581,0.334493 -0.71276,0.636398 -1.041016,1.314453 -0.218166,0.450678 -0.118446,0.941567 -0.173828,1.421875 -0.03321,-0.01723 -0.04824,-0.05177 -0.08203,-0.06836 -0.438517,-0.215343 -1.336291,-0.404297 -1.904297,-0.404297 -0.573215,10e-7 -1.466302,0.190464 -1.925781,0.408204 -1.02244,0.484509 -1.737597,1.133307 -2.257813,2.199218 -0.191688,0.392752 -0.438722,1.128007 -0.474609,1.783203 -0.01535,0.280282 0.02644,0.735139 0.03711,1.052735 -0.596402,-0.342796 -1.178275,-0.675052 -1.630859,-0.929688 -0.241156,-0.13568 -0.447705,-0.251482 -0.613281,-0.341797 -0.164818,-0.0899 -0.09842,-0.08658 -0.509766,-0.253906 -2.275841,-0.924965 -4.98361,-0.03162 -6.037109,2.269531 -0.615732,1.345083 -0.605663,2.724547 0.04492,4.060547 0.230355,0.473046 0.832566,1.240892 1.503907,1.722657 0.553671,0.397323 1.466023,0.925032 2.583984,1.578125 -0.119746,0.06225 -0.34427,0.166174 -0.449219,0.224609 -0.427824,0.238213 -0.833679,0.542049 -1.08789,0.779297 -0.424584,0.396281 -0.810318,0.885774 -1.076172,1.425781 -0.222101,0.451235 -0.431641,1.397214 -0.431641,2.056641 0,0.311603 -0.0032,0.568825 0.04883,0.919922 0.05205,0.351096 0.203076,0.770042 0.31836,1.003906 0.408829,0.829457 0.907092,1.292861 1.511718,1.695312 -0.572967,0.414854 -1.147445,0.935569 -1.451171,1.511719 -0.1085,0.205732 -0.296232,0.620962 -0.367188,1.027344 -0.07096,0.406382 -0.06055,0.668323 -0.06055,0.992187 0,0.659813 0.210537,1.605506 0.433594,2.058594 0.418854,0.850822 0.967104,1.508054 1.810547,2.035156 0.403972,0.252482 0.521045,0.287341 0.789062,0.414063 -0.516923,0.306493 -1.056591,0.626345 -1.457031,0.873047 -0.290045,0.17869 -0.53722,0.334714 -0.740234,0.466797 -0.203014,0.132083 -0.242308,0.114009 -0.605469,0.4375 -1.205285,1.073612 -1.828243,2.611625 -1.695313,4.115234 0.132931,1.503609 1.100839,2.98117 2.59375,3.677734 0.441703,0.206003 1.342414,0.382596 1.962891,0.376953 0.574513,-0.0051 1.192851,-0.0743 1.724609,-0.269531 0.471264,-0.173053 0.431262,-0.19464 0.636719,-0.304687 0.205458,-0.110048 0.456498,-0.249299 0.75,-0.414063 0.410004,-0.230164 0.953989,-0.544892 1.476563,-0.847656 -0.0058,0.143081 -0.02737,0.434789 -0.0293,0.554687 -0.0075,0.465634 0.06012,0.989329 0.130859,1.265625 0.103094,0.402412 0.170856,0.647739 0.40625,1.109375 h 0.002 c 0.573992,1.125112 1.133317,1.575537 2.160157,2.076172 v 0.002 c 0.444768,0.216772 1.329015,0.405348 1.876953,0.40625 0.455331,7.16e-4 1.102751,-0.179697 1.59375,-0.355468 0.355632,3.155893 3.811137,4.85638 6.648437,3.582031 0.375619,-0.168687 0.35133,-0.185327 0.501953,-0.277344 0.150624,-0.09202 0.330538,-0.205965 0.53711,-0.33789 0.01,-0.0064 0.02508,-0.017 0.03516,-0.02344 0.01162,1.242466 0.02083,2.184875 0.04102,2.685547 0.02358,0.584782 0.142082,1.211074 0.285156,1.544922 0.5634,1.314841 1.68286,2.462074 3.11914,2.865234 0.235257,0.06604 0.460787,0.0354 0.69336,0.0625 1.945356,0.226668 3.756649,-0.793085 4.595703,-2.578125 0.195063,-0.414962 0.418516,-1.163633 0.472656,-1.90625 0.0425,-0.582942 0.04072,-1.573084 0.04297,-2.695312 0.233223,0.144025 0.583886,0.390666 0.792969,0.501953 0.570282,0.303539 1.268879,0.497334 1.724609,0.554687 2.085555,0.262332 3.870328,-0.614242 4.8125,-2.560547 0.254816,-0.526369 0.166757,-1.050526 0.212891,-1.580078 0.461692,0.196269 1.241374,0.390432 1.779297,0.390625 0.588887,3e-4 1.451865,-0.167671 1.898437,-0.376953 1.518466,-0.711592 2.512154,-1.965128 2.744141,-3.673828 0.08661,-0.637919 0.03286,-0.75862 0.01563,-1.248047 -0.0012,-0.03351 -0.0045,-0.09217 -0.0059,-0.126953 0.547722,0.317963 1.115146,0.646212 1.539063,0.884766 0.296996,0.167131 0.550694,0.307772 0.755859,0.417968 0.205165,0.110197 0.08435,0.112128 0.666016,0.314454 0.603035,0.209701 1.101897,0.233611 1.638672,0.234375 0.591278,5.13e-4 1.462437,-0.171975 1.910156,-0.38086 0.699376,-0.326271 1.501551,-0.972092 1.921875,-1.613281 1.220029,-1.861114 0.991635,-4.314411 -0.582031,-5.900391 -0.575277,-0.57979 -0.750171,-0.591848 -1.298828,-0.933593 -0.462651,-0.288174 -1.165365,-0.704523 -1.953125,-1.167969 0.354632,-0.188926 0.860313,-0.407257 1.160156,-0.619141 0.678197,-0.479246 1.228269,-1.268957 1.482422,-1.783203 v -0.002 c 0.243971,-0.494658 0.464264,-1.452465 0.46289,-2.0625 -0.0014,-0.564724 -0.098,-1.290535 -0.333984,-1.802734 -0.359536,-0.779935 -0.904395,-1.375772 -1.542969,-1.830079 0.553804,-0.42693 1.173755,-0.835029 1.447266,-1.390625 0.224025,-0.455229 0.431641,-1.390791 0.43164,-1.996093 0,-0.61047 -0.219488,-1.566038 -0.464843,-2.0625 -0.249288,-0.504396 -0.914953,-1.418936 -1.722657,-1.933594 -0.19995,-0.127406 -0.691461,-0.342066 -0.925781,-0.470703 1.048486,-0.615828 1.944692,-1.135067 2.488281,-1.53125 0.677714,-0.493936 1.258661,-1.233735 1.511719,-1.71875 0.656092,-1.257377 0.723008,-3.025386 0.08398,-4.302735 -1.142444,-2.283599 -4.128988,-2.983653 -6.347657,-1.904296 -0.381086,0.18538 -0.643648,0.346434 -1.205078,0.667968 -0.31513,0.180478 -0.734631,0.426907 -1.11914,0.650391 0.0021,-0.05458 0.008,-0.151861 0.0098,-0.203125 0.0163,-0.480703 0.06594,-0.635153 -0.03125,-1.25 -0.276182,-1.747004 -1.254861,-3.016182 -2.925781,-3.671875 -1.072343,-0.420792 -2.202087,-0.234143 -3.240234,0.195312 -0.04795,-0.423714 0.03566,-0.868737 -0.134766,-1.257812 -0.704972,-1.609373 -2.444689,-2.725202 -4.361328,-2.71875 -0.525066,0.0019 -1.384538,0.152085 -2.050781,0.478516 -0.27474,0.13461 -0.685972,0.424198 -0.982422,0.605468 -0.01145,-1.186988 -0.01951,-2.108745 -0.03906,-2.607422 -0.02297,-0.585713 -0.0996,-1.117578 -0.236328,-1.488281 -0.439961,-1.192736 -1.274825,-2.191568 -2.447266,-2.771484 -0.455439,-0.225253 -1.301211,-0.374337 -1.902343,-0.375 z m 0.02344,4.347656 c 0.07005,0.05601 0.178968,0.14584 0.238281,0.306641 -0.02927,-0.07936 -0.047,-0.301104 -0.0293,0.15039 0.0177,0.451495 0.03041,1.337073 0.04492,2.931641 l 0.06836,7.519531 5.292969,-3.521484 c 1.067077,-0.709688 1.669644,-1.07919 1.886718,-1.185547 0.214354,-0.105024 -0.0872,-0.03412 0.146485,-0.0332 0.400345,-0.0013 0.347199,0.08604 0.357422,0.109375 0.0087,0.01997 0.01008,0.107569 -0.140625,0.300781 -0.0276,0.0208 -0.03939,0.03087 -0.07422,0.05664 -0.176898,0.130916 -0.438611,0.319668 -0.753906,0.542968 -0.630591,0.446602 -1.479501,1.035546 -2.382813,1.650391 l -4.273437,2.908203 v 3.855469 c 0,1.192502 0.0012,1.860008 0.01758,2.316406 0.0082,0.228199 -0.0018,0.363513 0.07227,0.722656 0.03702,0.179572 0.01909,0.442401 0.464844,0.992188 0.222877,0.274893 0.655099,0.621641 1.185547,0.751953 0.530448,0.130312 1.02366,0.02955 1.314453,-0.08203 0.466138,-0.178732 0.277387,-0.12854 0.324219,-0.154297 0.04683,-0.02576 0.09149,-0.05066 0.146484,-0.08203 0.04963,-0.02831 0.127638,-0.07363 0.189453,-0.109375 0.0022,0.101663 0.0048,0.213956 0.0078,0.294922 0.0025,0.06756 0.0051,0.124117 0.01172,0.208984 0.0033,0.04243 0.005,0.08183 0.02344,0.199219 0.0092,0.05869 0.01335,0.124177 0.07617,0.324218 0.01571,0.05001 0.06822,0.189115 0.06836,0.189454 1.42e-4,3.38e-4 0.165874,0.318133 0.166016,0.318359 1.42e-4,2.26e-4 0.488138,0.546761 0.488281,0.546875 7.2e-5,5.7e-5 0.55071,0.318331 0.550781,0.318359 7.2e-5,2.9e-5 0.804616,0.154297 0.804688,0.154297 2.13e-4,0 0.464504,-0.04875 0.464844,-0.04883 3.39e-4,-7.4e-5 0.149504,-0.03822 0.195312,-0.05273 0.09162,-0.02904 0.135714,-0.04766 0.171875,-0.0625 0.07232,-0.02967 0.103983,-0.04566 0.13086,-0.05859 0.05375,-0.02586 0.07986,-0.03914 0.109375,-0.05469 0.05902,-0.03109 0.114528,-0.06249 0.18164,-0.09961 0.134224,-0.07424 0.30782,-0.172168 0.513672,-0.289062 0.411704,-0.233789 0.949253,-0.540214 1.488281,-0.851563 0.539029,-0.311349 1.078613,-0.625112 1.494141,-0.869141 0.207764,-0.122014 0.383643,-0.226854 0.519531,-0.308593 0.06794,-0.04087 0.124061,-0.07456 0.179688,-0.109375 0.02781,-0.01741 0.05447,-0.03442 0.09375,-0.06055 0.03928,-0.02613 -0.0037,0.04879 0.302734,-0.238281 0.676948,-0.634364 0.562596,-0.833118 0.611328,-0.990235 0.04873,-0.157116 0.06717,-0.250289 0.08398,-0.339844 0.03362,-0.179108 0.05197,-0.327829 0.07227,-0.509765 0.04059,-0.363873 0.07895,-0.831605 0.123047,-1.455078 0.222852,-3.150722 0.335011,-4.722179 0.402344,-5.501953 0.03205,-0.371211 0.0543,-0.539224 0.06055,-0.580079 0.10273,-0.302348 8.58e-4,-0.143265 0.203125,-0.328125 0.1014,-0.09267 0.04858,-0.06077 0.08398,-0.04687 -0.148489,-0.05827 0.229363,0.388715 0.214844,0.296875 -0.06007,-0.380018 -0.0057,0.0171 -0.01953,0.423829 -0.01379,0.406732 -0.04506,1.002275 -0.09375,1.777343 v 0.002 c -0.04035,0.644138 -0.07489,1.229763 -0.09961,1.660157 -0.01236,0.215197 -0.02277,0.39027 -0.0293,0.519531 -0.0033,0.06463 -0.0059,0.116307 -0.0078,0.166016 -9.44e-4,0.02485 -0.0014,0.04598 -0.002,0.08789 -2.99e-4,0.02096 -0.0019,0.04254 0,0.105469 9.34e-4,0.03147 0.001,0.06744 0.01172,0.167969 0.0053,0.05026 0.04098,0.251773 0.04102,0.251953 2e-5,9e-5 0.09177,0.300723 0.0918,0.300781 2.2e-5,5.8e-5 0.433569,0.697239 0.433594,0.697266 l 0.0293,0.03125 0.03125,0.03125 c 2.5e-5,2.5e-5 1.398376,0.632808 1.398437,0.632812 6.1e-5,4e-6 0.521388,-0.02928 0.521484,-0.0293 1.94e-4,-3.4e-5 0.280368,-0.06827 0.341797,-0.08984 0.12286,-0.04316 0.158322,-0.06097 0.191407,-0.07617 0.06617,-0.03041 0.08663,-0.04191 0.107421,-0.05273 0.04158,-0.02164 0.06188,-0.03444 0.08789,-0.04883 0.05202,-0.02877 0.110331,-0.0609 0.181641,-0.101562 0.14262,-0.08132 0.337595,-0.194547 0.578125,-0.333985 0.481059,-0.278876 1.137458,-0.662159 1.859375,-1.085937 0.712702,-0.418368 1.41132,-0.823352 1.955078,-1.134766 0.543757,-0.311413 1.087678,-0.600504 0.945312,-0.53125 0.573869,-0.27918 0.471961,-0.20834 0.544922,-0.0625 0.139494,0.278836 0.166791,-0.07534 -0.04883,0.337891 -0.125492,0.240521 0.123851,-0.03201 -0.214844,0.214844 -0.338694,0.24685 -1.181754,0.76084 -2.736328,1.669921 L 73.121094,59.662109 77.625,61.8125 c 1.930877,0.921793 2.937588,1.427335 3.275391,1.642578 0.337802,0.215243 -0.03837,-0.20633 0.158203,0.191406 0.208238,0.421357 0.01563,-0.413813 0.01563,0.13086 0,0.516789 0.172856,-0.251205 0.01367,0.07227 -0.06839,0.157155 0.243019,-0.121707 -0.06641,0.02344 -0.232824,0.109228 0.249194,-0.0025 -0.195312,0.01563 -0.586594,0.02391 0.122217,0.157506 -0.44336,-0.07617 -0.565576,-0.233678 -1.916272,-0.894723 -4.703125,-2.261719 -0.93438,-0.458334 -1.470854,-0.719845 -1.890625,-0.90039 -0.209885,-0.09027 -0.37341,-0.167587 -0.699218,-0.244141 -0.325808,-0.07655 -1.148254,-0.163066 -1.865235,0.328125 0.190707,-0.130593 0.08588,-0.0543 0.05664,-0.03711 -0.02924,0.01719 -0.07829,0.04607 -0.140625,0.08203 -0.124675,0.07193 -0.302787,0.173353 -0.519531,0.296875 -0.433489,0.247044 -1.019077,0.5786 -1.648438,0.933594 -0.636335,0.35893 -1.224122,0.693328 -1.662109,0.945312 -0.218994,0.125992 -0.399451,0.231354 -0.53711,0.3125 -0.06883,0.04057 -0.124793,0.07379 -0.179687,0.107422 -0.02745,0.01682 -0.05347,0.03368 -0.0918,0.05859 -0.03832,0.02491 0.01484,-0.06029 -0.304687,0.232422 v 0.002 h -0.002 c -0.439412,0.403243 -0.747513,1.239542 -0.701171,1.796875 0.04634,0.557333 0.230513,0.841541 0.351562,1.027343 0.242097,0.371605 0.374421,0.446242 0.480469,0.535157 0.212097,0.177829 0.340553,0.254008 0.509765,0.361328 0.05669,0.03595 0.180813,0.103755 0.244141,0.142578 l -1.560547,0.935547 c 0.01154,-0.02375 0.01908,-0.03868 0.03711,-0.08008 0.01651,-0.03791 0.03638,-0.08384 0.06836,-0.177735 0.01599,-0.04695 0.03553,-0.105937 0.05859,-0.203125 0.02307,-0.09719 0.05859,-0.503333 0.05859,-0.503906 0,-6.95e-4 -0.02512,-0.342788 -0.04297,-0.431641 -0.01784,-0.08885 -0.03335,-0.145571 -0.04687,-0.191406 -0.02705,-0.09167 -0.04536,-0.138354 -0.06055,-0.177734 -0.03038,-0.07876 -0.04934,-0.118816 -0.06641,-0.15625 -0.03414,-0.07487 -0.06165,-0.129483 -0.09375,-0.19336 -0.0642,-0.127753 -0.141549,-0.276907 -0.236329,-0.455078 -0.189558,-0.35634 -0.441627,-0.820324 -0.720703,-1.322265 l -1.617187,-2.910157 h -3.472656 -3.394532 l -1.761718,2.802735 c -0.310791,0.494313 -0.594064,0.950274 -0.804688,1.291015 -0.105312,0.170371 -0.19217,0.311387 -0.257812,0.419922 -0.03282,0.05427 -0.05882,0.09801 -0.08594,0.144532 -0.01356,0.02326 -0.02591,0.0457 -0.04687,0.08398 -0.01048,0.01914 -0.02299,0.03995 -0.04492,0.08398 -0.02193,0.04404 -0.142283,0.362278 -0.142578,0.363282 -0.0013,0.0077 -0.08788,0.544663 -0.08789,0.544921 -8e-6,2.61e-4 0.01363,0.329748 0.01367,0.330079 7.9e-5,6.6e-4 0.04845,0.265475 0.07031,0.341796 0.04372,0.152644 0.07415,0.219106 0.09766,0.273438 0.04702,0.108663 0.07037,0.149577 0.0918,0.189453 0.04286,0.07975 0.07053,0.126227 0.101562,0.177734 0.06207,0.103016 0.130157,0.210632 0.212891,0.339844 0.165469,0.258425 0.382974,0.589979 0.619141,0.945313 0.132046,0.198675 0.239377,0.347347 0.375,0.548828 l -4.904297,2.800781 c -0.63785,0.364178 -1.226459,0.703308 -1.666016,0.960938 -0.219778,0.128814 -0.400106,0.236978 -0.541015,0.322265 -0.07046,0.04264 -0.130603,0.07846 -0.191407,0.117188 -0.0304,0.01937 -0.05841,0.03791 -0.105468,0.07031 -0.04706,0.0324 0.0068,-0.09113 -0.382813,0.330078 -3.48e-4,3.77e-4 -0.175503,0.211421 -0.228516,0.292969 -0.05301,0.08155 -0.09005,0.149509 -0.11914,0.207031 -0.05818,0.115045 -0.08672,0.192299 -0.109375,0.25586 -0.0453,0.127121 -0.06088,0.196694 -0.07422,0.253906 -0.02667,0.114424 -0.03634,0.17281 -0.04492,0.230469 -0.01717,0.115317 -0.02635,0.206892 -0.03711,0.316406 -0.02152,0.219029 -0.04225,0.492685 -0.06641,0.839844 -0.04832,0.694318 -0.106958,1.673089 -0.171875,2.904297 -0.0556,1.054276 -0.112539,2.044652 -0.160157,2.783203 -0.02381,0.369275 -0.04591,0.678021 -0.0625,0.890625 -0.0045,0.05755 -0.0062,0.08512 -0.0098,0.126953 -0.04483,0.106786 -0.253157,0.355494 -0.267578,0.367187 -2.24e-4,1.81e-4 -0.0038,0.0058 -0.0039,0.0059 0.0085,-0.04973 -0.325708,-0.432241 -0.167968,-0.123047 0.08591,0.168489 -0.05834,-0.18139 -0.06641,-0.212891 -0.02327,-0.09087 -3.9e-4,0.154488 0.0039,-0.113281 0.0043,-0.267769 0.03612,-0.864576 0.103515,-1.955078 0.04048,-0.655497 0.07307,-1.253908 0.09375,-1.703125 0.01034,-0.224609 0.01763,-0.409389 0.02148,-0.560547 0.0019,-0.07558 0.0048,-0.139264 0.0039,-0.222656 -4.33e-4,-0.0417 -7.96e-4,-0.08295 -0.0078,-0.177735 -0.0035,-0.04739 -0.0057,-0.102794 -0.0293,-0.234375 -0.01179,-0.06579 -0.02511,-0.148392 -0.07617,-0.302734 -0.02553,-0.07717 -0.128763,-0.308314 -0.128907,-0.308594 -1.43e-4,-2.8e-4 -0.398286,-0.548676 -0.398437,-0.548828 h -0.002 c -7.6e-5,-7.6e-5 -0.619027,-0.43354 -0.619141,-0.433594 -1.14e-4,-5.3e-5 -0.490082,-0.162078 -0.490234,-0.162109 -3.04e-4,-6.1e-5 -0.565951,-0.03909 -0.566407,-0.03906 -9.11e-4,5.7e-5 -0.357716,0.0495 -0.441406,0.07227 -0.167378,0.04553 -0.221472,0.07315 -0.271484,0.09375 -0.100025,0.0412 -0.138833,0.06086 -0.181641,0.08203 -0.08561,0.04233 -0.155209,0.07906 -0.240234,0.125 -0.170051,0.09187 -0.38489,0.21209 -0.648438,0.361328 -0.527095,0.298477 -1.23557,0.709177 -2.011718,1.164063 -0.75785,0.444165 -1.487995,0.862282 -2.042969,1.173828 -0.277487,0.155773 -0.512363,0.285517 -0.675781,0.373047 -0.163419,0.08753 -0.455447,0.191809 -0.08203,0.05469 0.0034,-0.0013 0.111356,5.97e-4 -0.261718,0.0039 h -0.002 c -0.523155,0.0048 0.16438,0.145261 -0.08008,0.03125 -0.145826,-0.06804 -0.08887,-0.03799 -0.0957,-0.115235 -0.0068,-0.07725 0.0027,-0.254788 0.253906,-0.478515 -0.273388,0.243524 -0.07199,0.06114 0.08203,-0.03906 0.154021,-0.100207 0.380063,-0.243614 0.65039,-0.410156 0.540655,-0.333085 1.261361,-0.763727 2.023438,-1.208984 0.770894,-0.450406 1.472136,-0.864386 1.986328,-1.171875 0.257096,-0.153745 0.465912,-0.280064 0.623047,-0.376954 0.07857,-0.04844 0.14078,-0.08773 0.207031,-0.130859 0.03313,-0.02156 0.0631,-0.04147 0.125,-0.08594 0.03095,-0.02224 0.06595,-0.0438 0.154297,-0.119141 0.04417,-0.03767 0.09928,-0.08133 0.214844,-0.210938 0.05778,-0.0648 0.240082,-0.325918 0.240234,-0.326171 7.6e-5,-1.27e-4 0.179649,-0.374896 0.179688,-0.375 3.8e-5,-1.05e-4 0.132812,-0.749918 0.132812,-0.75 0,-8.3e-5 -0.082,-0.591702 -0.08203,-0.591797 -2.7e-5,-9.5e-5 -0.146431,-0.378799 -0.146485,-0.378907 -1.07e-4,-2.15e-4 -0.251738,-0.392311 -0.251953,-0.392578 -4.28e-4,-5.34e-4 -0.21446,-0.234463 -0.27539,-0.287109 -0.121861,-0.105291 -0.173759,-0.135102 -0.216797,-0.164063 -0.08608,-0.05792 -0.120366,-0.07695 -0.15625,-0.09766 -0.07177,-0.04141 -0.123174,-0.07057 -0.185547,-0.103515 -0.124747,-0.06589 -0.277387,-0.143253 -0.462891,-0.236329 -0.371006,-0.18615 -0.867939,-0.429037 -1.416015,-0.693359 -0.531826,-0.256486 -1.044277,-0.507194 -1.433594,-0.701172 -0.389317,-0.193978 -0.910289,-0.498862 -0.568359,-0.285156 0.05476,0.03422 -0.176923,-0.19653 -0.210938,-0.265625 -0.170409,-0.346147 0.01367,0.465441 0.01367,-0.134766 0,-0.04369 -6.56e-4,-0.0027 0,-0.03711 0.148467,-0.05791 0.348503,-0.102284 0.53125,-0.05469 -0.51861,-0.134942 -0.112674,-0.03236 0.08789,0.05664 0.200564,0.089 0.490786,0.222158 0.833984,0.382813 0.686395,0.321309 1.5955,0.75584 2.546875,1.222656 l 4.544922,2.232422 3.427734,-1.996094 c 0.671909,-0.391176 1.282327,-0.752006 1.732422,-1.021484 0.225047,-0.134739 0.409077,-0.245973 0.550781,-0.333985 0.07085,-0.044 0.128568,-0.07883 0.195313,-0.123047 0.03337,-0.02211 0.06361,-0.04228 0.132812,-0.09375 0.0346,-0.02574 0.07568,-0.05363 0.173828,-0.142578 0.04907,-0.04447 0.229944,-0.243493 0.230469,-0.24414 2.63e-4,-3.24e-4 0.234244,-0.353268 0.234375,-0.353516 6.6e-5,-1.24e-4 0.156218,-0.374895 0.15625,-0.375 3.3e-5,-1.05e-4 0.0957,-0.663977 0.0957,-0.664063 -10e-7,-1.7e-4 -0.179588,-0.851334 -0.179687,-0.851562 -9.9e-5,-2.28e-4 -0.204882,-0.366903 -0.205078,-0.367188 -3.93e-4,-5.69e-4 -0.184047,-0.233674 -0.238282,-0.289062 -0.108468,-0.110775 -0.15713,-0.145398 -0.197265,-0.177734 -0.08027,-0.06467 -0.114596,-0.08773 -0.148438,-0.111329 -0.06768,-0.04719 -0.116214,-0.07825 -0.173828,-0.115234 -0.09715,-0.06236 -0.220612,-0.13979 -0.355469,-0.222656 0.06761,-0.04071 0.148395,-0.08918 0.203125,-0.123047 0.05442,-0.03368 0.100134,-0.06225 0.16211,-0.103516 0.03099,-0.02063 0.06079,-0.03958 0.134765,-0.0957 0.03699,-0.02806 0.07997,-0.05651 0.185547,-0.15625 0.05279,-0.04987 0.241818,-0.270996 0.242188,-0.271484 1.85e-4,-2.44e-4 0.230377,-0.374809 0.230469,-0.375 4.5e-5,-9.6e-5 0.136696,-0.372965 0.136718,-0.373047 2.2e-5,-8.2e-5 0.07617,-0.615166 0.07617,-0.615234 v -0.002 l -0.002,-0.002 c -5e-6,-1.98e-4 -0.247902,-0.958707 -0.248047,-0.958984 -1.45e-4,-2.77e-4 -0.17048,-0.278642 -0.230469,-0.353516 -0.119976,-0.149747 -0.184894,-0.205203 -0.236328,-0.251953 -0.102868,-0.0935 -0.146534,-0.121119 -0.183593,-0.148437 -0.07412,-0.05464 -0.107043,-0.07649 -0.142579,-0.09961 -0.07107,-0.04624 -0.131792,-0.08248 -0.205078,-0.126953 -0.146572,-0.08895 -0.33192,-0.199955 -0.554687,-0.330078 -0.445534,-0.260246 -1.029529,-0.594904 -1.617188,-0.929687 -0.587658,-0.334784 -1.176579,-0.668388 -1.632812,-0.921875 -0.228116,-0.126744 -0.422094,-0.232056 -0.576172,-0.314454 -0.07704,-0.0412 -0.141394,-0.07665 -0.214844,-0.113281 -0.03672,-0.01832 -0.07153,-0.03601 -0.140625,-0.06641 -0.03455,-0.01519 -0.07608,-0.03188 -0.162109,-0.0625 -0.04301,-0.01531 -0.09625,-0.03409 -0.191406,-0.05859 -0.04758,-0.01225 -0.104552,-0.02727 -0.1875,-0.04102 -0.08295,-0.01375 -0.359032,-0.0293 -0.359375,-0.0293 -3.41e-4,0 -0.302106,0.01919 -0.38086,0.0332 -0.07875,0.01402 -0.129194,0.02649 -0.169922,0.03711 -0.08145,0.02125 -0.124062,0.03721 -0.158203,0.04883 -0.06828,0.02323 -0.09858,0.03548 -0.126953,0.04687 -0.05675,0.02278 -0.09244,0.03773 -0.130859,0.05469 -0.07685,0.03392 -0.158636,0.07213 -0.259766,0.11914 -0.20226,0.09403 -0.473728,0.222428 -0.804687,0.38086 -0.661918,0.316863 -1.55496,0.74967 -2.529297,1.226562 -0.961209,0.470471 -1.875921,0.909587 -2.564453,1.234375 -0.344266,0.162395 -0.633673,0.297209 -0.835938,0.388672 -0.202265,0.09146 -0.608534,0.209516 -0.123047,0.06836 0.109583,-0.03186 -0.351283,-0.07512 -0.234375,-0.01758 0.04956,0.0244 -0.05565,-0.03736 -0.144531,-0.107421 -8.74e-4,-0.04028 0,-0.0058 0,-0.06055 0,-0.598576 -0.183438,0.208128 -0.01563,-0.132813 0.01721,-0.03496 0.02086,-0.05423 0.140625,-0.166015 0.10356,-0.09665 0.005,-0.02855 0.234375,-0.15625 0.229353,-0.127704 0.722256,-0.37331 1.599609,-0.794922 0.544398,-0.261609 1.055049,-0.508854 1.441407,-0.695313 0.386357,-0.186459 0.521148,-0.247728 0.728515,-0.353515 0.259252,-0.132242 1.07831,-0.64012 1.203125,-1.722657 0.124815,-1.082537 -0.395361,-1.569106 -0.59375,-1.783203 -0.396778,-0.428193 -0.523985,-0.448065 -0.757812,-0.597656 -0.467655,-0.299182 -1.189677,-0.718883 -2.550782,-1.511719 -1.583498,-0.922354 -2.444143,-1.444737 -2.785156,-1.689453 -0.341013,-0.244716 -0.03586,0.09526 -0.126953,-0.0918 0.01672,0.03434 0.008,-0.357325 0,-0.339844 -2.58e-4,5.64e-4 0.195723,-0.144346 0.435547,-0.04687 -0.346563,-0.14078 -0.07179,-0.03135 0.06445,0.04297 0.136247,0.07432 0.331109,0.184266 0.5625,0.314453 0.462783,0.260374 1.071492,0.60646 1.701172,0.96875 1.259361,0.724581 2.655642,1.54472 3.027344,1.777344 l 3.570312,2.234375 0.0039,-4.201172 c 2.86e-4,-0.371157 -0.0183,-0.497912 -0.04297,-0.935547 -0.02466,-0.437634 -0.05854,-0.99685 -0.0957,-1.580078 -0.07295,-1.144322 -0.09415,-1.759724 -0.08398,-1.945312 0.01017,-0.185589 -0.07693,0.128284 0.03906,-0.109375 -0.06571,0.134642 0.218713,-0.178438 0.208984,-0.173828 0.284664,-0.134898 -0.386861,0.01172 0.06055,0.01172 0.02755,0 -0.0095,-0.0068 0.0098,-0.0078 0.03849,0.04689 0.173435,0.217576 0.18164,0.269531 v 0.002 c -0.03216,-0.20357 0.0053,0.07066 0.02539,0.304688 0.0201,0.234027 0.04647,0.558171 0.07617,0.943359 0.0594,0.770377 0.133142,1.786172 0.207031,2.855469 0.07453,1.078459 0.146597,2.061425 0.201172,2.78125 0.02729,0.359912 0.05027,0.653825 0.06836,0.867187 0.009,0.106681 0.01573,0.191245 0.02344,0.267578 0.0039,0.03817 0.0083,0.07107 0.01563,0.126954 0.0037,0.02794 0.0053,0.05644 0.01953,0.132812 0.0071,0.03818 0.01527,0.08324 0.04687,0.195313 0.0158,0.05604 0.09166,0.261401 0.0918,0.261718 6.7e-5,1.59e-4 0.142514,0.279192 0.142578,0.279297 6.4e-5,1.05e-4 0.443299,0.521433 0.443359,0.521485 0.383792,0.329221 0.247502,0.184313 0.277344,0.203125 0.02984,0.01881 0.05107,0.03165 0.07617,0.04687 0.05021,0.03045 0.108566,0.06528 0.179687,0.107421 0.142243,0.08429 0.33472,0.196904 0.5625,0.330079 0.455562,0.266349 1.051668,0.615162 1.648438,0.960937 0.59677,0.345775 1.193268,0.68819 1.644531,0.947266 0.225632,0.129538 0.415171,0.237446 0.554688,0.316406 0.06976,0.03948 0.12522,0.07176 0.175781,0.09961 0.02528,0.01393 0.04757,0.02587 0.08398,0.04492 0.01821,0.0095 0.0368,0.01961 0.08594,0.04297 0.02457,0.01168 0.05225,0.02544 0.125,0.05469 0.03637,0.01463 0.173558,0.06242 0.173828,0.0625 2.7e-4,8.3e-5 0.640497,0.0957 0.640625,0.0957 7.8e-5,0 0.765547,-0.138643 0.765625,-0.138672 7.8e-5,-3e-5 0.540938,-0.296817 0.541016,-0.296875 1.56e-4,-1.17e-4 0.505703,-0.534923 0.505859,-0.535157 1.56e-4,-2.33e-4 0.179532,-0.323869 0.179687,-0.324218 1.56e-4,-3.49e-4 0.05879,-0.14512 0.07617,-0.197266 0.06954,-0.208584 0.07368,-0.277964 0.08398,-0.339844 0.02061,-0.123759 0.0217,-0.166372 0.02539,-0.210937 0.0074,-0.08913 0.01086,-0.146702 0.01367,-0.216797 0.0056,-0.140189 0.0083,-0.306638 0.01172,-0.509766 1.22e-4,-0.0072 -1.21e-4,-0.02008 0,-0.02734 0.08204,0.04463 0.176356,0.09568 0.238281,0.128906 0.05414,0.02905 0.09865,0.05332 0.142578,0.07617 0.04393,0.02285 -0.110059,-0.0224 0.279297,0.126953 0.319807,0.12275 0.871817,0.217956 1.417969,0.05469 0.546152,-0.163269 0.939396,-0.530115 1.138672,-0.798828 0.398552,-0.537425 0.376765,-0.772553 0.410156,-0.943359 0.06678,-0.341613 0.06032,-0.480587 0.06836,-0.708985 0.01608,-0.456794 0.01758,-1.125213 0.01758,-2.308593 v -3.861328 l -2.597657,-1.765625 c -0.905064,-0.614944 -2.362098,-1.602337 -3.240234,-2.197266 -0.415217,-0.281307 -0.837058,-0.578443 -1.164063,-0.818359 -0.327004,-0.239916 -0.676108,-0.555975 -0.478515,-0.361329 -0.189282,-0.186444 -0.151045,-0.23389 -0.117188,-0.30664 0.09297,-0.0828 0.257126,-0.155205 0.08398,-0.08594 0.135574,-0.05421 -0.269344,0.0086 0.257812,0.0098 0.568559,0.0012 -0.02424,-0.113949 0.146485,-0.03516 -0.391001,-0.180337 0.160179,0.10035 0.546875,0.345703 0.386695,0.245353 0.886577,0.570088 1.390625,0.90625 l 5.228515,3.486328 0.07227,-7.517578 c 0.0153,-1.607411 0.02701,-2.493081 0.04492,-2.9375 0.01791,-0.44442 -0.0096,-0.186277 -0.03125,-0.128906 0.09266,-0.245826 0.145087,-0.255392 0.248047,-0.3125 0.01616,-1.33e-4 -0.0043,-1.9e-5 0.01367,0 0.04408,4.8e-5 -4.16e-4,-0.0063 0.02734,-0.0078 z m -9.492187,10.820313 c 0.258074,0.183141 0.501822,0.360841 0.779297,0.548828 0.875414,0.593085 2.333814,1.582101 3.236328,2.195312 l 0.689453,0.46875 v 0.597656 c -0.120832,-0.06584 -0.237928,-0.1279 -0.320313,-0.171875 -0.05149,-0.02748 -0.09233,-0.0505 -0.138672,-0.07422 -0.02317,-0.01186 -0.04512,-0.02374 -0.08984,-0.04492 -0.02237,-0.01059 -0.04617,-0.02276 -0.109375,-0.04883 -0.0316,-0.01303 -0.07174,-0.02895 -0.15625,-0.05664 -0.04225,-0.01385 -0.185321,-0.05268 -0.185547,-0.05273 -2.26e-4,-5.3e-5 -0.494009,-0.05469 -0.494141,-0.05469 -6.6e-5,0 -0.884699,0.187471 -0.884765,0.1875 -6.6e-5,3e-5 -0.562435,0.363223 -0.5625,0.363281 -1.32e-4,1.18e-4 -0.451041,0.560314 -0.451172,0.560547 -1.31e-4,2.34e-4 -0.112595,0.22793 -0.140625,0.302735 -0.02803,0.0748 -0.04567,0.129796 -0.05859,0.175781 -0.05169,0.183941 -0.05306,0.241611 -0.06055,0.294922 -0.01497,0.106621 -0.01675,0.143709 -0.01953,0.183594 -0.0056,0.07977 -0.0075,0.135503 -0.0098,0.203125 -0.004,0.118925 -0.0071,0.271814 -0.0098,0.441406 -0.204901,-0.119164 -0.42614,-0.246076 -0.603516,-0.34961 -8.73e-4,-0.01149 -0.0011,-0.01571 -0.002,-0.02734 -0.05347,-0.70526 -0.125236,-1.681451 -0.199219,-2.751953 -0.07461,-1.079679 -0.148354,-2.104335 -0.208984,-2.890625 z M 68.4375,51.552734 c -0.0738,0.930549 -0.155773,2.03961 -0.34375,4.697266 -0.02255,0.318824 -0.03755,0.462443 -0.05664,0.685547 -0.06026,0.03527 -0.138873,0.07969 -0.203125,0.117187 -0.0026,-0.122811 -0.004,-0.24853 -0.0078,-0.34375 -0.0027,-0.06844 -0.0064,-0.126694 -0.01367,-0.214843 -0.0036,-0.04407 -0.0049,-0.08567 -0.02539,-0.208985 -0.01024,-0.06166 -0.01472,-0.129673 -0.08398,-0.33789 -0.01732,-0.05205 -0.07602,-0.196927 -0.07617,-0.197266 -1.5e-4,-3.39e-4 -0.177584,-0.323992 -0.177734,-0.324219 -1.51e-4,-2.26e-4 -0.503755,-0.535042 -0.503907,-0.535156 -7.5e-5,-5.7e-5 -0.542893,-0.2988 -0.542968,-0.298828 -7.6e-5,-2.9e-5 -0.767503,-0.138672 -0.767578,-0.138672 -1.52e-4,0 -0.48413,0.05463 -0.484375,0.05469 -2.46e-4,5.7e-5 -0.153199,0.04145 -0.199219,0.05664 -0.09204,0.03037 -0.136385,0.04939 -0.171875,0.06445 -0.07098,0.03013 -0.09782,0.04414 -0.123047,0.05664 -0.05046,0.02501 -0.07464,0.03727 -0.09961,0.05078 -0.04995,0.02702 -0.09392,0.0522 -0.146485,0.08203 -0.0689,0.0391 -0.169808,0.09795 -0.263672,0.152344 v -0.474609 l 2.369141,-1.611328 c 0.724438,-0.493094 1.339238,-0.923705 1.921875,-1.332032 z m 4.214844,13.378907 c 0.296405,0.139367 0.504182,0.232436 1.109375,0.529296 2.133133,1.046337 2.929009,1.422183 3.800781,1.822266 -0.676026,0.321033 -1.45716,0.696152 -2.324219,1.121094 -0.969268,0.475028 -1.857848,0.905774 -2.503906,1.216797 -0.03307,0.01592 -0.04633,0.02183 -0.07813,0.03711 -0.105816,-0.05802 -0.248033,-0.137346 -0.367188,-0.203125 0.164056,-0.109852 0.299105,-0.153703 0.632813,-0.558594 0.172338,-0.209099 0.50447,-0.592934 0.519531,-1.390625 0.01506,-0.797691 -0.565486,-1.578068 -0.910156,-1.830078 -0.219666,-0.160583 -0.172946,-0.116062 -0.216797,-0.142578 -0.04385,-0.02652 -0.09061,-0.05308 -0.146484,-0.08594 -0.05451,-0.03206 -0.139185,-0.08248 -0.208985,-0.123047 0.233844,-0.13251 0.500637,-0.282862 0.69336,-0.392578 z m -26.949219,0.0059 c 0.136766,0.07637 0.308361,0.174721 0.462891,0.261719 -0.04252,0.02577 -0.09996,0.05931 -0.136719,0.08203 -0.05432,0.03357 -0.09873,0.0627 -0.160156,0.103516 -0.03072,0.02041 -0.06003,0.03878 -0.132813,0.09375 -0.03639,0.02749 -0.08015,0.05746 -0.183594,0.154296 -0.05172,0.04842 -0.23595,0.259276 -0.236328,0.259766 -1.89e-4,2.45e-4 -0.226467,0.361137 -0.226562,0.361328 -4.8e-5,9.6e-5 -0.140601,0.359293 -0.140625,0.359375 -2.4e-5,8.3e-5 -0.08789,0.595635 -0.08789,0.595703 v 0.002 0.002 c 0,6.8e-5 0.08591,0.619057 0.08594,0.61914 2.4e-5,8.3e-5 0.142529,0.365137 0.142578,0.365235 9.7e-5,1.94e-4 0.226368,0.361076 0.226562,0.361328 3.89e-4,5.02e-4 0.182263,0.208644 0.232422,0.255859 0.100318,0.09443 0.140689,0.121586 0.175781,0.148438 0.07018,0.0537 0.100634,0.07329 0.13086,0.09375 0.06045,0.04092 0.10476,0.07046 0.160156,0.105468 0.09666,0.06109 0.223546,0.137499 0.363281,0.222657 l -0.697265,0.40625 -2.451172,-1.203125 c -0.946824,-0.464583 -1.837721,-0.891158 -2.548828,-1.22461 0.693274,-0.328095 1.533611,-0.732492 2.447265,-1.179687 0.964872,-0.47226 1.851165,-0.900254 2.496094,-1.208985 0.03308,-0.01584 0.04632,-0.02191 0.07813,-0.03711 z m 12.695312,1.083984 h 0.986329 0.910156 l 0.371094,0.667969 c 0.16421,0.295346 0.282997,0.518986 0.417968,0.767578 -0.111486,0.189644 -0.205915,0.353361 -0.328125,0.558594 -0.154611,0.259649 -0.293138,0.487353 -0.435547,0.722656 -0.286756,0.0036 -0.471764,0.0098 -0.943359,0.0098 h -0.988281 c -0.262654,-0.381508 -0.505143,-0.728064 -0.794922,-1.164063 -0.03516,-0.0529 -0.05574,-0.08519 -0.08984,-0.136718 0.138781,-0.22244 0.253572,-0.406849 0.414063,-0.66211 z m 1.498047,3.435547 3.816407,1.794922 -3.81836,-1.792969 c 0.0012,-0.0015 7.33e-4,-4.81e-4 0.002,-0.002 z m 4.669922,0.671875 4.619141,2.587891 c 0.633331,0.354791 1.216358,0.676487 1.652344,0.914062 0.217993,0.118788 0.397802,0.214828 0.539062,0.289063 0.07063,0.03712 0.129165,0.06894 0.195313,0.101562 0.03307,0.01631 0.06415,0.03097 0.126953,0.05859 0.0314,0.01381 0.06793,0.03142 0.148437,0.06055 0.04026,0.01456 0.08898,0.0319 0.181641,0.05664 0.04633,0.01237 0.105295,0.02628 0.189453,0.04102 0.08416,0.01474 0.376679,0.0332 0.376953,0.0332 2.74e-4,0 0.353941,-0.02829 0.435547,-0.04492 0.08161,-0.01664 0.129085,-0.02982 0.167969,-0.04102 0.07777,-0.02238 0.115962,-0.03581 0.146484,-0.04687 0.06104,-0.02213 0.08636,-0.03256 0.111328,-0.04297 0.04994,-0.02082 0.08132,-0.03657 0.117188,-0.05273 0.07174,-0.03234 0.152705,-0.06857 0.251953,-0.115235 0.198495,-0.09333 0.466987,-0.222046 0.796875,-0.380859 0.659775,-0.317626 1.55633,-0.753667 2.533203,-1.232422 0.964612,-0.472752 1.880957,-0.913799 2.572266,-1.240234 0.345654,-0.163218 0.636667,-0.29868 0.839843,-0.390625 0.203177,-0.09195 0.606745,-0.208997 0.123047,-0.06836 -0.05119,0.01488 -0.069,-7.7e-4 0.113281,0.0098 0.03302,0.0019 0.20557,0.125501 0.271485,0.15625 -3.72e-4,0.02205 -0.004,-0.0049 -0.0039,0.02539 0.0012,0.544589 0.195034,-0.298159 -0.01367,0.125 h 0.002 c -0.165237,0.334337 0.06052,0.04666 -0.0918,0.154296 -0.152319,0.107636 -0.783813,0.451345 -2,1.03711 -0.806254,0.388325 -1.337434,0.648603 -1.720703,0.853515 -0.191635,0.102457 -0.329708,0.173286 -0.552735,0.330079 -0.111513,0.0784 -0.240589,0.125509 -0.53125,0.5 -0.14533,0.187245 -0.397929,0.486444 -0.457031,1.164062 -0.0591,0.677618 0.42481,1.616318 0.884766,1.955078 0.389008,0.286537 0.187973,0.124639 0.240234,0.15625 0.05226,0.03161 0.118251,0.07093 0.199219,0.119141 0.161935,0.09643 0.385058,0.228727 0.65625,0.388672 0.542385,0.319889 1.274577,0.751064 2.070312,1.216797 0.997959,0.584095 1.731266,1.021056 2.214844,1.322265 0.483579,0.301209 0.886566,0.686413 0.507813,0.304688 0.07881,0.07942 0.111804,0.325408 0.0332,0.445312 -0.08738,0.133292 0.220409,-0.108535 -0.121094,0.05078 -0.216894,0.101194 0.406673,-0.02666 -0.0625,-0.02734 -0.281442,-4.01e-4 -0.38527,-0.05018 -0.212891,0.0098 0.493922,0.171806 0.127611,0.05031 -0.03516,-0.03711 -0.162766,-0.08742 -0.400312,-0.218639 -0.68164,-0.376953 -0.562657,-0.316628 -1.308287,-0.745797 -2.087891,-1.203125 -0.791867,-0.464527 -1.512734,-0.885615 -2.039063,-1.191406 -0.263164,-0.152896 -0.477075,-0.27705 -0.630859,-0.365235 -0.07689,-0.04409 -0.137368,-0.07827 -0.189453,-0.107422 -0.02604,-0.01458 -0.04801,-0.02769 -0.08398,-0.04687 -0.01799,-0.0096 -0.03404,-0.01889 -0.08789,-0.04492 -0.02693,-0.01301 -0.05579,-0.02696 -0.15625,-0.06641 -0.05023,-0.01972 -0.286909,-0.09175 -0.287109,-0.0918 -1.01e-4,-2.4e-5 -0.470642,-0.05859 -0.470704,-0.05859 -6.1e-5,-10e-7 1.064454,0.298828 1.064454,0.298828 l -2.642579,0.33789 c 0,0 -0.513653,0.816355 -0.513671,0.816407 -1.9e-5,5.2e-5 -0.08397,0.304604 -0.08398,0.304687 -3.2e-5,1.67e-4 -0.02933,0.19068 -0.0332,0.236328 -0.0078,0.0913 -0.0073,0.120902 -0.0078,0.148438 -9.41e-4,0.05507 -3.84e-4,0.07338 0,0.0918 7.66e-4,0.03683 0.001,0.05682 0.002,0.08008 0.0019,0.04651 0.0046,0.09696 0.0078,0.160156 0.0065,0.126398 0.01707,0.29912 0.0293,0.511719 0.02446,0.425197 0.0599,1.006865 0.09961,1.644531 0.0443,0.711581 0.07479,1.306956 0.08984,1.734375 0.01506,0.427419 -0.03592,0.918146 0.01953,0.509766 0.01397,-0.102886 -0.246879,0.301092 -0.27539,0.314453 -0.127105,0.05957 -0.05954,0.0085 -0.0332,-0.02148 -0.07937,-0.0685 -0.156848,-0.154865 -0.177735,-0.210937 -0.0047,-0.04543 -0.0076,-0.07895 -0.01367,-0.142578 -0.02118,-0.223279 -0.04852,-0.544719 -0.08008,-0.931641 -0.06312,-0.773843 -0.141246,-1.812359 -0.21875,-2.917969 -0.07853,-1.120311 -0.156255,-2.143526 -0.21875,-2.90039 -0.03125,-0.378432 -0.0589,-0.688041 -0.08203,-0.921875 -0.01157,-0.116917 -0.02281,-0.211917 -0.03516,-0.308594 -0.0062,-0.04834 -0.01059,-0.09318 -0.02539,-0.175781 -0.0074,-0.0413 -0.01492,-0.08769 -0.04297,-0.19336 -0.01402,-0.05283 -0.03105,-0.11744 -0.08008,-0.242187 -0.02451,-0.06237 -0.118889,-0.253449 -0.11914,-0.253906 -2.52e-4,-4.58e-4 -0.368904,-0.491952 -0.369141,-0.492188 -0.36979,-0.36979 -0.301601,-0.252848 -0.34375,-0.28125 -0.04215,-0.0284 -0.06975,-0.04754 -0.09961,-0.06641 -0.05972,-0.03773 -0.121171,-0.0742 -0.195313,-0.119141 -0.148283,-0.08989 -0.34161,-0.20653 -0.570312,-0.341797 C 69.960564,73.7197 69.364843,73.371592 68.769531,73.025391 68.174219,72.679189 67.57971,72.336073 67.125,72.076172 c -0.227355,-0.129951 -0.41908,-0.238324 -0.566406,-0.320313 -0.07366,-0.04099 -0.134203,-0.07402 -0.197266,-0.107422 -0.03153,-0.0167 -0.0598,-0.03181 -0.115234,-0.05859 -0.02772,-0.01339 -0.05738,-0.03033 -0.13086,-0.06055 -0.03674,-0.01511 -0.08331,-0.03319 -0.175781,-0.0625 -0.04623,-0.01465 -0.196886,-0.05265 -0.197266,-0.05273 -3.79e-4,-8.2e-5 -0.462651,-0.04883 -0.46289,-0.04883 -2.33e-4,0 -0.97633,0.230352 -0.976563,0.230469 -2.32e-4,1.17e-4 -0.56422,0.406017 -0.564453,0.40625 -2.33e-4,2.33e-4 -0.269298,0.32973 -0.269531,0.330078 -2.33e-4,3.48e-4 -0.104114,0.167799 -0.136719,0.232422 -0.130418,0.258491 -0.146007,0.363435 -0.167969,0.449219 -0.04392,0.171568 -0.04699,0.230416 -0.05469,0.289062 -0.01539,0.117293 -0.02013,0.184155 -0.02539,0.261719 -0.01051,0.155128 -0.01653,0.324147 -0.02344,0.53125 -0.0021,0.06273 -0.002,0.167862 -0.0039,0.236328 l -2.529297,-1.240234 c 0.180804,-0.0028 0.476666,-7.52e-4 0.617187,-0.0059 0.201222,-0.0073 0.360298,-0.01452 0.56836,-0.04102 0.10403,-0.01325 0.215743,-0.02672 0.416015,-0.08398 0.200272,-0.05726 0.548845,-0.03224 1.123047,-0.726562 0.280259,-0.338766 0.212977,-0.294317 0.289063,-0.414063 0.07608,-0.119745 0.164906,-0.263348 0.265625,-0.427734 0.201436,-0.328772 0.448451,-0.738475 0.691406,-1.146484 0.02517,-0.04226 0.04337,-0.07512 0.06836,-0.117188 z m -27.318359,0.767578 c 0.0011,-2.22e-4 -0.02027,0.05918 -0.01172,0.04297 0.117344,-0.222594 -0.05822,-0.01251 -0.0059,-0.04102 0.0041,-0.0022 0.01327,2.29e-4 0.01758,-0.002 z m 17.722656,0.570313 c 0.105085,0.15095 0.25088,0.374454 0.335938,0.492187 l 0.828125,1.144532 h 3.242187 c 0.09712,0 0.119403,-0.0018 0.208984,-0.002 l -0.03516,5.654297 c -0.0046,0.735697 -0.0056,1.412146 -0.0039,1.916016 8.3e-4,0.251935 0.0034,0.459726 0.0059,0.619141 0.0012,0.07971 0.0014,0.144773 0.0039,0.21289 0.0012,0.03406 0.0019,0.06678 0.0059,0.123047 0.002,0.02813 0.0057,0.06046 0.01367,0.125 0.004,0.03227 0.0088,0.07105 0.02148,0.138672 0.01267,0.06762 0.103292,0.372457 0.103516,0.373047 l 0.002,0.0039 v 0.002 c 1.13e-4,2.95e-4 0.186937,0.382483 0.25,0.472656 0.06306,0.09017 0.109536,0.143237 0.146484,0.185547 0.0739,0.08462 0.114985,0.122703 0.148438,0.154297 0.06691,0.06319 0.09891,0.08828 0.126953,0.111328 0.05609,0.0461 0.08918,0.07067 0.125,0.09766 0.07164,0.05398 0.144712,0.10818 0.236328,0.173828 0.183232,0.131296 0.42884,0.303744 0.730469,0.513672 0.603258,0.419855 1.423193,0.983855 2.322265,1.595703 0.883607,0.601314 1.723221,1.181787 2.351563,1.626953 0.314171,0.222583 0.576706,0.412937 0.757812,0.546875 0.181107,0.133938 0.446395,0.402973 0.119141,0.07227 0.06057,0.0612 0.05947,0.472333 0.140625,0.304688 0.113607,-0.234685 -0.459877,0.122603 -0.347656,0.136719 -0.20299,-0.02555 0.01972,0.04984 -0.220703,-0.07813 -0.240426,-0.12797 -0.803732,-0.484029 -1.798828,-1.146485 l -5.38086,-3.583984 -0.0039,7.335937 c -5.99e-4,1.739701 -0.01145,2.684928 -0.04297,3.117188 -0.03151,0.43226 0.03229,0.146722 -0.07227,0.369141 -0.03976,0.08459 -0.292044,0.136195 -0.167969,0.173828 -0.05154,-0.01427 -0.130502,-0.113742 -0.234375,-0.310547 0.0017,-0.03107 0.0095,0.01124 0.0059,-0.08008 -0.01761,-0.436841 -0.02804,-1.337703 -0.04297,-3 l -0.06836,-7.578125 -5.263672,3.505859 c -0.515698,0.34352 -1.016952,0.672382 -1.398437,0.916016 -0.190743,0.121816 -0.352707,0.221751 -0.462891,0.289062 -0.110184,0.06731 -0.314894,0.155884 -0.01563,0.02148 -0.288887,0.129751 -0.573105,-0.120723 -0.570312,-0.08594 0.01141,0.142246 0.179437,-0.327144 0.15039,-0.335937 0.03173,-0.02285 0.05371,-0.03911 0.09766,-0.07031 0.159538,-0.113262 0.391282,-0.273641 0.669922,-0.466797 0.557282,-0.386311 1.307175,-0.902546 2.109375,-1.447265 1.616028,-1.097346 3.02929,-2.05817 3.324219,-2.263672 l 1.298828,-0.904297 v -3.904297 c 0,-0.767474 -0.0021,-1.464681 -0.0078,-1.978516 -0.0029,-0.256917 -0.0075,-0.465542 -0.01172,-0.626953 -0.0021,-0.0807 -0.0036,-0.145415 -0.0078,-0.222656 -0.0021,-0.03862 -0.004,-0.07389 -0.01367,-0.162109 -0.0048,-0.04411 -0.0057,-0.09074 -0.03906,-0.242188 -0.01667,-0.07573 -0.134499,-0.411505 -0.134766,-0.412109 -1.33e-4,-3.02e-4 -0.359241,-0.562349 -0.359375,-0.5625 -6.6e-5,-7.6e-5 -0.558526,-0.453087 -0.558593,-0.453125 -6.7e-5,-3.8e-5 -1.076105,-0.285157 -1.076172,-0.285157 -1.34e-4,0 -0.521257,0.0644 -0.521485,0.06445 -2.27e-4,5.6e-5 -0.150984,0.04121 -0.195312,0.05664 -0.08866,0.03085 -0.129202,0.05002 -0.162109,0.06445 -0.06581,0.02887 -0.09022,0.0411 -0.113282,0.05273 -0.04612,0.02327 -0.06827,0.03599 -0.0918,0.04883 -0.04704,0.02567 -0.08897,0.05067 -0.140625,0.08008 -0.0765,0.04354 -0.187599,0.106469 -0.296875,0.169922 z M 67.375,77.255859 c 0.223997,0.131143 0.463535,0.272239 0.654297,0.384766 0.0036,0.04295 0.006,0.06035 0.0098,0.105469 0.06028,0.730027 0.13736,1.740302 0.214844,2.845703 0.07743,1.104604 0.154237,2.134704 0.21875,2.927734 -0.635427,-0.448396 -1.397431,-0.978644 -2.232422,-1.546875 -0.88864,-0.604748 -1.700599,-1.163472 -2.285156,-1.570312 -0.02263,-0.01575 -0.03078,-0.02181 -0.05273,-0.03711 -2.83e-4,-0.219575 0.0032,-0.499883 0.0039,-0.765625 l 3.435547,1.685547 z M 50.679687,77.65625 c 0.0018,0.04069 0.0018,0.137558 0.0039,0.175781 0.01064,0.196622 -0.0051,0.320684 0.09961,0.71875 0.05234,0.199033 0.07644,0.5302 0.601563,1.046875 0.524684,0.516243 1.810883,0.686021 2.333984,0.486328 0.472363,-0.181204 0.277804,-0.126838 0.324219,-0.152343 0.04642,-0.02551 0.09161,-0.05273 0.146484,-0.08398 0.04635,-0.02639 0.12061,-0.06861 0.177734,-0.101562 v 0.607422 c -0.469612,0.321017 -1.380036,0.943224 -2.714843,1.849609 -0.667467,0.453231 -1.239603,0.848741 -1.761719,1.208984 0.04805,-0.751794 0.103801,-1.702784 0.158203,-2.734375 0.0623,-1.181627 0.117523,-2.101104 0.162109,-2.75 0.133975,-0.07812 0.313592,-0.181738 0.46875,-0.271484 z"
           id="path13200" />
      </g>
      <path
         style="fill:#ffffff;fill-opacity:1;stroke-width:2.17805855;stroke-dasharray:none;stroke:none;stroke-opacity:1"
         d="m 58.53423,96.547716 c -0.750392,-0.210633 -1.340767,-0.773514 -1.70649,-1.627024 -0.115225,-0.268865 -0.125057,-0.513716 -0.154945,-3.841643 l -0.03194,-3.554468 -1.914459,1.275253 c -1.052945,0.701395 -2.03938,1.33138 -2.192079,1.399956 -1.585216,0.711986 -3.503308,-0.2909 -3.63242,-1.899225 -0.0578,-0.720558 0.305759,-1.628202 0.854196,-2.132309 0.101261,-0.0931 1.50513,-1.066263 3.119662,-2.162581 1.614533,-1.09633 3.100627,-2.108384 3.30244,-2.249004 l 0.366939,-0.255688 v -2.766715 c 0,-1.521695 -0.01389,-2.766715 -0.03103,-2.766715 -0.0171,0 -0.807215,0.460539 -1.755942,1.023433 -0.948727,0.562895 -1.767165,1.039638 -1.818777,1.059437 -0.0812,0.03117 -0.09608,-0.244682 -0.110701,-2.044229 l -0.01674,-2.080245 -2.297356,1.311644 c -1.263538,0.721412 -2.329013,1.3459 -2.367719,1.387747 -0.04462,0.04824 -0.144882,1.48885 -0.273959,3.936912 -0.111983,2.12345 -0.232126,3.986843 -0.266977,4.14086 -0.178101,0.787131 -0.752552,1.52864 -1.45039,1.872185 -0.379534,0.186852 -0.481903,0.208849 -0.968188,0.208085 -0.470291,-7.75e-4 -0.595509,-0.02613 -0.926653,-0.187523 -0.44038,-0.214707 -0.977333,-0.721412 -1.174956,-1.108783 -0.07474,-0.146574 -0.18142,-0.444001 -0.237002,-0.660957 -0.09401,-0.367172 -0.09104,-0.556997 0.0441,-2.743788 0.0798,-1.292129 0.129189,-2.365222 0.109792,-2.384659 -0.0194,-0.0194 -1.292855,0.70168 -2.829823,1.602468 -1.536954,0.900788 -2.954588,1.696611 -3.150285,1.768473 -0.26417,0.09699 -0.520168,0.132129 -0.993962,0.136332 -0.571817,0.0052 -0.677962,-0.013 -1.021042,-0.173007 -1.63874,-0.764605 -1.827117,-2.895349 -0.370664,-4.19269 0.179546,-0.159933 1.555992,-1.007929 3.106538,-1.913865 1.531277,-0.894671 2.784146,-1.6439 2.784146,-1.664927 0,-0.02107 -0.883046,-0.464108 -1.96232,-0.984612 -1.079272,-0.520505 -2.073688,-1.015973 -2.209794,-1.101039 -0.394341,-0.24644 -0.784183,-0.690064 -1.010618,-1.150023 -0.196733,-0.399618 -0.209664,-0.467277 -0.209664,-1.097287 0,-0.609086 0.01621,-0.702273 0.175376,-1.004075 0.243169,-0.461277 0.493553,-0.72846 0.879567,-0.938562 0.656831,-0.357487 1.457554,-0.450931 2.202178,-0.256994 0.209185,0.05443 1.95473,0.871577 3.878966,1.815751 l 3.498615,1.716682 2.420248,-1.40906 c 1.331144,-0.774975 2.420065,-1.426932 2.419859,-1.448799 -1.94e-4,-0.02186 -0.803762,-0.513586 -1.785648,-1.09271 -0.981869,-0.579123 -1.785141,-1.067311 -1.785038,-1.08486 1.3e-4,-0.01763 0.77486,-0.477014 1.72166,-1.021041 0.946814,-0.544027 1.721156,-1.003493 1.720768,-1.021042 -0.0012,-0.05082 -4.616929,-2.680358 -4.70484,-2.680304 -0.04359,3.7e-5 -1.665885,0.77663 -3.605096,1.725783 -1.939198,0.949155 -3.681354,1.770943 -3.871451,1.826214 -0.54907,0.159612 -1.295958,0.09544 -1.80463,-0.15491 -0.473988,-0.233354 -1.014731,-0.749061 -1.218148,-1.161765 -0.119998,-0.243428 -0.142388,-0.394561 -0.142388,-0.960301 0,-0.629002 0.01318,-0.698096 0.208137,-1.094184 0.141534,-0.287486 0.336227,-0.542321 0.608401,-0.796352 0.357771,-0.333898 0.610096,-0.474389 2.376384,-1.323179 1.086864,-0.522289 2.042275,-0.983384 2.123138,-1.024636 0.135388,-0.06906 -0.08703,-0.211319 -2.804863,-1.794441 -3.17796,-1.851094 -3.452967,-2.048458 -3.774412,-2.708562 -0.316931,-0.65083 -0.325725,-1.536683 -0.02186,-2.200484 0.526621,-1.150294 1.977334,-1.669829 3.235168,-1.15861 0.284617,0.115617 4.739498,2.678792 5.691743,3.274741 l 0.239301,0.14978 2.09e-4,-0.27202 c 1.15e-4,-0.149602 -0.06013,-1.218368 -0.133839,-2.375012 -0.146912,-2.304534 -0.135192,-2.518633 0.17249,-3.149044 0.227252,-0.465635 0.727091,-0.946372 1.233447,-1.186322 0.372072,-0.176319 0.48277,-0.198426 0.993082,-0.198426 0.501766,0 0.620972,0.02289 0.943375,0.181213 0.717881,0.352508 1.270987,1.111991 1.398687,1.920538 0.03363,0.212883 0.182636,2.145291 0.331132,4.294269 0.148516,2.148963 0.282637,3.918031 0.298064,3.931274 0.06815,0.05846 4.776896,2.786747 4.8096,2.786747 0.02004,0 0.03646,-0.962022 0.03646,-2.137819 0,-1.175795 0.01389,-2.137802 0.03078,-2.137802 0.01692,0 0.80741,0.431947 1.756614,0.959874 0.949206,0.527939 1.768149,0.976128 1.819864,0.995966 0.08186,0.03142 0.09401,-0.312756 0.09401,-2.672042 v -2.708134 l -1.643241,-1.116504 c -0.90379,-0.614078 -2.360606,-1.602506 -3.237382,-2.196514 -0.876774,-0.594009 -1.75448,-1.23796 -1.950448,-1.431006 -0.802404,-0.790377 -1.024093,-1.904849 -0.566839,-2.849426 0.186361,-0.384953 0.807073,-0.937761 1.253478,-1.11635 0.308849,-0.12349 0.483817,-0.147411 1.071113,-0.146057 0.61576,0.0013 0.745297,0.02159 1.054741,0.164403 0.194029,0.08949 1.199113,0.727233 2.233538,1.417118 l 1.880759,1.254343 0.03336,-3.494051 c 0.03065,-3.219016 0.0428,-3.519163 0.15361,-3.813128 0.268452,-0.712232 0.701614,-1.215884 1.331016,-1.547584 0.298957,-0.157564 0.397343,-0.175252 0.970829,-0.174646 0.53906,5.95e-4 0.684879,0.0238 0.939131,0.149549 0.610975,0.302202 1.111913,0.878028 1.368144,1.572672 0.107459,0.29134 0.120533,0.623234 0.149602,3.816943 l 0.03194,3.497865 1.946362,-1.294497 c 2.154692,-1.433034 2.456067,-1.580689 3.231896,-1.583496 2.316986,-0.0078 3.375453,2.408196 1.802315,4.114854 -0.133713,0.14506 -1.737501,1.280905 -3.563986,2.524114 l -3.320868,2.260372 v 2.703647 c 0,2.377935 0.01158,2.699212 0.09583,2.666883 0.05263,-0.02018 0.869584,-0.497124 1.815336,-1.059786 0.945753,-0.562661 1.735432,-1.02302 1.754843,-1.02302 0.0194,0 0.0353,0.9333 0.0353,2.074 0,1.140698 0.01478,2.073998 0.03311,2.073998 0.05458,0 4.267823,-2.433606 4.355694,-2.515916 0.05548,-0.05199 0.121175,-0.640692 0.207363,-1.859189 0.445692,-6.301268 0.441309,-6.250538 0.572709,-6.632478 0.186501,-0.542048 0.396268,-0.866791 0.795808,-1.231945 0.661539,-0.604612 1.548258,-0.780524 2.349497,-0.466114 0.761216,0.298712 1.440613,1.156515 1.571445,1.984098 0.03712,0.234829 0.0078,1.105577 -0.09104,2.678999 -0.08031,1.282095 -0.140875,2.336617 -0.134623,2.34338 0.0064,0.0064 1.188018,-0.678401 2.626135,-1.522601 1.438116,-0.844198 2.810075,-1.629934 3.048796,-1.74606 1.39627,-0.679269 2.83925,-0.293695 3.446953,0.921026 0.389259,0.778093 0.368866,1.484943 -0.06699,2.320246 -0.378551,0.725537 -0.661421,0.931695 -3.782764,2.75699 l -2.833638,1.657053 0.79493,0.379496 c 3.867675,1.846413 4.00192,1.931944 4.447782,2.834077 0.226797,0.45891 0.239883,0.518719 0.239883,1.096291 0,0.561046 -0.0171,0.64549 -0.208705,1.03484 -0.246764,0.501263 -0.527578,0.765703 -1.096486,1.032565 -0.354305,0.16622 -0.51105,0.199808 -1.031271,0.221029 -0.948816,0.03867 -0.625083,0.172455 -6.194075,-2.559225 -1.858297,-0.911535 -2.164754,-1.043349 -2.265441,-0.97437 -0.06402,0.04384 -1.150231,0.662881 -2.413782,1.375592 -1.263538,0.712709 -2.331535,1.32715 -2.373318,1.365427 -0.05637,0.05173 0.379821,0.328389 1.697464,1.076571 0.975393,0.553855 1.821351,1.042043 1.87992,1.084859 0.09143,0.06685 -0.133411,0.221573 -1.584868,1.091068 l -1.691347,1.013192 2.280468,1.277504 c 1.254265,0.702636 2.309201,1.277479 2.344298,1.277453 0.03505,-2.5e-5 1.656121,-0.780419 3.602264,-1.734203 1.946143,-0.953797 3.695436,-1.779802 3.887306,-1.835589 0.239831,-0.0697 0.50452,-0.09234 0.846902,-0.07255 0.911833,0.05276 1.81681,0.654994 2.185185,1.454102 0.104111,0.225968 0.132699,0.417061 0.133928,0.896727 0.0013,0.577313 -0.01158,0.635184 -0.237919,1.094093 -0.41939,0.848584 -0.643627,1.007036 -3.097833,2.18908 -1.594746,0.768095 -2.098039,1.037179 -2.031544,1.086153 0.04863,0.03582 1.387605,0.825525 2.975538,1.754919 2.01265,1.177983 2.972538,1.775869 3.169061,1.973934 0.826237,0.832702 0.957145,2.181771 0.307829,3.172281 -0.253851,0.387241 -0.502012,0.589185 -1.022452,0.831979 -0.332527,0.155142 -0.456207,0.177264 -0.986449,0.176498 -0.409109,-5.82e-4 -0.709993,-0.03698 -0.925321,-0.111859 -0.175483,-0.06104 -1.611324,-0.86904 -3.190761,-1.795563 -1.579423,-0.926524 -2.87626,-1.679967 -2.881846,-1.67433 -0.0052,0.0052 0.05458,1.048884 0.133625,2.318294 0.09027,1.449897 0.125306,2.443873 0.09414,2.673412 -0.109009,0.802908 -0.736258,1.631357 -1.509747,1.993834 -0.3182,0.149121 -0.447892,0.172009 -0.97335,0.171742 -0.5406,-1.94e-4 -0.643148,-0.01966 -0.947033,-0.17948 -0.669555,-0.352043 -1.172911,-0.988518 -1.346638,-1.702766 -0.0384,-0.157938 -0.197493,-2.108203 -0.353516,-4.333918 -0.156014,-2.225715 -0.308422,-4.07152 -0.338682,-4.101766 -0.08523,-0.08523 -4.74621,-2.795799 -4.807506,-2.795799 -0.02975,0 -0.06181,0.958891 -0.071,2.130872 l -0.01674,2.130886 -1.723017,-0.844704 -1.723005,-0.844716 -0.01674,2.654403 c -0.0091,1.459919 -0.0052,2.68527 0.0091,2.722992 0.01443,0.03776 1.48899,1.063975 3.276705,2.280572 1.787716,1.216582 3.385759,2.348759 3.551196,2.515942 0.727038,0.734692 0.965319,1.93436 0.55326,2.785544 -0.414283,0.855811 -1.593932,1.471921 -2.5806,1.347813 -0.65872,-0.0829 -0.947628,-0.23665 -2.953929,-1.572284 l -1.999162,-1.330886 -0.0012,3.270084 c -0.0012,3.488063 -0.0221,3.775097 -0.321716,4.412479 -0.489791,1.042003 -1.695188,1.636478 -2.729512,1.346146 z m 3.038877,-25.701341 c 0.155747,-0.188261 1.991727,-3.271533 1.991727,-3.344831 0,-0.04448 -0.447595,-0.885878 -0.994673,-1.869844 L 61.575487,63.842653 H 59.384998 57.19451 l -1.121146,1.78315 c -0.616626,0.980745 -1.128878,1.80944 -1.138319,1.841549 -0.01443,0.04875 1.552317,2.406036 2.136989,3.215319 l 0.175892,0.243467 h 2.129606 c 1.625938,0 2.145201,-0.01888 2.195582,-0.0798 z"
         id="path4571" />
    </g>
  </g>
  <g
     inkscape:groupmode="layer"
     id="layer3"
     inkscape:label="FG" />
</svg>
