<?xml version="1.0" encoding="UTF-8" standalone="no"?>
<!-- Created with Inkscape (http://www.inkscape.org/) -->

<svg
   width="128"
   height="128"
   viewBox="0 0 1 1"
   version="1.1"
   id="svg5"
   inkscape:version="1.2.1 (9c6d41e410, 2022-07-14)"
   sodipodi:docname="Sprite-Template.svg"
   inkscape:export-filename="..\DPXP_ExoAdaptation\Textures\UI\Xenotypes\Behinder.png"
   inkscape:export-xdpi="96"
   inkscape:export-ydpi="96"
   xmlns:inkscape="http://www.inkscape.org/namespaces/inkscape"
   xmlns:sodipodi="http://sodipodi.sourceforge.net/DTD/sodipodi-0.dtd"
   xmlns="http://www.w3.org/2000/svg"
   xmlns:svg="http://www.w3.org/2000/svg">
  <sodipodi:namedview
     id="namedview7"
     pagecolor="#ffffff"
     bordercolor="#666666"
     borderopacity="1.0"
     inkscape:showpageshadow="2"
     inkscape:pageopacity="0.0"
     inkscape:pagecheckerboard="0"
     inkscape:deskcolor="#d1d1d1"
     inkscape:document-units="px"
     showgrid="true"
     inkscape:zoom="3.3638608"
     inkscape:cx="107.01989"
     inkscape:cy="79.67036"
     inkscape:window-width="1680"
     inkscape:window-height="987"
     inkscape:window-x="-8"
     inkscape:window-y="-8"
     inkscape:window-maximized="1"
     inkscape:current-layer="text298">
    <inkscape:grid
       type="xygrid"
       id="grid132"
       empspacing="8" />
  </sodipodi:namedview>
  <defs
     id="defs2" />
  <g
     inkscape:label="BG"
     inkscape:groupmode="layer"
     id="layer1" />
  <g
     inkscape:groupmode="layer"
     id="layer2"
     inkscape:label="Main">
    <g
       aria-label="?"
       transform="matrix(0.01076073,0,0,0.01076073,-0.13589189,-0.22446739)"
       id="text298"
       style="font-size:96px;line-height:1;font-family:'Comic Sans MS';-inkscape-font-specification:'Comic Sans MS';letter-spacing:0px;word-spacing:0px;baseline-shift:baseline;opacity:1;stroke-width:2.17805855;stop-color:#000000;stop-opacity:1;fill:#00ff00;fill-opacity:1;stroke:#004000;stroke-opacity:1;stroke-dasharray:none">
      <path
         style="fill:#ffffff;fill-opacity:1;stroke-width:4.3561171;stroke:#404040;stroke-opacity:1;stroke-dasharray:none"
         d="m 45.753075,95.052076 c -2.464767,-0.197061 -4.831941,-0.860994 -6.977135,-1.956994 -2.185735,-1.116658 -4.072759,-2.612472 -5.610769,-4.447579 -0.166252,-0.198328 -0.278648,-0.357118 -0.263172,-0.371816 0.04338,-0.04085 1.709989,-0.995883 1.738368,-0.995883 0.01417,0 0.238455,0.207599 0.49839,0.461333 0.904033,0.882469 1.822821,1.533 2.969184,2.10234 1.361772,0.676306 2.809954,1.077543 4.353002,1.206022 0.607957,0.05058 1.878425,0.01972 2.463317,-0.0596 0.872647,-0.118507 1.516088,-0.268458 2.335758,-0.54416 1.486843,-0.50007 2.87779,-1.290848 4.008459,-2.278842 0.33409,-0.291935 0.96249,-0.924853 1.239857,-1.248816 1.14107,-1.332684 2.035498,-3.042243 2.48353,-4.746868 0.648766,-2.468365 0.494842,-5.078906 -0.438266,-7.432895 -0.121904,-0.307518 -0.17811,-0.426487 -0.387158,-0.819227 -0.211341,-0.397039 -0.313876,-0.294951 1.136566,-1.131622 0.693971,-0.400294 1.280604,-0.727822 1.303634,-0.727822 0.02302,0 0.184224,0.122584 0.358199,0.272405 0.462171,0.397982 0.789437,0.574668 1.350496,0.729117 0.194679,0.05355 0.318289,0.06397 0.774164,0.06552 0.47068,0.0014 0.575124,-0.0085 0.788956,-0.06566 0.548752,-0.149599 1.052486,-0.428616 1.44837,-0.802079 0.116179,-0.109619 0.233627,-0.199287 0.260971,-0.199287 0.02735,0 0.100283,0.03241 0.162099,0.07201 0.319929,0.205204 1.375686,0.793484 1.786355,0.995391 0.429961,0.211363 0.631637,0.341408 0.631637,0.407212 0,0.01456 -0.08695,0.2148 -0.193191,0.446002 -0.96601,2.102145 -1.298644,4.367755 -0.978825,6.666846 0.317476,2.282226 1.285198,4.41124 2.801878,6.164255 0.343969,0.397545 1.077622,1.112274 1.474432,1.436364 3.226283,2.634975 7.436952,3.38358 11.420627,2.030478 1.767071,-0.600229 3.301401,-1.529478 4.47136,-2.708107 0.379667,-0.382496 0.38732,-0.388202 0.499876,-0.373097 0.07352,0.0099 0.398359,0.179334 0.910396,0.474946 0.437855,0.252833 0.801203,0.464054 0.807442,0.469508 0.03653,0.03142 -0.799294,0.970296 -1.380553,1.550402 -1.376847,1.374153 -2.856273,2.441267 -4.613346,3.327637 -2.038342,1.028211 -4.055717,1.619308 -6.389427,1.872139 -0.608272,0.06595 -2.205669,0.09103 -2.881853,0.04524 -3.88049,-0.262469 -7.481818,-1.696214 -10.435142,-4.154405 -0.188222,-0.156664 -0.377017,-0.30291 -0.419521,-0.324935 -0.101506,-0.05269 -0.148901,-0.02676 -0.413657,0.226426 -0.116042,0.110899 -0.373723,0.330206 -0.572637,0.487303 -2.894098,2.285566 -6.29676,3.622251 -9.885531,3.883369 -0.491804,0.03579 -2.177187,0.03381 -2.637148,-0.0043 z m 6.509984,-10.13211 c -2.489352,-1.123971 -4.760963,-2.959783 -6.421071,-5.18918 -0.967567,-1.299375 -1.7909,-2.857229 -2.333905,-4.416072 -0.672007,-1.929164 -0.997303,-4.171329 -0.892641,-6.152728 0.02046,-0.387117 0.04479,-0.775067 0.05415,-0.862077 l 0.01689,-0.158275 h 0.63661 c 1.243913,2.95e-4 2.249132,0.153772 3.389315,0.518063 0.49068,0.156684 0.492231,0.15748 0.475992,0.238729 -0.0089,0.04481 -0.0254,0.343788 -0.03653,0.664397 -0.07146,2.056502 0.438597,4.198156 1.437305,6.035208 0.255181,0.469395 0.809294,1.308887 1.120905,1.698187 1.122523,1.402435 2.464175,2.49642 4.006152,3.266598 0.236727,0.118372 0.454144,0.235614 0.483153,0.260821 0.07855,0.0682 0.06653,0.187214 -0.08041,0.796458 -0.237418,0.984273 -0.506166,1.717294 -0.981096,2.675922 -0.302346,0.610276 -0.341042,0.673627 -0.438569,0.718084 -0.110861,0.05058 -0.120157,0.04846 -0.436333,-0.09427 z m 13.365278,0.01262 c -0.196036,-0.119633 -0.303199,-0.300248 -0.699489,-1.179559 -0.370913,-0.822977 -0.562171,-1.3646 -0.743404,-2.105244 -0.1345,-0.549628 -0.185253,-0.857751 -0.143564,-0.871645 0.111831,-0.03721 0.893327,-0.453543 1.195936,-0.63702 2.377231,-1.441325 4.173964,-3.637383 5.118913,-6.256547 0.472343,-1.309224 0.717144,-2.84848 0.670968,-4.218885 -0.01048,-0.315256 -0.02715,-0.636907 -0.0368,-0.714786 -0.02531,-0.205122 0.04344,-0.261148 0.503852,-0.410763 1.10821,-0.36005 2.103894,-0.522207 3.246773,-0.528773 0.655486,-0.0029 0.674423,-0.0014 0.725946,0.06116 0.04503,0.05537 0.05883,0.186592 0.09275,0.881508 0.07802,1.59896 -0.02814,2.966166 -0.344702,4.438013 -0.482517,2.243657 -1.505668,4.497263 -2.878109,6.339402 -1.306786,1.754001 -2.916106,3.210572 -4.793974,4.338939 -0.430047,0.258412 -1.715565,0.920385 -1.786895,0.920175 -0.02009,0 -0.07777,-0.02537 -0.128211,-0.05609 z M 30.04255,83.21813 c -1.018594,-2.833741 -1.312335,-5.76561 -0.879442,-8.777924 0.785529,-5.466163 4.028637,-10.237988 8.859362,-13.035443 0.925119,-0.535735 2.591067,-1.280816 3.200895,-1.431575 0.149969,-0.03705 0.219862,-0.0985 0.219862,-0.193637 0,-0.03804 -0.03439,-0.25069 -0.07645,-0.472535 -0.389671,-2.055629 -0.429464,-4.174444 -0.116527,-6.205088 0.510892,-3.315269 1.907516,-6.348972 4.113916,-8.936149 0.444624,-0.521363 1.595274,-1.658325 2.121905,-2.096678 2.085572,-1.735936 4.345957,-2.927317 6.886719,-3.629773 0.431029,-0.11907 1.573149,-0.364588 1.948155,-0.418611 l 0.124757,-0.01805 0.01262,0.881369 c 0.007,0.484766 0.0014,0.92309 -0.01165,0.974043 -0.04246,0.162875 -0.135412,0.215435 -0.634263,0.358599 -4.305287,1.235724 -7.564184,4.759142 -8.44555,9.131081 -0.178732,0.886568 -0.211332,1.242461 -0.211332,2.307433 0,1.061365 0.032,1.412466 0.210074,2.305614 0.215709,1.081869 0.519026,1.960897 1.039962,3.013878 0.637458,1.288525 1.371529,2.296442 2.414579,3.315394 1.335899,1.305011 2.81514,2.211981 4.54742,2.788198 0.941767,0.313268 1.898714,0.509555 2.57126,0.527366 0.289468,0.0085 0.404589,0.02226 0.459617,0.05819 l 0.07342,0.04819 v 1.492136 c 0,1.167033 -0.0082,1.494785 -0.03765,1.504424 -0.431401,0.140943 -0.965288,0.368432 -1.144884,0.487798 -0.722802,0.480397 -1.235579,1.255014 -1.396026,2.108864 -0.07059,0.375563 -0.04798,1.065775 0.04322,1.319438 0.0946,0.26316 0.08635,0.334137 -0.04903,0.421416 -0.06217,0.04002 -0.646603,0.380552 -1.298761,0.756608 -1.167362,0.673175 -1.186433,0.682772 -1.230585,0.619757 -0.278754,-0.397995 -1.607016,-1.90311 -1.928743,-2.185575 -1.904476,-1.672021 -4.020535,-2.614107 -6.580251,-2.929572 -0.334005,-0.04128 -0.657247,-0.05398 -1.371317,-0.05398 -1.002328,0 -1.403646,0.03311 -2.215201,0.18273 -1.172869,0.216252 -2.187957,0.554771 -3.254996,1.085516 -1.679586,0.835405 -3.094987,2.007876 -4.170746,3.45488 -1.228359,1.652278 -2.003737,3.563631 -2.295392,5.658193 -0.06599,0.473918 -0.09248,1.862473 -0.04611,2.418892 0.06744,0.809901 0.21925,1.663483 0.399525,2.246477 l 0.09594,0.310295 -0.07327,0.07257 c -0.05471,0.05411 -1.661344,1.009706 -1.697665,1.009706 -0.0037,0 -0.08324,-0.213616 -0.177101,-0.474692 z m 57.452779,0.01922 c -0.290085,-0.167397 -0.635927,-0.358612 -0.768538,-0.424923 -0.281602,-0.140769 -0.366842,-0.211448 -0.3917,-0.324653 -0.01087,-0.04988 0.02343,-0.24724 0.0873,-0.501016 0.273605,-1.086742 0.362944,-1.824089 0.362944,-2.995558 0,-0.949457 -0.03521,-1.371435 -0.179819,-2.154928 -0.613504,-3.324046 -2.697737,-6.287802 -5.67041,-8.063264 -1.468198,-0.8769 -3.025343,-1.409268 -4.817197,-1.646896 -0.496174,-0.06581 -2.12126,-0.07567 -2.607006,-0.01611 -1.668702,0.205628 -3.127995,0.669103 -4.478468,1.422414 -0.724237,0.403998 -1.500575,0.947836 -2.060772,1.443623 -0.492227,0.435632 -0.685434,0.63999 -1.196689,1.265737 -0.662751,0.811182 -0.972095,1.171627 -1.021916,1.190748 -0.03074,0.01126 -2.408539,-1.332642 -2.531836,-1.431545 -0.03313,-0.02663 -0.03148,-0.04171 0.09052,-0.846523 0.09852,-0.649602 -0.106397,-1.457599 -0.526528,-2.076287 -0.165903,-0.244307 -0.502436,-0.596338 -0.749619,-0.78417 -0.247359,-0.187951 -0.742843,-0.429715 -0.981673,-0.479018 -0.09945,-0.02057 -0.218127,-0.0565 -0.263713,-0.07975 l -0.08287,-0.04241 v -1.502409 -1.502393 l 0.09324,-0.01863 c 0.0513,-0.0099 0.309414,-0.03932 0.573616,-0.06453 2.212625,-0.211631 4.376308,-1.106683 6.219854,-2.57292 0.409404,-0.325626 1.347296,-1.245926 1.662227,-1.631071 1.53342,-1.875281 2.420436,-3.92905 2.721033,-6.300216 0.09667,-0.762541 0.09085,-1.978033 -0.01359,-2.825019 C 70.72742,48.35854 69.993893,46.449328 68.879106,44.849805 68.131319,43.776872 67.013324,42.658764 65.940948,41.911371 64.951451,41.221749 63.488465,40.509895 62.66156,40.31568 62.135859,40.192243 61.94425,40.136502 61.85174,40.080251 l -0.095,-0.05778 v -1.012117 c 0,-0.949527 0.0033,-1.011201 0.05273,-0.997223 0.02898,0.0085 0.113791,0.02339 0.188358,0.03396 0.244448,0.03453 0.911935,0.167843 1.286499,0.257017 1.889116,0.449765 3.851913,1.287226 5.523538,2.356749 1.141436,0.730316 2.055091,1.470818 3.076392,2.493363 1.454596,1.456373 2.479903,2.88031 3.375851,4.688321 0.410959,0.829288 0.6651,1.442734 0.948978,2.290538 0.992749,2.964926 1.200217,6.141863 0.601153,9.20544 -0.04035,0.206191 -0.0702,0.376973 -0.0664,0.379494 0.0037,0.0014 0.173627,0.06116 0.377355,0.130346 5.252875,1.782534 9.402541,5.995121 11.20027,11.370034 0.424247,1.268416 0.664907,2.349353 0.851491,3.824468 0.0473,0.373927 0.05528,0.663213 0.05528,2.00421 0,1.463392 -0.0047,1.60316 -0.06993,2.109726 -0.09547,0.74046 -0.24631,1.548428 -0.413602,2.215208 -0.162953,0.649489 -0.658355,2.17047 -0.706709,2.169779 -0.0083,0 -0.252654,-0.137236 -0.542737,-0.304602 z M 51.931013,60.043629 c -1.00554,-0.859627 -1.909783,-1.973522 -2.53319,-3.120517 L 49.2549,56.660119 49.45548,56.51213 c 0.629205,-0.464506 1.540139,-1.011682 2.340437,-1.405874 4.240474,-2.088671 9.114149,-2.256845 13.562466,-0.46804 0.930452,0.374168 2.280843,1.107526 3.114021,1.691099 0.520579,0.364629 0.492081,0.283465 0.249242,0.709925 -0.5698,1.000676 -1.327227,1.965067 -2.097436,2.670569 -0.364239,0.333628 -0.477675,0.414594 -0.581137,0.414778 -0.112763,1.69e-4 -0.277429,-0.08272 -0.505924,-0.254692 -0.408513,-0.307477 -1.327367,-0.792822 -2.017233,-1.06555 -0.989023,-0.390966 -2.039827,-0.651576 -3.134437,-0.777365 -0.621535,-0.07144 -1.880233,-0.07243 -2.510714,-0.0014 -1.975534,0.220789 -3.801007,0.872829 -5.38104,1.922076 -0.196987,0.130754 -0.366999,0.23784 -0.377805,0.23784 -0.01067,0 -0.09401,-0.06354 -0.184904,-0.141254 z"
         id="path10980" />
      <path
         style="fill:#ffffff;fill-opacity:1;stroke-width:0.0301389;stroke:none"
         d="m 45.753075,95.052076 c -2.464767,-0.197061 -4.831941,-0.860994 -6.977135,-1.956994 -2.185735,-1.116658 -4.072759,-2.612472 -5.610769,-4.447579 -0.166252,-0.198328 -0.278648,-0.357118 -0.263172,-0.371816 0.04338,-0.04085 1.709989,-0.995883 1.738368,-0.995883 0.01417,0 0.238455,0.207599 0.49839,0.461333 0.904033,0.882469 1.822821,1.533 2.969184,2.10234 1.361772,0.676306 2.809954,1.077543 4.353002,1.206022 0.607957,0.05058 1.878425,0.01972 2.463317,-0.0596 0.872647,-0.118507 1.516088,-0.268458 2.335758,-0.54416 1.486843,-0.50007 2.87779,-1.290848 4.008459,-2.278842 0.33409,-0.291935 0.96249,-0.924853 1.239857,-1.248816 1.14107,-1.332684 2.035498,-3.042243 2.48353,-4.746868 0.648766,-2.468365 0.494842,-5.078906 -0.438266,-7.432895 -0.121904,-0.307518 -0.17811,-0.426487 -0.387158,-0.819227 -0.211341,-0.397039 -0.313876,-0.294951 1.136566,-1.131622 0.693971,-0.400294 1.280604,-0.727822 1.303634,-0.727822 0.02302,0 0.184224,0.122584 0.358199,0.272405 0.462171,0.397982 0.789437,0.574668 1.350496,0.729117 0.194679,0.05355 0.318289,0.06397 0.774164,0.06552 0.47068,0.0014 0.575124,-0.0085 0.788956,-0.06566 0.548752,-0.149599 1.052486,-0.428616 1.44837,-0.802079 0.116179,-0.109619 0.233627,-0.199287 0.260971,-0.199287 0.02735,0 0.100283,0.03241 0.162099,0.07201 0.319929,0.205204 1.375686,0.793484 1.786355,0.995391 0.429961,0.211363 0.631637,0.341408 0.631637,0.407212 0,0.01456 -0.08695,0.2148 -0.193191,0.446002 -0.96601,2.102145 -1.298644,4.367755 -0.978825,6.666846 0.317476,2.282226 1.285198,4.41124 2.801878,6.164255 0.343969,0.397545 1.077622,1.112274 1.474432,1.436364 3.226283,2.634975 7.436952,3.38358 11.420627,2.030478 1.767071,-0.600229 3.301401,-1.529478 4.47136,-2.708107 0.379667,-0.382496 0.38732,-0.388202 0.499876,-0.373097 0.07352,0.0099 0.398359,0.179334 0.910396,0.474946 0.437855,0.252833 0.801203,0.464054 0.807442,0.469508 0.03653,0.03142 -0.799294,0.970296 -1.380553,1.550402 -1.376847,1.374153 -2.856273,2.441267 -4.613346,3.327637 -2.038342,1.028211 -4.055717,1.619308 -6.389427,1.872139 -0.608272,0.06595 -2.205669,0.09103 -2.881853,0.04524 -3.88049,-0.262469 -7.481818,-1.696214 -10.435142,-4.154405 -0.188222,-0.156664 -0.377017,-0.30291 -0.419521,-0.324935 -0.101506,-0.05269 -0.148901,-0.02676 -0.413657,0.226426 -0.116042,0.110899 -0.373723,0.330206 -0.572637,0.487303 -2.894098,2.285566 -6.29676,3.622251 -9.885531,3.883369 -0.491804,0.03579 -2.177187,0.03381 -2.637148,-0.0043 z m 6.509984,-10.13211 c -2.489352,-1.123971 -4.760963,-2.959783 -6.421071,-5.18918 -0.967567,-1.299375 -1.7909,-2.857229 -2.333905,-4.416072 -0.672007,-1.929164 -0.997303,-4.171329 -0.892641,-6.152728 0.02046,-0.387117 0.04479,-0.775067 0.05415,-0.862077 l 0.01689,-0.158275 h 0.63661 c 1.243913,2.95e-4 2.249132,0.153772 3.389315,0.518063 0.49068,0.156684 0.492231,0.15748 0.475992,0.238729 -0.0089,0.04481 -0.0254,0.343788 -0.03653,0.664397 -0.07146,2.056502 0.438597,4.198156 1.437305,6.035208 0.255181,0.469395 0.809294,1.308887 1.120905,1.698187 1.122523,1.402435 2.464175,2.49642 4.006152,3.266598 0.236727,0.118372 0.454144,0.235614 0.483153,0.260821 0.07855,0.0682 0.06653,0.187214 -0.08041,0.796458 -0.237418,0.984273 -0.506166,1.717294 -0.981096,2.675922 -0.302346,0.610276 -0.341042,0.673627 -0.438569,0.718084 -0.110861,0.05058 -0.120157,0.04846 -0.436333,-0.09427 z m 13.365278,0.01262 c -0.196036,-0.119633 -0.303199,-0.300248 -0.699489,-1.179559 -0.370913,-0.822977 -0.562171,-1.3646 -0.743404,-2.105244 -0.1345,-0.549628 -0.185253,-0.857751 -0.143564,-0.871645 0.111831,-0.03721 0.893327,-0.453543 1.195936,-0.63702 2.377231,-1.441325 4.173964,-3.637383 5.118913,-6.256547 0.472343,-1.309224 0.717144,-2.84848 0.670968,-4.218885 -0.01048,-0.315256 -0.02715,-0.636907 -0.0368,-0.714786 -0.02531,-0.205122 0.04344,-0.261148 0.503852,-0.410763 1.10821,-0.36005 2.103894,-0.522207 3.246773,-0.528773 0.655486,-0.0029 0.674423,-0.0014 0.725946,0.06116 0.04503,0.05537 0.05883,0.186592 0.09275,0.881508 0.07802,1.59896 -0.02814,2.966166 -0.344702,4.438013 -0.482517,2.243657 -1.505668,4.497263 -2.878109,6.339402 -1.306786,1.754001 -2.916106,3.210572 -4.793974,4.338939 -0.430047,0.258412 -1.715565,0.920385 -1.786895,0.920175 -0.02009,0 -0.07777,-0.02537 -0.128211,-0.05609 z M 30.04255,83.21813 c -1.018594,-2.833741 -1.312335,-5.76561 -0.879442,-8.777924 0.785529,-5.466163 4.028637,-10.237988 8.859362,-13.035443 0.925119,-0.535735 2.591067,-1.280816 3.200895,-1.431575 0.149969,-0.03705 0.219862,-0.0985 0.219862,-0.193637 0,-0.03804 -0.03439,-0.25069 -0.07645,-0.472535 -0.389671,-2.055629 -0.429464,-4.174444 -0.116527,-6.205088 0.510892,-3.315269 1.907516,-6.348972 4.113916,-8.936149 0.444624,-0.521363 1.595274,-1.658325 2.121905,-2.096678 2.085572,-1.735936 4.345957,-2.927317 6.886719,-3.629773 0.431029,-0.11907 1.573149,-0.364588 1.948155,-0.418611 l 0.124757,-0.01805 0.01262,0.881369 c 0.007,0.484766 0.0014,0.92309 -0.01165,0.974043 -0.04246,0.162875 -0.135412,0.215435 -0.634263,0.358599 -4.305287,1.235724 -7.564184,4.759142 -8.44555,9.131081 -0.178732,0.886568 -0.211332,1.242461 -0.211332,2.307433 0,1.061365 0.032,1.412466 0.210074,2.305614 0.215709,1.081869 0.519026,1.960897 1.039962,3.013878 0.637458,1.288525 1.371529,2.296442 2.414579,3.315394 1.335899,1.305011 2.81514,2.211981 4.54742,2.788198 0.941767,0.313268 1.898714,0.509555 2.57126,0.527366 0.289468,0.0085 0.404589,0.02226 0.459617,0.05819 l 0.07342,0.04819 v 1.492136 c 0,1.167033 -0.0082,1.494785 -0.03765,1.504424 -0.431401,0.140943 -0.965288,0.368432 -1.144884,0.487798 -0.722802,0.480397 -1.235579,1.255014 -1.396026,2.108864 -0.07059,0.375563 -0.04798,1.065775 0.04322,1.319438 0.0946,0.26316 0.08635,0.334137 -0.04903,0.421416 -0.06217,0.04002 -0.646603,0.380552 -1.298761,0.756608 -1.167362,0.673175 -1.186433,0.682772 -1.230585,0.619757 -0.278754,-0.397995 -1.607016,-1.90311 -1.928743,-2.185575 -1.904476,-1.672021 -4.020535,-2.614107 -6.580251,-2.929572 -0.334005,-0.04128 -0.657247,-0.05398 -1.371317,-0.05398 -1.002328,0 -1.403646,0.03311 -2.215201,0.18273 -1.172869,0.216252 -2.187957,0.554771 -3.254996,1.085516 -1.679586,0.835405 -3.094987,2.007876 -4.170746,3.45488 -1.228359,1.652278 -2.003737,3.563631 -2.295392,5.658193 -0.06599,0.473918 -0.09248,1.862473 -0.04611,2.418892 0.06744,0.809901 0.21925,1.663483 0.399525,2.246477 l 0.09594,0.310295 -0.07327,0.07257 c -0.05471,0.05411 -1.661344,1.009706 -1.697665,1.009706 -0.0037,0 -0.08324,-0.213616 -0.177101,-0.474692 z m 57.452779,0.01922 c -0.290085,-0.167397 -0.635927,-0.358612 -0.768538,-0.424923 -0.281602,-0.140769 -0.366842,-0.211448 -0.3917,-0.324653 -0.01087,-0.04988 0.02343,-0.24724 0.0873,-0.501016 0.273605,-1.086742 0.362944,-1.824089 0.362944,-2.995558 0,-0.949457 -0.03521,-1.371435 -0.179819,-2.154928 -0.613504,-3.324046 -2.697737,-6.287802 -5.67041,-8.063264 -1.468198,-0.8769 -3.025343,-1.409268 -4.817197,-1.646896 -0.496174,-0.06581 -2.12126,-0.07567 -2.607006,-0.01611 -1.668702,0.205628 -3.127995,0.669103 -4.478468,1.422414 -0.724237,0.403998 -1.500575,0.947836 -2.060772,1.443623 -0.492227,0.435632 -0.685434,0.63999 -1.196689,1.265737 -0.662751,0.811182 -0.972095,1.171627 -1.021916,1.190748 -0.03074,0.01126 -2.408539,-1.332642 -2.531836,-1.431545 -0.03313,-0.02663 -0.03148,-0.04171 0.09052,-0.846523 0.09852,-0.649602 -0.106397,-1.457599 -0.526528,-2.076287 -0.165903,-0.244307 -0.502436,-0.596338 -0.749619,-0.78417 -0.247359,-0.187951 -0.742843,-0.429715 -0.981673,-0.479018 -0.09945,-0.02057 -0.218127,-0.0565 -0.263713,-0.07975 l -0.08287,-0.04241 v -1.502409 -1.502393 l 0.09324,-0.01863 c 0.0513,-0.0099 0.309414,-0.03932 0.573616,-0.06453 2.212625,-0.211631 4.376308,-1.106683 6.219854,-2.57292 0.409404,-0.325626 1.347296,-1.245926 1.662227,-1.631071 1.53342,-1.875281 2.420436,-3.92905 2.721033,-6.300216 0.09667,-0.762541 0.09085,-1.978033 -0.01359,-2.825019 C 70.72742,48.35854 69.993893,46.449328 68.879106,44.849805 68.131319,43.776872 67.013324,42.658764 65.940948,41.911371 64.951451,41.221749 63.488465,40.509895 62.66156,40.31568 62.135859,40.192243 61.94425,40.136502 61.85174,40.080251 l -0.095,-0.05778 v -1.012117 c 0,-0.949527 0.0033,-1.011201 0.05273,-0.997223 0.02898,0.0085 0.113791,0.02339 0.188358,0.03396 0.244448,0.03453 0.911935,0.167843 1.286499,0.257017 1.889116,0.449765 3.851913,1.287226 5.523538,2.356749 1.141436,0.730316 2.055091,1.470818 3.076392,2.493363 1.454596,1.456373 2.479903,2.88031 3.375851,4.688321 0.410959,0.829288 0.6651,1.442734 0.948978,2.290538 0.992749,2.964926 1.200217,6.141863 0.601153,9.20544 -0.04035,0.206191 -0.0702,0.376973 -0.0664,0.379494 0.0037,0.0014 0.173627,0.06116 0.377355,0.130346 5.252875,1.782534 9.402541,5.995121 11.20027,11.370034 0.424247,1.268416 0.664907,2.349353 0.851491,3.824468 0.0473,0.373927 0.05528,0.663213 0.05528,2.00421 0,1.463392 -0.0047,1.60316 -0.06993,2.109726 -0.09547,0.74046 -0.24631,1.548428 -0.413602,2.215208 -0.162953,0.649489 -0.658355,2.17047 -0.706709,2.169779 -0.0083,0 -0.252654,-0.137236 -0.542737,-0.304602 z M 51.931013,60.043629 c -1.00554,-0.859627 -1.909783,-1.973522 -2.53319,-3.120517 L 49.2549,56.660119 49.45548,56.51213 c 0.629205,-0.464506 1.540139,-1.011682 2.340437,-1.405874 4.240474,-2.088671 9.114149,-2.256845 13.562466,-0.46804 0.930452,0.374168 2.280843,1.107526 3.114021,1.691099 0.520579,0.364629 0.492081,0.283465 0.249242,0.709925 -0.5698,1.000676 -1.327227,1.965067 -2.097436,2.670569 -0.364239,0.333628 -0.477675,0.414594 -0.581137,0.414778 -0.112763,1.69e-4 -0.277429,-0.08272 -0.505924,-0.254692 -0.408513,-0.307477 -1.327367,-0.792822 -2.017233,-1.06555 -0.989023,-0.390966 -2.039827,-0.651576 -3.134437,-0.777365 -0.621535,-0.07144 -1.880233,-0.07243 -2.510714,-0.0014 -1.975534,0.220789 -3.801007,0.872829 -5.38104,1.922076 -0.196987,0.130754 -0.366999,0.23784 -0.377805,0.23784 -0.01067,0 -0.09401,-0.06354 -0.184904,-0.141254 z"
         id="path3825" />
    </g>
  </g>
  <g
     inkscape:groupmode="layer"
     id="layer3"
     inkscape:label="FG" />
</svg>
